<svg xmlns="http://www.w3.org/2000/svg" xmlns:xlink="http://www.w3.org/1999/xlink" xmlns:lucid="lucid" width="2149.94" height="1287"><g transform="translate(396 1317)" lucid:page-tab-id="0_0"><path d="M821.87-531.7l-1.7 1.1-154.5-241.46H668zm-170.9-267.03h-2.38l-40.9-63.9 1.68-1.07z" stroke="#3a414a" stroke-width=".05" fill="#3a414a"/><path d="M829.26-518.3l-11.6-9.5 7.8-5z" fill="#3a414a"/><path d="M831-515.56l-15.04-12.35 10.13-6.5zm-11.64-12.15l8.15 6.68-2.65-10.2zM609.4-863.67l-1.7 1.07-.54-.86 1.68-1.08z" stroke="#3a414a" stroke-width=".05" fill="#3a414a"/><use xlink:href="#a" transform="matrix(1,0,0,1,522.1048048246647,-798.7266678363275) translate(0 17.77777777777778)"/><use xlink:href="#b" transform="matrix(1,0,0,1,522.1048048246647,-798.7266678363275) translate(69.01234567901234 17.77777777777778)"/><use xlink:href="#c" transform="matrix(1,0,0,1,522.1048048246647,-798.7266678363275) translate(189.75308641975306 17.77777777777778)"/><path d="M1118-1204a6 6 0 0 1 6-6h601.33a6 6 0 0 1 6 6v260.67a6 6 0 0 1-6 6H1124a6 6 0 0 1-6-6z" stroke="#3a414a" stroke-width="2" fill="#fff"/><use xlink:href="#d" transform="matrix(1,0,0,1,1123,-1205) translate(302 124.62152777777777)"/><use xlink:href="#e" transform="matrix(1,0,0,1,1123,-1205) translate(302 151.28819444444443)"/><path d="M-174-1204a6 6 0 0 1 6-6h1230a6 6 0 0 1 6 6V-56a6 6 0 0 1-6 6H-168a6 6 0 0 1-6-6z" stroke="#232f3e" stroke-width="3" fill="#fff" fill-opacity="0"/><path d="M-174-1210h56v56h-56v-56z" stroke="#fff" stroke-opacity="0" fill="#232f3e"/><path d="M-155.78-1184.13c-.04.48.04.87.17 1.34.1.4.28.7.48 1.08.04.1.08.2.08.33 0 .2-.12.36-.28.46l-.95.62c-.12.1-.24.13-.37.13-.16 0-.33-.06-.45-.2-.2-.2-.36-.43-.52-.7-.17-.25-.3-.53-.45-.86-1.1 1.37-2.63 2.1-4.4 2.06-1.15.06-2.13-.3-2.96-1.08-.78-.8-1.14-1.76-1.1-2.85-.04-1.23.4-2.28 1.35-3.08 1.07-.86 2.3-1.23 3.66-1.16.57 0 1.02.02 1.6.1.57.1 1.1.2 1.72.33v-1.1c.08-.88-.16-1.67-.7-2.37-.74-.56-1.56-.8-2.46-.7-.53 0-1.03.07-1.6.2-.58.13-1.03.3-1.6.5l-.5.2h-.24c-.2 0-.33-.16-.33-.45v-.75c0-.18.04-.34.12-.5.12-.16.24-.26.4-.33.66-.3 1.2-.5 1.9-.67.77-.2 1.47-.3 2.3-.28 1.47-.13 2.78.26 3.9 1.2.94 1.05 1.35 2.28 1.22 3.67zm-6.07 2.28c.57 0 1.06-.1 1.6-.28.57-.2 1.03-.5 1.44-.96.23-.27.4-.57.48-.93.12-.45.16-.84.16-1.3v-.67c-.53-.1-.94-.17-1.44-.2h-1.4c-.8-.08-1.55.12-2.2.58-.54.45-.8 1.04-.75 1.73-.04.62.13 1.16.54 1.6.44.38.97.52 1.55.45zm12 1.6c-.22.02-.42-.03-.6-.15-.15-.17-.23-.36-.32-.6l-3.5-11.5-.1-.62c0-.24.1-.37.36-.37h1.47c.2 0 .37.04.57.15.17.18.25.37.3.6l2.5 9.96 2.38-9.93c0-.24.08-.44.28-.6.17-.12.37-.16.58-.14h1.2c.24-.02.4.02.6.13.17.2.25.37.3.6l2.33 9.95 2.56-10c.04-.2.16-.4.33-.58.15-.1.36-.17.56-.14h1.4c.16 0 .33.12.37.3v.31s0 .2-.12.35l-3.6 11.53c-.05.22-.13.42-.3.6-.2.1-.36.14-.57.13h-1.27c-.25.04-.46-.02-.62-.15-.16-.16-.25-.36-.3-.6l-2.3-9.6-2.28 9.6c-.05.24-.13.43-.3.6-.2.13-.4.2-.6.16zm19.2.38c-.82 0-1.5-.07-2.3-.25-.65-.13-1.15-.3-1.72-.6-.2-.1-.37-.23-.45-.4v-.02c-.08-.14-.12-.28-.12-.43v-.75c0-.3.12-.46.32-.46h.3l.36.15c.58.24 1.03.4 1.6.5.62.15 1.15.2 1.8.2.8.06 1.5-.1 2.2-.48.48-.32.77-.83.72-1.42.05-.4-.12-.76-.37-1.04-.46-.4-.95-.65-1.52-.8l-2.18-.67c-.94-.26-1.72-.74-2.38-1.5-.5-.66-.74-1.36-.74-2.2 0-.58.12-1.07.4-1.6.3-.5.63-.88 1.08-1.2.5-.4.98-.62 1.6-.8.66-.17 1.2-.25 1.9-.24.32-.03.6-.03.97 0l1 .16.8.23.67.25c.16.1.28.22.45.38.08.15.12.3.12.5v.7c0 .32-.12.47-.37.47-.2-.03-.37-.1-.57-.18-.95-.43-1.8-.6-2.88-.58-.7-.04-1.3.1-1.97.4-.5.3-.74.8-.7 1.36 0 .4.13.76.46 1.05.5.4.98.65 1.6.82l2.1.67c.94.24 1.68.7 2.3 1.44.48.64.7 1.3.7 2.1 0 .63-.14 1.17-.38 1.73-.3.55-.62.95-1.1 1.32-.5.4-1 .66-1.6.84-.75.23-1.4.33-2.15.34zM-127.9-1172.52c-5.6 3.82-11.36 5.58-18.15 5.56-8.54.05-15.82-2.74-22.16-8.45-.5-.42 0-1 .48-.68 7.07 4.05 14.03 5.9 22.2 5.9 6.1-.04 11.3-1.1 16.93-3.47.83-.35 1.52.55.7 1.13z" stroke="#fff" stroke-opacity="0" fill="#fff"/><path d="M-125.84-1174.8c-.64-.82-4.16-.38-5.75-.2-.46 0-.53-.36-.1-.66 2.8-1.98 7.42-1.4 8-.74.6.67-.14 5.28-2.78 7.5-.4.33-.78.13-.6-.3.54-1.52 1.86-4.83 1.24-5.6z" stroke="#fff" stroke-opacity="0" fill="#fff"/><use xlink:href="#f" transform="matrix(1,0,0,1,-103,-1190) translate(0 25.066666666666663)"/><use xlink:href="#g" transform="matrix(1,0,0,1,-103,-1190) translate(79.89999999999996 25.066666666666663)"/><path d="M61.5-945.73a6 6 0 0 1 6-6H1034a6 6 0 0 1 6 6v850a6 6 0 0 1-6 6H67.5a6 6 0 0 1-6-6z" stroke="#248814" stroke-width="3" fill="#fff" fill-opacity="0"/><path d="M61.5-951.73h56v56h-56v-56z" stroke="#fff" stroke-opacity="0" fill="#248814"/><path d="M93.26-923.43h-1.18v-1.1c-.12-1.73-1.47-3.08-3.2-3.2-1.9-.13-3.54 1.3-3.67 3.2v1.07h-1.17c-.45 0-.8.36-.8.8v6.13c0 .44.35.8.8.8h9.23c.44 0 .8-.36.8-.8v-6.1c0-.44-.36-.8-.8-.8zm-6.4-1.07c.1-1.02 1-1.76 2-1.66.9.08 1.58.76 1.67 1.66v1.07H86.8zm5.65 7.1h-7.67v-4.43h7.63z" stroke="#fff" stroke-opacity="0" fill="#fff"/><path d="M103.77-926c-.08-2.43-1.58-4.46-3.87-5.28-1.58-.47-3.16-.14-4.4.9-.68-1.46-1.47-2.6-2.6-3.76-3.24-3.35-7.94-4.28-12.18-2.4-4.04 1.9-6.4 5.64-6.54 10.06v.7c-3.4.97-5.66 4.08-5.5 7.65v.63c.38 4.28 3.92 7.52 8.2 7.47h26s7.42-.64 7.42-8.1c.04-3.9-2.66-7.2-6.53-7.86zm-.96 14.4H76.9c-3.47.06-6.3-2.52-6.6-5.96v-.52c-.15-3.05 1.93-5.7 4.92-6.3.38-.12.63-.48.6-.9-.06-.4-.06-.73 0-1.15.07-3.8 2.1-6.94 5.52-8.6 1.25-.57 2.4-.8 3.83-.84 2.62.08 4.87 1.04 6.7 2.94 1.25 1.3 2.04 2.6 2.62 4.3.03.14.1.28.24.37.37.27.87.2 1.12-.17.83-1.18 2.25-1.68 3.62-1.3 1.8.72 2.87 2.4 2.83 4.32-.07.4.22.8.64.9 3.58.35 6.2 3.54 5.82 7.1-.3 3.14-2.7 5.53-5.82 5.86z" stroke="#fff" stroke-opacity="0" fill="#fff"/><use xlink:href="#h" transform="matrix(1,0,0,1,132.5,-931.7309865275968) translate(0 23.288888888888884)"/><use xlink:href="#i" transform="matrix(1,0,0,1,132.5,-931.7309865275968) translate(106.57901234567898 23.288888888888884)"/><use xlink:href="#j" transform="matrix(1,0,0,1,132.5,-931.7309865275968) translate(184.1277777777777 23.288888888888884)"/><path d="M421-618.56a6 6 0 0 1 6-6h568a6 6 0 0 1 6 6v448a6 6 0 0 1-6 6H427a6 6 0 0 1-6-6z" fill="#fff" fill-opacity="0"/><path d="M438.83-624.56h7.9m7.88 0h7.9m7.9 0h7.88m7.9 0h7.88m7.88 0h7.9m7.88 0h7.9m7.88 0h7.9m7.88 0h7.9m7.88 0h7.88m7.9 0h7.88m7.9 0h7.88m7.9 0h7.88m7.9 0h7.88m7.88 0h7.9m7.88 0h7.9m7.88 0h7.9m7.88 0h7.9m7.88 0h7.88m7.9 0h7.88m7.9 0h7.88m7.9 0h7.88m7.9 0h7.88m7.88 0h7.9m7.88 0h7.9m7.88 0h7.9m7.88 0h7.9m7.88 0h7.88m7.9 0h7.88m7.9 0h7.88m7.9 0h7.88m7.9 0h7.88m7.88 0h7.9m7.88 0h7.9m7.88 0h7.9m7.88 0h7.9m7.88 0H995l.94.07.9.23.88.36.8.48.72.6.6.73.5.8.37.88.23.92.07.94v4m0 8v8m0 8v8m0 8v8m0 8v8m0 8v8m0 8v8m0 8v8m0 8v8m0 8v8m0 8v8m0 8v8m0 8v8m0 8v8m0 8v8m0 8v8m0 8v8m0 8v8m0 8v8m0 8v8m0 8v8m0 8v8m0 8v8m0 8v8m0 8v8m0 8v8m0 8v8m0 8v8m0 8v4l-.07.93-.22.92-.35.86-.5.8-.6.72-.72.6-.8.5-.88.36-.9.22-.95.08h-3.95m-7.88 0h-7.9m-7.88 0h-7.9m-7.9 0h-7.88m-7.9 0h-7.88m-7.9 0h-7.87m-7.9 0h-7.88m-7.9 0h-7.9m-7.88 0h-7.9m-7.88 0h-7.9m-7.87 0h-7.9m-7.88 0h-7.9m-7.9 0h-7.88m-7.9 0h-7.88m-7.9 0h-7.87m-7.9 0h-7.88m-7.9 0h-7.9m-7.88 0h-7.9m-7.88 0h-7.9m-7.87 0h-7.9m-7.88 0h-7.9m-7.9 0h-7.88m-7.9 0h-7.88m-7.9 0h-7.87m-7.9 0h-7.88m-7.9 0h-7.9m-7.88 0h-7.9m-7.88 0h-7.9m-7.87 0h-7.9m-7.88 0h-7.9m-7.9 0h-7.88m-7.9 0h-7.88m-7.88 0h-7.9m-7.88 0h-7.9m-7.88 0h-7.9m-7.88 0h-7.9m-7.88 0H427l-.94-.08-.9-.22-.88-.36-.8-.5-.72-.6-.6-.72-.5-.8-.37-.87-.23-.93-.07-.93v-4m0-8v-8m0-8v-8m0-8v-8m0-8v-8m0-8v-8m0-8v-8m0-8v-8m0-8v-8m0-8v-8m0-8v-8m0-8v-8m0-8v-8m0-8v-8m0-8v-8m0-8v-8m0-8v-8m0-8v-8m0-8v-8m0-8v-8m0-8v-8m0-8v-8m0-8v-8m0-8v-8m0-8v-8m0-8v-8m0-8v-8m0-8v-8m0-8v-4l.07-.94.22-.92.35-.87.5-.8.6-.7.72-.62.8-.5.88-.35.9-.22.95-.06h3.94" stroke="#d86613" stroke-width="2" fill="none"/><path d="M421-624.56h56v56h-56v-56z" stroke="#fff" stroke-opacity="0" stroke-width="2" fill="#d86613"/><path d="M466.18-594.32h-3.75v-1.5h3.75v-17.93h-17.94v3.75h-1.5v-3.75c0-.8.68-1.48 1.5-1.48h17.94c.8 0 1.48.67 1.48 1.48v17.94c0 .8-.67 1.48-1.5 1.48zM449.75-577.9H431.8c-.8 0-1.47-.67-1.47-1.48v-17.94c0-.8.67-1.48 1.48-1.48h3.75v1.48h-3.74v17.94h17.95v-3.74h1.48v3.74c0 .8-.67 1.48-1.48 1.48z" stroke="#fff" stroke-opacity="0" stroke-width="2" fill="#fff"/><path d="M460.95-603.28v-1.5h-2.25c-.05-.8-.7-1.44-1.48-1.5v-2.23h-1.5v2.24h-2.23v-2.25H452v2.24h-2.26v-2.25h-1.48v2.24H446v-2.25h-1.47v2.24h-2.24v-2.25h-1.52v2.24c-.8.04-1.43.7-1.48 1.48h-2.25v1.5h2.25v2.25h-2.25v1.48h2.25v2.25h-2.25v1.48h2.25v2.24h-2.25v1.5h2.25v2.23h-2.25v1.5h2.25c.05.8.7 1.44 1.48 1.5v2.23h1.5v-2.24h2.25v2.24H446v-2.24h2.26v2.24h1.48v-2.24H452v2.24h1.5v-2.24h2.2v2.24h1.52v-2.24c.8-.05 1.43-.7 1.48-1.5h2.25v-1.5h-2.25v-2.2h2.25v-1.52h-2.25v-2.24h2.25v-1.48h-2.25v-2.25h2.25v-1.48h-2.25v-2.25zm-3.73 14.8c0 .06-.07.13-.14.13h-16.16c-.07 0-.14-.07-.14-.14v-16.14c0-.07.07-.14.14-.14h16.16c.07 0 .14.07.14.14z" stroke="#fff" stroke-opacity="0" stroke-width="2" fill="#fff"/><use xlink:href="#k" transform="matrix(1,0,0,1,491.9999426951565,-604.56431986093) translate(0 16.177777777777777)"/><use xlink:href="#l" transform="matrix(1,0,0,1,491.9999426951565,-604.56431986093) translate(47.12901234567901 16.177777777777777)"/><use xlink:href="#m" transform="matrix(1,0,0,1,491.9999426951565,-604.56431986093) translate(92.0111111111111 16.177777777777777)"/><path d="M400-688.06a6 6 0 0 1 6-6h606a6 6 0 0 1 6 6v547.66a6 6 0 0 1-6 6H406a6 6 0 0 1-6-6z" fill="#fff" fill-opacity="0"/><path d="M417.96-694.06h7.97m7.98 0h7.98m7.98 0h7.97m7.97 0h7.98m7.97 0h7.97m7.98 0h7.97m7.97 0h7.98m7.97 0h7.97m7.97 0h7.97m8 0h7.96m7.97 0h7.98m7.98 0h7.98m7.97 0h7.97m7.98 0h7.97m7.97 0h7.98m7.97 0h7.98m7.97 0h7.97m7.97 0h7.97m7.97 0h8m7.96 0h7.97m7.98 0h7.98m7.98 0h7.97m7.97 0h7.98m7.97 0h7.97m7.98 0h7.97m7.98 0h7.97m7.97 0h7.97m7.97 0h7.97m8 0h7.96m7.97 0h7.98m7.98 0h7.98m7.97 0h7.97m7.98 0h7.97m7.97 0h7.98m7.97 0h7.98m7.97 0h7.97m7.97 0h7.97m7.97 0h4l.94.07.9.23.88.36.8.48.72.6.6.73.5.8.37.88.23.92.07.94v4.02m0 8.06v8.05m0 8.05v8.06m0 8.05v8.06m0 8.04v8.05m0 8.05v8.05m0 8.06v8.05m0 8.06v8.06m0 8.05v8.06m0 8.05v8.05m0 8.06v8.04m0 8.06v8.05m0 8.05v8.06m0 8.05v8.06m0 8.06v8.05m0 8.06v8.05m0 8.05v8.06m0 8.04v8.06m0 8.05v8.05m0 8.06v8.05m0 8.07v8.05m0 8.05v8.06m0 8.05v8.06m0 8.05v8.04m0 8.06v8.05m0 8.06v8.06m0 8.05v8.07m0 8.05v8.05m0 8.06v8.05m0 8.06v8.05m0 8.04v8.06m0 8.05v8.06m0 8.06v8.05m0 8.07v8.05m0 8.05v4.03l-.07.94-.22.92-.35.87-.5.8-.6.72-.72.6-.8.5-.88.36-.9.23-.95.07h-4m-7.96 0h-7.97m-7.98 0h-7.98m-7.98 0h-7.97m-7.97 0h-7.98m-7.97 0h-7.97m-7.98 0h-7.97m-7.98 0h-7.97m-7.97 0h-7.97m-7.97 0h-7.97m-8 0h-7.96m-7.97 0h-7.98m-7.98 0h-7.98m-7.97 0h-7.97m-7.98 0h-7.97m-7.97 0h-7.98m-7.97 0h-7.98m-7.97 0h-7.97m-7.97 0h-7.97m-7.97 0h-8m-7.96 0h-7.97m-7.98 0h-7.98m-7.98 0h-7.97m-7.97 0h-7.98m-7.97 0h-7.97m-7.98 0h-7.97m-7.98 0h-7.97m-7.97 0h-7.97m-7.97 0h-7.97m-8 0h-7.96m-7.97 0h-7.98m-7.98 0h-7.98m-7.97 0h-7.97m-7.98 0h-7.97m-7.97 0h-7.98m-7.97 0h-7.97m-7.98 0h-7.97m-7.97 0h-7.97m-7.97 0h-4l-.94-.07-.9-.22-.88-.35-.8-.5-.72-.6-.6-.72-.5-.8-.37-.87-.23-.92-.07-.94v-4.03m0-8.05v-8.05m0-8.06v-8.04m0-8.05v-8.05m0-8.05v-8.06m0-8.05v-8.06m0-8.06v-8.05m0-8.06v-8.05m0-8.05v-8.06m0-8.04v-8.06m0-8.05v-8.05m0-8.06v-8.05m0-8.06v-8.06m0-8.05v-8.06m0-8.05v-8.05m0-8.06v-8.04m0-8.06v-8.05m0-8.05v-8.06m0-8.05v-8.07m0-8.05v-8.05m0-8.06v-8.05m0-8.06v-8.05m0-8.04v-8.06m0-8.05v-8.05m0-8.06V-531m0-8.07v-8.05m0-8.05v-8.06m0-8.05v-8.06m0-8.05v-8.04m0-8.06v-8.05m0-8.06v-8.06m0-8.05v-8.07m0-8.05v-8.06m0-8.05v-8.05m0-8.06v-4.02l.07-.94.22-.92.35-.87.5-.8.6-.7.72-.62.8-.5.88-.35.9-.22.95-.06h4" stroke="#d86613" stroke-width="2" fill="none"/><path d="M400-694.06h56v56h-56v-56z" stroke="#fff" stroke-opacity="0" stroke-width="2" fill="#d86613"/><path d="M427.83-645.95c-.13 0-.27-.04-.37-.12l-17-9.78c-.27-.16-.4-.4-.4-.7v-19.84c0-.27.13-.5.4-.67l15.64-9.02c.3-.23.78-.1 1.02.2.1.17.14.33.14.5v8.6c0 .25-.14.5-.38.65l-7.83 4.47v10.43l8.82 5.08 7.7-4.47c.23-.16.5-.16.75 0l7.38 4.26c.28.12.4.37.4.7 0 .27-.12.5-.4.63l-15.5 8.98c-.1.08-.23.12-.37.12zm-16.24-11.1l16.64 9.6 14.3-8.28-5.95-3.42-7.95 4.58c-.27.13-.54.13-.8 0l-9.93-5.7c-.27-.17-.4-.4-.4-.7v-11.1c0-.3.13-.53.4-.7l7.8-4.46v-6.85l-14.16 8.22z" stroke="#fff" stroke-opacity="0" stroke-width="2" fill="#fff"/><path d="M445.13-657.48c-.15 0-.27-.03-.4-.1l-7.4-4.28c-.25-.15-.4-.38-.4-.7v-9.02l-7.8-4.5c-.27-.14-.4-.4-.4-.7v-8.6c0-.27.13-.53.4-.65.2-.14.5-.14.73 0l15.7 9c.25.15.38.4.38.7v18.02c0 .3-.13.54-.4.68-.13.1-.25.14-.4.14zm-6.68-5.56l5.98 3.44v-16.25l-14.2-8.2v6.8l7.84 4.55c.26.15.42.38.4.7z" stroke="#fff" stroke-opacity="0" stroke-width="2" fill="#fff"/><use xlink:href="#k" transform="matrix(1,0,0,1,471,-674.0643198609301) translate(0 16.177777777777777)"/><use xlink:href="#n" transform="matrix(1,0,0,1,471,-674.0643198609301) translate(47.12901234567901 16.177777777777777)"/><use xlink:href="#m" transform="matrix(1,0,0,1,471,-674.0643198609301) translate(116.61481481481479 16.177777777777777)"/><path d="M642.5-500.56c1.98 0 3.5 1.6 3.5 3.5v93c0 1.9-1.52 3.5-3.5 3.5h-145c-1.98 0-3.5-1.6-3.5-3.5v-93c0-1.9 1.52-3.5 3.5-3.5zm-141.66 92.9h138.32v-85.8H500.84zm11.25-8.8v-68.2h6.98v68.2zm18.23 0v-68.2h6.84v68.2zm18.1 0v-68.2h6.83v68.2zm18.07 0v-68.2h7v68.2zm18.24 0v-68.2h6.84v68.2zm18.1 0v-68.2h6.83v68.2zm18.08 0v-68.2h7v68.2zM945.32-500.56c2.08 0 3.68 1.6 3.68 3.5v93c0 1.9-1.6 3.5-3.68 3.5H792.68c-2.08 0-3.68-1.6-3.68-3.5v-93c0-1.9 1.6-3.5 3.68-3.5zm-149.12 92.9h145.6v-85.8H796.2zm11.84-8.8v-68.2h7.36v68.2zm19.2 0v-68.2h7.2v68.2zm19.04 0v-68.2h7.2v68.2zm19.04 0v-68.2h7.36v68.2zm19.2 0v-68.2h7.2v68.2zm19.04 0v-68.2h7.2v68.2zm19.04 0v-68.2h7.36v68.2z" stroke="#000" stroke-opacity="0" fill="#d45b07"/><path d="M781-509.56a6 6 0 0 1 6-6h88a6 6 0 0 1 6 6v48a6 6 0 0 1-6 6h-88a6 6 0 0 1-6-6z" stroke="#000" stroke-opacity="0" fill="#fff" fill-opacity="0"/><path d="M278.5-358.12c33.12 0 60 25.76 60 57.5s-26.88 57.5-60 57.5c-33.12 0-60-25.76-60-57.5s26.88-57.5 60-57.5zm0 109.82c30.12 0 54.6-23.46 54.6-52.32 0-28.87-24.48-52.33-54.6-52.33s-54.6 23.46-54.6 52.33c0 28.86 24.48 52.32 54.6 52.32zm35.52-36.68c1.56 0 2.76 1.26 2.76 2.64v11.5c0 1.38-1.2 2.53-2.76 2.53h-11.88c-1.44 0-2.64-1.16-2.64-2.54v-11.5c0-1.38 1.2-2.64 2.64-2.64h2.28v-6.2h-11.28v6.2h2.04c1.56 0 2.76 1.26 2.76 2.64v11.5c0 1.38-1.2 2.53-2.76 2.53H283.3c-1.56 0-2.76-1.16-2.76-2.54v-11.5c0-1.38 1.2-2.64 2.76-2.64h4.44v-8.74c0-1.5 1.2-2.65 2.64-2.65h4.44v-6.2h-32.64v6.2h4.44c1.44 0 2.64 1.15 2.64 2.65v8.74h4.44c1.56 0 2.76 1.26 2.76 2.64v11.5c0 1.38-1.2 2.53-2.76 2.53h-11.88c-1.56 0-2.76-1.16-2.76-2.54v-11.5c0-1.38 1.2-2.64 2.76-2.64h2.04v-6.2h-11.28v6.2h2.04c1.56 0 2.76 1.26 2.76 2.64v11.5c0 1.38-1.2 2.53-2.76 2.53h-11.64c-1.56 0-2.76-1.16-2.76-2.54v-11.5c0-1.38 1.2-2.64 2.76-2.64h4.2v-8.74c0-1.5 1.2-2.65 2.64-2.65h6.84v-8.85c0-1.38 1.2-2.53 2.76-2.53h16.32v-6.2h-16.32c-1.56 0-2.76-1.28-2.76-2.66v-20.6c0-1.5 1.2-2.64 2.76-2.64h38.16c1.56 0 2.76 1.15 2.76 2.65v20.6c0 1.37-1.2 2.64-2.76 2.64h-16.32v6.2h16.32c1.56 0 2.76 1.16 2.76 2.54v8.85h6.84c1.44 0 2.64 1.15 2.64 2.65v8.74zm-51.84-34.27h32.64v-15.3h-32.64zm2.4 45.77h6.48v-6.2h-6.48zm21.48 0h6.36v-6.2h-6.36zm18.84 0h6.48v-6.2h-6.48zm-59.28 0h6.24v-6.2h-6.24z" stroke="#000" stroke-opacity="0" fill="#4d27aa"/><use xlink:href="#o" transform="matrix(1,0,0,1,188.5,-234.12179206765813) translate(17.74135802469138 17.955555555555552)"/><use xlink:href="#p" transform="matrix(1,0,0,1,188.5,-234.12179206765813) translate(73.85246913580248 17.955555555555552)"/><path d="M-114-520.56H6v120h-120v-120z" stroke="#000" stroke-opacity="0" fill="url(#q)"/><path d="M-17.1-461.3c2.07 3.54 4.38 7.6 4.38 13.53 0 10-8.1 17.42-21.7 19.9-10 1.82-18.34 8.17-18.42 8.17-.33.25-.75.42-1.16.42-.4 0-.83-.17-1.16-.42-.08 0-8.42-6.35-18.4-8.17-13.63-2.48-21.72-9.9-21.72-19.9 0-5.94 2.3-10 4.38-13.54 1.8-3.06 3.3-5.7 3.3-9.25 0-7.6-5.86-12.4-5.86-12.47-.42-.25-.66-.74-.75-1.24 0-.5.08-1 .4-1.4.1-.08 9.67-11.73 11.9-14.7.33-.4.82-.74 1.4-.74.5-.08 1.07.16 1.48.58 3.55 3.88 7.85 5.94 11.9 5.94 4.53 0 8.17-1.98 11.63-6.6.76-.9 2.24-.9 3 0 3.45 4.62 7.1 6.6 11.63 6.6 4.04 0 8.34-2.06 11.9-5.94.4-.42.98-.66 1.47-.58.58 0 1.07.33 1.4.74 2.23 2.97 11.8 14.62 11.9 14.7.32.4.4.9.4 1.4-.08.5-.32 1-.74 1.24 0 .08-5.86 4.95-5.86 12.47 0 3.55 1.5 6.2 3.3 9.24zm-18 29.7c4.38-.73 18.67-4.2 18.67-16.17 0-4.95-1.9-8.25-3.9-11.64-1.88-3.23-3.87-6.6-3.87-11.15 0-6.86 3.88-11.8 5.95-14.04-2.15-2.63-6.94-8.5-9.5-11.8-4.04 3.64-8.58 5.62-13.12 5.62-5.12 0-9.33-1.98-13.13-6.28-3.8 4.3-8 6.28-13.13 6.28-4.54 0-9.08-1.98-13.12-5.62-2.56 3.3-7.35 9.17-9.5 11.8 2.15 2.24 5.95 7.2 5.95 14.05 0 4.54-2 7.92-3.88 11.14-2 3.38-3.88 6.68-3.88 11.63 0 11.97 14.28 15.44 18.65 16.18 8.75 1.58 16.18 6.2 18.9 8.1 2.72-1.9 10.16-6.52 18.9-8.1zm6.12-38.95c0 5.86 2.4 9.9 4.45 13.54 1.98 3.45 3.22 5.76 3.22 9.23 0 8.18-11.23 10.82-14.62 11.48-7.1 1.25-13.2 4.22-17.17 6.53-.24.17-.57.25-.9.25-.33 0-.66-.08-.9-.25-3.97-2.3-10.08-5.28-17.1-6.52-3.47-.65-14.7-3.3-14.7-11.47 0-3.47 1.25-5.78 3.23-9.24 2.06-3.65 4.45-7.7 4.45-13.55 0-4.55-1.32-8.92-3.8-12.88-.4-.75-.4-1.57.17-2.23.75-.9 1.5-1.82 2.23-2.8.58-.75 1.57-.92 2.4-.5 3.55 1.98 7.18 2.97 10.9 2.97 4.53 0 8.5-1.23 12.05-3.7.66-.42 1.48-.42 2.14 0 3.55 2.47 7.52 3.7 12.06 3.7 3.7 0 7.34-.98 10.9-2.96.82-.42 1.8-.25 2.4.5.73.98 1.48 1.9 2.22 2.8.58.66.58 1.48.16 2.23-2.46 3.96-3.78 8.33-3.78 12.88zM-36.66-440c1.98-.34 11.64-2.32 11.64-7.77 0-2.56-.9-4.3-2.73-7.35-2.14-3.63-4.95-8.58-4.95-15.43 0-4.8 1.24-9.42 3.63-13.7-.16-.26-.33-.42-.5-.67-3.63 1.82-7.5 2.73-11.3 2.73-4.8 0-9.25-1.23-13.13-3.7-3.88 2.47-8.34 3.7-13.13 3.7-3.8 0-7.68-.9-11.3-2.72-.17.25-.34.4-.5.66 2.4 4.3 3.63 8.92 3.63 13.7 0 6.86-2.8 11.8-4.95 15.44-1.74 3.06-2.73 4.8-2.73 7.35 0 5.45 9.66 7.43 11.64 7.76 7.02 1.23 13.13 4.12 17.34 6.43 4.2-2.3 10.32-5.2 17.34-6.44zm-4.63-19.57c1.1 1 1.58 2.3 1.58 4.04 0 1.82-.66 3.22-1.98 4.38-1.24 1.07-3.05 1.57-5.28 1.57-1.74 0-3.47-.33-5.2-1.08v-2.23c2.06.67 3.8 1 5.2 1 1.4 0 2.56-.33 3.3-1 .74-.56 1.16-1.47 1.16-2.63 0-2.3-1.4-3.38-4.3-3.38-.9 0-1.8 0-2.64.07v-1.82l5.86-6.44h-8.25v-2.22h11.3v2.15l-5.7 6.1H-45.64c1.8 0 3.3.5 4.37 1.5zm-16.25-.5c1.16 1.07 1.73 2.56 1.73 4.38 0 1.82-.66 3.3-1.98 4.46-1.32 1.08-3.05 1.66-5.28 1.66-1.9 0-3.63-.33-5.28-1.08v-2.23c2.06.67 3.8 1 5.28 1 1.4 0 2.48-.33 3.3-1 .74-.65 1.07-1.56 1.07-2.7 0-1.33-.34-2.32-1.08-2.9-.66-.66-1.82-.9-3.47-.9-1.15 0-2.56.07-4.3.24v-1.82l.5-8.34h10.24v2.23h-7.85l-.4 5.7c1.06-.16 1.97-.24 2.8-.24 1.98 0 3.54.5 4.7 1.57z" stroke="#000" stroke-opacity="0" fill="#fff"/><use xlink:href="#r" transform="matrix(1,0,0,1,-144,-391.56431986093014) translate(66.370987654321 17.955555555555552)"/><path d="M-104-254.4H16v120h-120v-120z" stroke="#fff" stroke-opacity="0" fill="#d6242d"/><path d="M-15.98-230.4h-61.66c-3.46.16-6.1 3.12-5.97 6.55v39.7c-.15 3.44 2.5 6.4 5.96 6.55h34.03v-3.22h-34.04c-1.7-.2-2.87-1.7-2.73-3.33v-27.03h28.8v23.97c0 .9.67 1.58 1.55 1.58h12.82v-3.17h-10.46v-.47c0-5.6 3.46-10.3 8.84-11.88 2.58 1.16 5.23 1.16 7.88 0 3.02.9 5.38 2.7 7.07 5.44l2.73-1.6c-1.77-2.8-3.98-4.74-7-6.12 1.4-1.63 2.06-3.43 2.06-5.54 0-4.86-3.98-8.82-8.84-8.82-4.78 0-8.76 3.96-8.76 8.82.07 2.06.73 3.85 2.06 5.44-2.87 1.27-5 3.1-6.7 5.8v-21.48h27.18v22.38h3.17v-14.36h4.78v16h3.25v-28.67-.05c.15-3.5-2.57-6.4-6.04-6.5zm-18.94 15.8c3.1 0 5.6 2.47 5.68 5.53-.08 2.06-1.1 3.8-2.95 4.8-1.76.96-3.67.96-5.37 0-1.84-1-2.87-2.74-2.95-4.8.08-3.06 2.58-5.54 5.6-5.54zm16.95.2v-6.4c0-.9-.74-1.57-1.63-1.57h-30.42c-.88 0-1.54.68-1.54 1.58v6.4h-28.8v-9.45c-.15-1.64 1.03-3.12 2.72-3.33h61.66c1.62.2 2.87 1.64 2.72 3.33v9.45z" stroke="#fff" stroke-opacity="0" fill="#fff"/><path d="M-77.17-203.28h17.57v3.2h-17.57v-3.2zM-77.17-195.28H-66v3.2h-11.17v-3.2zM-62.77-195.28H-58v3.2h-4.77v-3.2zM-20.6-158.32c-8.9.03-16.2-7.15-16.23-16.1-.03-8.94 7.16-16.22 16.1-16.25.76 0 1.37.03 2.12.13 8.84 1.1 15.16 9.2 14.06 18.05-.4 3.3-1.6 6-3.73 8.52-1.6 1.8-3.24 3.07-5.42 4.14-2.26 1.04-4.36 1.52-6.9 1.52zm0-29.15c-2.13 0-3.98.46-5.9 1.43-6.18 3.23-8.7 10.67-5.76 17 3 6.52 10.73 9.33 17.24 6.3 1.76-.85 3.08-1.85 4.32-3.3 1.75-2.05 2.72-4.25 3.04-6.9.85-7.12-4.2-13.56-11.34-14.43-.55-.06-1.04-.1-1.62-.1z" stroke="#fff" stroke-opacity="0" fill="#fff"/><path d="M-23.12-167.68c-.45 0-.8-.15-1.13-.47l-5.17-5.15 2.22-2.26 4.02 4.02 9.13-9.13 2.27 2.27-10.27 10.25c-.3.3-.65.46-1.07.47z" stroke="#fff" stroke-opacity="0" fill="#fff"/><use xlink:href="#s" transform="matrix(1,0,0,1,-134,-125.39765319426351) translate(12.660493827160508 19.555555555555554)"/><path d="M809-1142h120v120H809v-120z" stroke="#000" stroke-opacity="0" fill="url(#t)"/><path d="M863.35-1070.8c-.9 2.76-3.47 4.87-6.62 4.87-3.78 0-6.85-3-6.85-6.75s3.07-6.83 6.86-6.83c.4 0 .72.07 1.04.07l7.26-11.63c-1.2-1.28-1.93-2.92-1.93-4.8 0-3.75 3.07-6.75 6.86-6.75 3.8 0 6.85 3 6.85 6.74 0 1.95-.8 3.67-2.08 4.88l5.72 11.55c.24 0 .57-.08.9-.08 3.78 0 6.84 3.07 6.84 6.82 0 3.75-3.06 6.75-6.85 6.75-3.15 0-5.73-2.1-6.53-4.88zm45.72-28.2l-6.37-2.1c7.58 14.16 6.13 32.16-4.27 43.8-7.34 8.32-18.15 12.74-29.03 12.74-5.9 0-11.86-1.35-17.34-4.05l1.77-3.3c13.95 6.97 31.53 3.67 41.77-7.88 9.44-10.5 10.57-27.53 3.23-40.36l-2.5 7.43-3.55-1.2 3.8-11.18c.3-.98 1.36-1.5 2.33-1.2l11.38 3.74zm-68.54 32.32l1.05-6.38 3.78.67-1.93 11.2c-.08.52-.4 1.04-.9 1.34-.23.15-.63.22-.95.22-.17 0-.4 0-.57-.07l-11.36-3.76 1.2-3.52 6.38 2.1c-7.5-13.8-5.97-30.38 4.36-42 11.37-12.75 30.88-16.35 46.28-8.63l-1.77 3.3c-13.88-6.98-31.38-3.68-41.7 7.8-9.2 10.42-10.57 25.34-3.87 37.72zm27.82-22.58l-7.1 11.47c.97.84 1.7 1.96 2.1 3.24h11.45c.32-1.35 1.13-2.48 2.18-3.38l-5.57-11.24c-.47.07-.96.14-1.44.14-.57 0-1.05-.07-1.6-.22zm16.04 16.58c0-1.73-1.38-3.08-3.07-3.08-1.7 0-3.06 1.35-3.06 3.08 0 1.64 1.37 3 3.06 3 1.7 0 3.06-1.36 3.06-3zm-30.73 0c0 1.64 1.37 3 3.07 3 1.7 0 3.06-1.36 3.06-3 0-1.73-1.37-3.08-3.06-3.08-1.7 0-3.07 1.35-3.07 3.08zm16.3-26.18c-1.7 0-3.07 1.35-3.07 3 0 1.72 1.37 3.07 3.06 3.07 1.7 0 3.06-1.34 3.06-3.06 0-1.65-1.37-3-3.06-3z" stroke="#000" stroke-opacity="0" fill="#fff"/><path d="M543-1142h120v120H543v-120z" stroke="#fff" stroke-opacity="0" stroke-width="2" fill="#3b48cc"/><path d="M623.4-1077.22l-10.6 10.55c2-.56 3.65-1.2 5.5-2.24 1.1.63 1.68 1.67 1.9 2.87 0 2.96-6.2 6.16-15.4 7.43-3.05.4-5.55.56-8.6.56h-1.58c-12.95-.24-22.42-4.3-22.42-8 .17-1.2.82-2.15 1.9-2.87 5 2.8 13.18 4.47 22.1 4.47h.17l.92-3.2h-1.1c-8.8 0-16.98-1.76-21.28-4.47-1.74-1.12-2.72-2.4-2.72-3.44v-7.43c4.9 3.75 14.64 5.67 24 5.67 1.25 0 2.5 0 3.76-.08l.92-3.2c-1.63.08-3.1.16-4.68.16-13.7 0-24-4.23-24-8 .17-1.27.82-2.23 1.9-2.87 4.42 2.5 11.22 4 18.9 4.4l.1-3.2c-7.56-.4-14.42-2-18.18-4.47-1.74-1.04-2.66-2.3-2.72-3.43v-7.36c4.9 3.76 14.64 5.68 24 5.68h.33l1.74-3.2h-2.07c-13.7 0-24-4.16-24-8 0-3.75 10.3-8 24-8 4.85 0 8.98.5 13.72 1.6h8.8c-4.83-2.94-13.1-4.78-22.52-4.78-13.17 0-27.2 3.9-27.2 11.2v12.86c.1 1.9.92 3.5 2.44 4.7-1.52 1.3-2.34 2.9-2.45 4.8v12.8c.1 2 .92 3.6 2.44 4.88-1.52 1.2-2.34 2.8-2.45 4.8v13.1c.43 7.04 14.2 10.8 27.2 10.8s26.78-3.77 27.2-10.88V-1066.12c-.04-1.9-.9-3.6-2.44-4.8v.02c1.53-1.2 2.34-2.88 2.45-4.8zm-3.2 23.98c0 3.76-10.28 8-24 8-13.7 0-24-4.16-24-8v-7.35c4.9 3.68 14.64 5.68 24 5.68s19.1-2 24-5.67z" stroke="#fff" stroke-opacity="0" stroke-width="2" fill="#fff"/><path d="M579-1097.97c0 1.1-.9 2-2 2s-2-.9-2-2 .9-2 2-2 2 .9 2 2zM579-1075.57c0 1.1-.9 2-2 2s-2-.9-2-2 .9-2 2-2 2 .9 2 2zM579-1053.17c0 1.1-.9 2-2 2s-2-.9-2-2 .9-2 2-2 2 .9 2 2zM600.2-1059.63c-.3 0-.53-.06-.82-.22-.64-.38-.92-1.14-.72-1.85l9-29.95h-9.08c-.88.06-1.6-.65-1.6-1.58 0-.27.04-.54.2-.76l9.58-19.2c.28-.56.8-.88 1.45-.88H629c.9-.06 1.62.65 1.66 1.52.04.22 0 .38-.04.6l-4.13 12.25h8.97c.88.05 1.6.76 1.6 1.63 0 .43-.16.76-.44 1.1l-35.2 36.8c-.32.38-.72.54-1.24.54zm1-35.18h8.6c.53 0 .97.2 1.3.6.27.43.4.92.23 1.4l-7.7 25.6 28.03-29.24h-7.46c-.88 0-1.64-.65-1.68-1.52 0-.22 0-.44.08-.6l4.1-12.3h-17.6z" stroke="#fff" stroke-opacity="0" stroke-width="2" fill="#fff"/><path d="M809-893h120v120H809v-120z" stroke="#fff" stroke-opacity="0" stroke-width="2" fill="#3b48cc"/><path d="M886.53-847.83c0-4.63-9.1-6.8-17.6-6.8-8.5 0-17.6 2.17-17.6 6.8 0 .26.02.43.06.7v28.85c-.08 4.83 9.06 6.86 17.6 6.86 8.57 0 17.6-2.1 17.6-6.74v-29.67zm-17.57-3.6c9.3 0 14.4 2.56 14.4 3.6 0 1.03-5.05 3.58-14.4 3.58-9.4 0-14.4-2.5-14.4-3.58 0-1.04 5.05-3.6 14.4-3.6zm14.4 33.27c0 1.04-5.05 3.55-14.4 3.55-9.35 0-14.4-2.52-14.4-3.55v-5.06c3.36 1.85 9.04 2.7 14.4 2.7 5.36 0 10.97-.85 14.4-2.67zm0-9.1c0 1.03-5.05 3.58-14.4 3.58-9.4 0-14.4-2.55-14.4-3.6h.04v-6.08c3.4 1.8 9.03 2.68 14.4 2.68 5.36 0 10.97-.87 14.4-2.64zm0-10.2c0 1.03-5.05 3.62-14.4 3.62-9.4 0-14.4-2.6-14.4-3.63h.04v-6.22c3.42 1.83 9 2.65 14.4 2.65s11.07-.87 14.4-2.72zM834.46-796.18H845v3.2h-14.4c-.88 0-1.6-.72-1.6-1.6V-809h3.2v10.5l12-11.98 2.24 2.26zM909-808.98v14.4c0 .9-.7 1.6-1.6 1.6H893v-3.2h10.54l-11.82-11.85 2.26-2.25 11.82 11.8v-10.5zM909-871.38v14.4h-3.2v-10.57l-11.82 11.83-2.26-2.26 11.8-11.8H893v-3.2h14.4c.9 0 1.6.7 1.6 1.6zM846.44-857.8l-2.23 2.24-12-12V-857H829v-14.4c0-.9.72-1.62 1.6-1.62H845v3.2h-10.54zM844.46-818.66c-9.78-3.5-15.38-8.9-15.38-14.74s5.6-11.2 15.38-14.74l1.08 3c-8.3 3.02-13.27 7.38-13.27 11.74s4.98 8.72 13.27 11.73zM892.65-818.3l-1.03-3.06c8.88-3 14.18-7.48 14.18-12.04 0-4.56-5.3-9.05-14.18-12.07l1.03-3.02c10.4 3.5 16.35 9.03 16.35 15.1 0 6.06-5.96 11.56-16.35 15.1z" stroke="#fff" stroke-opacity="0" stroke-width="2" fill="#fff"/><path d="M1197.77-1013.34c.7.48 1.43.96 2.14 1.12.72.32 1.6.32 2.32.16.7-.16 1.43-.64 1.96-1.12.7-.64 1.07-1.28 1.25-1.92l6.23-21.97 27.76-103.9c0-.48.36-1.12.9-1.44.35-.33.88-.5 1.6-.5.53 0 1.06.17 1.6.5.35.3.7.95.9 1.43l3 8.02c1.08 2.9 2.86 5.3 5 7.38 2.3 1.92 4.98 3.36 8 4.16l26 7.05c2.5.64 4.8 2.08 6.4 4.17 1.78 1.92 2.85 4.33 3.03 6.9.18 3.04-.36 6.24-1.6 8.97-1.07 2.88-3.03 5.44-5.34 7.53l-6.4 5.45c-5.16 4.5-8.9 10.42-10.5 17-1.78 6.57-1.43 13.46.9 19.88l10.67 29.5c.18.64.7 1.28 1.07 1.76.53.48 1.24.8 1.95 1.12.7.16 1.42.16 2.13.16.7-.16 1.42-.32 1.96-.8 13.34-9.78 23.84-23.1 30.07-38.48 6.05-15.4 7.83-32.23 4.8-48.42-3.2-17.48-11.56-33.5-24.02-46.18-12.46-12.5-28.48-21.16-45.93-24.7-12.1-2.4-24.74-2.4-36.84.33-12.1 2.57-23.5 7.7-33.65 14.9-9.96 7.4-18.33 16.53-24.56 27.27-6.23 10.58-10.15 22.3-11.57 34.47 0 1.12 0 2.08.36 3.04.35.96.9 1.92 1.6 2.56.7.8 1.78 1.3 2.67 1.6 1.07.33 2.13.5 3.02.33 3.56-.32 7.12.16 10.5 1.28 3.2 1.13 6.4 2.9 8.9 5.14 2.68 2.4 4.63 5.3 6.06 8.5 1.43 3.05 2.14 6.57 2.14 10.1v12.83c.18 12.82 5 25.17 13.7 34.8z" stroke="#000" stroke-opacity="0" stroke-width="3.75"/><path d="M1259.18-1097.36c4.45 0 8-3.52 8-8 0-4.34-3.55-8.03-8-8.03s-8.2 3.7-8.2 8.03c0 4.5 3.75 8 8.2 8z" stroke="#000" stroke-opacity="0" stroke-width="3.75"/><path d="M1118-993.73a6 6 0 0 1 6-6h228a6 6 0 0 1 6 6v62a6 6 0 0 1-6 6h-228a6 6 0 0 1-6-6z" stroke="#000" stroke-opacity="0" fill="#fff" fill-opacity="0"/><use xlink:href="#u" transform="matrix(1,0,0,1,1123,-994.7309865275968) translate(9.96296296296299 25.333333333333332)"/><use xlink:href="#v" transform="matrix(1,0,0,1,1123,-994.7309865275968) translate(143.07407407407408 25.333333333333332)"/><use xlink:href="#w" transform="matrix(1,0,0,1,1123,-994.7309865275968) translate(115 57.33333333333333)"/><path d="M-376-584h140v78.68c0 2.67-2.1 4.76-4.62 4.76h-130.76c-2.52 0-4.62-2.1-4.62-4.76V-584z" stroke="#000" stroke-opacity="0" fill="url(#x)"/><path d="M-371.24-614.06h130.62c2.52 0 4.62 2.1 4.62 4.72V-584h-140v-25.34c0-2.62 2.1-4.72 4.62-4.72h.14z" stroke="#000" stroke-opacity="0" fill="#0078d4"/><path d="M-354.75-605.08h97.64c1.52 0 2.34.8 2.34 2.37v7.4c0 1.58-.82 2.37-2.35 2.37h-97.65c-1.53 0-2.35-.8-2.35-2.37v-7.4c0-1.6.82-2.38 2.35-2.38z" stroke="#000" stroke-opacity="0" fill="#f2f2f2"/><path d="M7-460.56h99.3a6 6 0 0 1 6 6v150.44a6 6 0 0 0 6 6h81.8" stroke="#3a414a" stroke-width="2" fill="none"/><path d="M7.03-459.56H6v-2h1.03z" stroke="#3a414a" stroke-width=".05" fill="#3a414a"/><path d="M215.35-298.12l-14.26 4.63v-9.26z" stroke="#3a414a" stroke-width="2" fill="#3a414a"/><path d="M1120.6-882a6 6 0 0 1 6-6h601.34a6 6 0 0 1 6 6v752.88a6 6 0 0 1-6 6H1126.6a6 6 0 0 1-6-6z" stroke="#3a414a" stroke-width="2" fill="#dfe3e8"/><path d="M1405.5-648.33c-16.72 0-43.35-3.8-43.68-14.03l-11.92-88.26c-.23-1.48.66-2.85 2.1-3.16 1.46-.2 2.9.74 3.24 2.2 1.23 5.07 21.06 12.14 50.36 12.14s49.13-7.07 50.36-12.13c.33-1.47 1.78-2.42 3.23-2.2 1.44.3 2.33 1.67 2.1 3.15l-12.14 88.26c0 3.48-3.23 6.43-9.24 8.86-2.8 1.05-5.24 1.8-8.14 2.42-9.13 2-16.93 2.75-26.3 2.75zm-49.25-95.12l10.7 80.67v.32c0 3.16 15.03 8.96 38.43 8.96 8.9.1 16.38-.74 25.07-2.53 2.67-.63 4.9-1.37 7.46-2.43 4.8-1.9 5.92-3.58 5.92-4.1v-.33l10.8-80.55c-10.13 6-30.52 9.28-49.24 9.28-18.72 0-39-3.27-49.13-9.28z" stroke="#fff" stroke-opacity="0" fill="#3f8624"/><path d="M1405.5-734.2c-24.9 0-52.82-5.64-55.48-16.07V-751.7v-.33c0-11.6 29.36-19.7 55.7-19.7 26.37 0 55.5 8.1 55.5 19.7v.33l-.1 1.1v.33c-2.9 10.43-30.8 16.06-55.6 16.06zm-50.37-17.27c1.67 5.06 21.35 12 50.38 12 29.04 0 48.72-6.94 50.4-12v-.7c-.34-5.12-21.03-14.3-50.4-14.3-29.35 0-50.15 9.18-50.48 14.3zM1461.3-697.9c-12.44 0-39.83-12.37-56.94-20.77l2.3-4.73c23.62 11.63 51.46 22.38 56.24 20.34-.38-.74-2.17-3.12-10.53-7.67l-.38-.25 2.6-4.57.4.25c8.42 4.63 12.44 8.2 13.14 11.57.26 1.46-.13 2.84-1.1 4h.02c-1.6 1.45-3.58 2.1-5.75 1.83z" stroke="#fff" stroke-opacity="0" fill="#3f8624"/><path d="M1405.5-715.28c-3.13 0-5.7-2.56-5.7-5.7 0-3.15 2.57-5.7 5.7-5.7 3.16 0 5.7 2.55 5.7 5.7 0 3.14-2.54 5.68-5.7 5.7zm0-6.15c-.26 0-.47.2-.46.45 0 .5.9.5.9 0v-.06c0-.25-.18-.44-.43-.44z" stroke="#fff" stroke-opacity="0" fill="#3f8624"/><path d="M1236.7-579.8h28.53l6.46 6.95h70.9v32.9l-72.92.12-6.36-6.94h-26.6zm-.1 36.9h28.84l6.15 7.06h70.9l.1 32.9h-72.92l-6.36-6.94h-26.7zm0 37h28.52l6.57 6.96h70.9v33.02l-72.82-.1-6.46-6.84h-26.7zm28.63-46.1l6.46 6.93 66.03-.1v-22.45h-68.05l-6.36-6.94h-21.84v22.43zm-23.85 14.45v22.44h23.85l6.46 6.93h66.03v-22.43h-68.16l-6.15-6.95zm0 36.9v22.55l23.95-.1 6.36 6.82 66.03.1v-22.42l-68.05.1-6.57-7.05zm81.83-59.45l4.67-5 3.4 3.75-4.56 5 4.56 5.02-3.4 3.76-4.65-5-4.55 5-3.4-3.76 4.57-5-4.56-5.02 3.4-3.76zm-6.56 78.7l10.9-10.03 3.1 4.1-14.32 13.1-5.83-6.38 3.38-3.76zm.53-36.9l10.9-10.02 3.1 4.1-14.32 13.1-5.83-6.38 3.5-3.76z" stroke="#000" stroke-opacity="0" fill="#b0084d"/><path d="M1236.65-579.83h28.52l6.57 6.84 70.7.24.2 106.93-73.02-.23-6.25-6.73h-26.5z" stroke="#000" stroke-opacity="0" fill-opacity="0"/><path d="M1476.3-579.8h28.52l6.47 6.95h70.9v32.9l-72.92.12-6.36-6.94h-26.6zm-.1 36.9h28.84l6.14 7.06h70.92l.1 32.9h-72.92l-6.36-6.94h-26.72zm0 37h28.52l6.57 6.96h70.9v33.02l-72.82-.1-6.46-6.84h-26.72zm28.62-46.1l6.47 6.93 66.03-.1v-22.45h-68.05l-6.36-6.94h-21.84v22.43zm-23.85 14.45v22.44h23.85l6.47 6.93h66.03v-22.43h-68.16l-6.15-6.95zm0 36.9v22.55l23.96-.1 6.36 6.82 66.03.1v-22.42l-68.05.1-6.58-7.05zm81.84-59.45l4.67-5 3.4 3.75-4.57 5 4.56 5.02-3.4 3.76-4.65-5-4.55 5-3.4-3.76 4.56-5-4.54-5.02 3.4-3.76zm-6.57 78.7l10.92-10.03 3.08 4.1-14.3 13.1-5.84-6.38 3.38-3.76zm.53-36.9l10.92-10.02 3.08 4.1-14.3 13.1-5.84-6.38 3.5-3.76z" stroke="#000" stroke-opacity="0" fill="#b0084d"/><path d="M1476.25-579.83h28.52l6.57 6.84 70.7.24.2 106.93-73.02-.23-6.26-6.73h-26.5z" stroke="#000" stroke-opacity="0" fill-opacity="0"/><path d="M1326.66-274h-18.23c-.92 0-1.77-.52-2.14-1.37l-25.56-54.77h-10.3c-1.3 0-2.38-1.07-2.38-2.38v-15.8c0-1.3 1.1-2.38 2.38-2.38h22.74c.98 0 1.77.54 2.14 1.4l25.5 54.76h5.84c1.28 0 2.38 1.07 2.38 2.45v15.74c0 1.3-1.1 2.38-2.38 2.38zm-16.77-4.82h14.32v-10.9h-4.94c-.9 0-1.77-.53-2.13-1.37l-25.43-54.84h-18.85v10.97h9.4c.97 0 1.83.54 2.2 1.38z" stroke="#fff" stroke-opacity="0" fill="#d86613"/><path d="M1277.18-274h-19.47c-1.28 0-2.37-1.08-2.37-2.4 0-.38.07-.67.25-1l20.34-42.63c.42-.85 1.22-1.37 2.17-1.37.93 0 1.73.47 2.15 1.33l9.74 20.15c.3.66.3 1.37 0 2.04l-10.66 22.52c-.4.85-1.22 1.38-2.16 1.38zm-15.63-4.77h14.1l9.6-20.1-7.2-14.6z" stroke="#fff" stroke-opacity="0" fill="#d86613"/><path d="M1292.94-251.5c-31.1 0-56.33-25.24-56.33-56.33 0-31.1 25.24-56.34 56.34-56.34 31.1 0 56.33 25.24 56.33 56.34 0 31.1-25.23 56.33-56.33 56.33zm0-107.82c-28.5 0-51.5 22.98-51.5 51.5 0 28.5 23 51.47 51.5 51.47s51.5-22.98 51.5-51.48c0-28.5-23-51.5-51.5-51.5z" stroke="#fff" stroke-opacity="0" fill="#d86613"/><use xlink:href="#y" transform="matrix(1,0,0,1,1206.6055006142105,-242.49999999999977) translate(12.487654320987673 17.77777777777778)"/><use xlink:href="#z" transform="matrix(1,0,0,1,1206.6055006142105,-242.49999999999977) translate(98.84567901234568 17.77777777777778)"/><path d="M1580-322.1h-100.24c-1.15 0-2.2-1-2.2-2.23v-10.45h4.5v8.23h95.64v-18.55h-66.65v-4.44H1580c1.16 0 2.2 1 2.2 2.22v23c0 1.22-1.04 2.2-2.2 2.2zM1579.98-290.8h-4.45v-4.46h2.22v-2.22h4.45v4.45c0 1.23-1 2.23-2.22 2.23zM1571.38-290.8h-8.3v-4.46h8.3zm-12.45 0h-8.3v-4.46h8.3zm-12.45 0h-8.3v-4.46h8.3zm-12.45 0h-8.3v-4.46h8.3zm-12.45 0h-8.3v-4.46h8.3zm-12.45 0h-8.22v-4.46h8.3zm-12.45 0h-8.3v-4.46h8.3zM1484.24-290.8h-4.46c-1.22 0-2.22-1-2.22-2.23v-4.45h4.46v2.22h2.22zM1477.56-308.04h4.45v7.04h-4.44v-7.04zM1482.02-311.53h-4.46V-316c0-1.22 1-2.2 2.22-2.2h4.46v4.44h-2.22zM1571.38-313.76h-8.3v-4.45h8.3zm-12.45 0h-8.3v-4.45h8.3zm-12.45 0h-8.3v-4.45h8.3zm-12.45 0h-8.3v-4.45h8.3zm-12.45 0h-8.3v-4.45h8.3zm-12.45 0h-8.22v-4.45h8.3zm-12.45 0h-8.3v-4.45h8.3zM1582.2-311.53h-4.45v-2.23h-2.22v-4.45h4.45c1.23 0 2.22.98 2.22 2.2zM1577.75-308.04h4.45v7.04h-4.45v-7.04zM1579.98-259.5h-4.45v-4.45h2.22v-2.23h4.45v4.46c0 1.23-1 2.22-2.22 2.22zM1571.38-259.5h-8.3v-4.45h8.3zm-12.45 0h-8.3v-4.45h8.3zm-12.45 0h-8.3v-4.45h8.3zm-12.45 0h-8.3v-4.45h8.3zm-12.45 0h-8.3v-4.45h8.3zm-12.45 0h-8.22v-4.45h8.3zm-12.45 0h-8.3v-4.45h8.3zM1484.24-259.5h-4.46c-1.22 0-2.22-1-2.22-2.22v-4.46h4.46v2.23h2.22zM1477.56-276.7h4.45v7.02h-4.44v-7.03zM1482.02-280.23h-4.46v-4.45c0-1.23 1-2.23 2.22-2.23h4.46v4.45h-2.22zM1571.38-282.45h-8.3v-4.46h8.3zm-12.45 0h-8.3v-4.46h8.3zm-12.45 0h-8.3v-4.46h8.3zm-12.45 0h-8.3v-4.46h8.3zm-12.45 0h-8.3v-4.46h8.3zm-12.45 0h-8.22v-4.46h8.3zm-12.45 0h-8.3v-4.46h8.3zM1582.2-280.23h-4.45v-2.22h-2.22v-4.46h4.45c1.23 0 2.22 1 2.22 2.22zM1577.75-276.7h4.45v7.02h-4.45v-7.03z" stroke="#fff" stroke-opacity="0" fill="#cd2264"/><path d="M1525.43-328.32v-6.52h-7.33v6.52h-2.1v-14.45h2.1v6.2h7.33v-6.2h2.1v14.45zM1534.14-328.32v-12.72h-4.6v-1.73h11.34v1.73h-4.6v12.72zM1546.76-328.32v-12.72h-4.63v-1.73h11.35v1.73h-4.6v12.72zM1557.63-333.92v5.6h-2.08v-14.44h5.23c1.3-.07 2.4.33 3.37 1.2.93.85 1.4 1.95 1.35 3.22.06 1.26-.37 2.36-1.26 3.22-.96.87-2.08 1.28-3.37 1.2zm0-1.7h2.98c.77.07 1.44-.16 2-.67.5-.58.7-1.26.66-2.04.03-.23.04-.43 0-.66-.16-1.32-1.34-2.25-2.65-2.07h-2.97zM1492.3-334.64c-8.15 0-14.76-6.62-14.76-14.76 0-8.15 6.6-14.77 14.76-14.77 8.15 0 14.76 6.62 14.76 14.77v.02c0 8.15-6.6 14.74-14.76 14.74zm0-25.04c-5.7 0-10.3 4.6-10.3 10.3 0 5.7 4.6 10.3 10.3 10.3 5.7 0 10.3-4.6 10.3-10.3v-.06c0-5.66-4.63-10.27-10.3-10.24z" stroke="#fff" stroke-opacity="0" fill="#cd2264"/><path d="M1479.9-347.9h100.08v88.4h-100.1v-88.4z" stroke="#fff" stroke-opacity="0" stroke-width=".38" fill="#fff" fill-opacity="0"/><use xlink:href="#A" transform="matrix(1,0,0,1,1447.5375839475441,-250.49999999999977) translate(35.83333333333333 17.77777777777778)"/><path d="M1409.05-647.38v118.55a6 6 0 0 1-6 6h-42" stroke="#3a414a" stroke-width="2" fill="none"/><path d="M1410.05-647.35h-2v-1l1.5-.03.5-.06z" stroke="#3a414a" stroke-width=".05" fill="#3a414a"/><path d="M1345.78-522.83l14.26-4.64v9.27z" stroke="#3a414a" stroke-width="2" fill="#3a414a"/><path d="M1409.05-647.38v118.55a6 6 0 0 0 6 6h42.65" stroke="#3a414a" stroke-width="2" fill="none"/><path d="M1410.05-647.35h-2v-1l1.5-.03.5-.06z" stroke="#3a414a" stroke-width=".05" fill="#3a414a"/><path d="M1472.97-522.83l-14.27 4.63v-9.27z" stroke="#3a414a" stroke-width="2" fill="#3a414a"/><path d="M1529.2-465v56.9a.33.33 0 0 0 .34.33.33.33 0 0 1 .33.33v39.4" stroke="#3a414a" stroke-width="2" fill="none"/><path d="M1529.98-466h.22v1.03h-2V-466z" stroke="#3a414a" stroke-width=".05" fill="#3a414a"/><path d="M1529.87-352.77l-4.63-14.27h9.27z" stroke="#3a414a" stroke-width="2" fill="#3a414a"/><path d="M1289.6-465v49.69a.3.3 0 0 1-.3.3.3.3 0 0 0-.32.3v32.19" stroke="#3a414a" stroke-width="2" fill="none"/><path d="M1290.38-466h.23v1.03h-2V-466z" stroke="#3a414a" stroke-width=".05" fill="#3a414a"/><path d="M1288.98-367.25l-4.63-14.26h9.27z" stroke="#3a414a" stroke-width="2" fill="#3a414a"/><path d="M1235.6-307.83h-33a6 6 0 0 1-6-6v-390.2a6 6 0 0 1 6-6h134.28" stroke="#3a414a" stroke-width="2" fill="none"/><path d="M1236.6-307.83l.04 1h-1.06v-2h1.07z" stroke="#3a414a" stroke-width=".05" fill="#3a414a"/><path d="M1352.14-710.03l-14.26 4.63v-9.27z" stroke="#3a414a" stroke-width="2" fill="#3a414a"/><path d="M1583.2-311.83h47.82a.08.08 0 0 0 .08-.1.08.08 0 0 1 .1-.07h18.05" stroke="#3a414a" stroke-width="2" fill="none"/><path d="M1583.23-310.83h-3.25v-.7h2.22v-1.3h1.03z" stroke="#3a414a" stroke-width=".05" fill="#3a414a"/><path d="M1678.6-312l-14.86 14.85L1648.6-312l15.14-14.85z" stroke="#3a414a" stroke-width="2" fill="#fff"/><path d="M1224.94-611.5a6 6 0 0 1 6-6h124a6 6 0 0 1 6 6v19.33a6 6 0 0 1-6 6h-124a6 6 0 0 1-6-6z" stroke="#000" stroke-opacity="0" stroke-width="2" fill="#fff" fill-opacity="0"/><use xlink:href="#B" transform="matrix(1,0,0,1,1229.938833947544,-612.4999999999998) translate(-2.925925925925938 17.77777777777778)"/><path d="M1367.05-797a6 6 0 0 1 6-6h72a6 6 0 0 1 6 6v18a6 6 0 0 1-6 6h-72a6 6 0 0 1-6-6z" stroke="#000" stroke-opacity="0" stroke-width="2" fill="#fff" fill-opacity="0"/><use xlink:href="#C" transform="matrix(1,0,0,1,1372.0505006142107,-798) translate(3.0493827160493794 19.02777777777778)"/><path d="M1468.2-611.5a6 6 0 0 1 6-6h124a6 6 0 0 1 6 6v19.33a6 6 0 0 1-6 6h-124a6 6 0 0 1-6-6z" stroke="#000" stroke-opacity="0" stroke-width="2" fill="#fff" fill-opacity="0"/><use xlink:href="#D" transform="matrix(1,0,0,1,1473.2042506142109,-612.4999999999998) translate(1.364197530864189 19.15277777777778)"/><path d="M1112.33-883.37a6 6 0 0 1 6-6h441.72a6 6 0 0 1 6 6v69.34a6 6 0 0 1-6 6h-441.72a6 6 0 0 1-6-6z" stroke="#000" stroke-opacity="0" stroke-width="2" fill="#fff" fill-opacity="0"/><use xlink:href="#E" transform="matrix(1,0,0,1,1117.333333333333,-884.3654932637984) translate(18.895061728395092 41.111111111111114)"/><use xlink:href="#F" transform="matrix(1,0,0,1,1117.333333333333,-884.3654932637984) translate(172.96913580246917 41.111111111111114)"/><use xlink:href="#G" transform="matrix(1,0,0,1,1117.333333333333,-884.3654932637984) translate(269.6666666666667 41.111111111111114)"/><path d="M950-450.56h151.1" stroke="#3a414a" stroke-width="2" fill="none"/><path d="M950.03-449.56H949v-2h1.03z" stroke="#3a414a" stroke-width=".05" fill="#3a414a"/><path d="M1116.37-450.56l-14.27 4.63v-9.27z" stroke="#3a414a" stroke-width="2" fill="#3a414a"/><path d="M-306-482.06v169.5a6 6 0 0 0 6 6h250a6 6 0 0 1 6 6v27.66" stroke="#3a414a" stroke-width="2" fill="none"/><path d="M-306-497.33l4.63 14.27h-9.26zM-44-257.63l-4.63-14.27h9.27z" stroke="#3a414a" stroke-width="2" fill="#3a414a"/><path d="M-368-655.23a6 6 0 0 1 6-6h120a6 6 0 0 1 6 6v24.67a6 6 0 0 1-6 6h-120a6 6 0 0 1-6-6z" stroke="#000" stroke-opacity="0" stroke-width="2" fill="#fff" fill-opacity="0"/><use xlink:href="#H" transform="matrix(1,0,0,1,-363,-656.2309865275967) translate(20.351851851851848 19.46527777777778)"/><path d="M870-534.07h-2v-96.88h2zm0-123.54h-2v-96.9h2z" stroke="#3a414a" stroke-width=".05" fill="#3a414a"/><path d="M873.63-755.5h-9.26l4.63-14.26z" fill="#3a414a"/><path d="M875-754.5h-12l6-18.5zm-9.26-2h6.52L869-766.53z" stroke="#3a414a" stroke-width=".05" fill="#3a414a"/><path d="M869-518.8l-4.63-14.27h9.26z" fill="#3a414a"/><path d="M869-515.57l-6-18.5h12zm-3.26-16.5l3.26 10.03 3.26-10.03z" stroke="#3a414a" stroke-width=".05" fill="#3a414a"/><use xlink:href="#I" transform="matrix(1,0,0,1,783.2283377568849,-657.6154898547076) translate(0 17.77777777777778)"/><use xlink:href="#J" transform="matrix(1,0,0,1,783.2283377568849,-657.6154898547076) translate(88.88888888888887 17.77777777777778)"/><path d="M869-911.5v-92" stroke="#3a414a" stroke-width="2" fill="none"/><path d="M869-896.24l-4.63-14.26h9.26zM869-1018.76l4.63 14.26h-9.26z" stroke="#3a414a" stroke-width="2" fill="#3a414a"/><path d="M749-1184a6 6 0 0 1 6-6h228a6 6 0 0 1 6 6v48a6 6 0 0 1-6 6H755a6 6 0 0 1-6-6z" stroke="#000" stroke-opacity="0" stroke-width="2" fill="#fff" fill-opacity="0"/><use xlink:href="#K" transform="matrix(1,0,0,1,753.9999426951565,-1185) translate(42.592592592592595 30.27777777777778)"/><use xlink:href="#L" transform="matrix(1,0,0,1,753.9999426951565,-1185) translate(98.5185185185185 30.27777777777778)"/><path d="M914-848a6 6 0 0 1 6-6h114a6 6 0 0 1 6 6v30a6 6 0 0 1-6 6H920a6 6 0 0 1-6-6z" stroke="#000" stroke-opacity="0" stroke-width="2" fill="#fff" fill-opacity="0"/><use xlink:href="#M" transform="matrix(1,0,0,1,919,-849) translate(34.60493827160494 19.77777777777778)"/><path d="M790.5-1082h-109" stroke="#3a414a" stroke-width="2" fill="none"/><path d="M805.76-1082l-14.26 4.63v-9.27zM666.24-1082l14.26-4.63v9.27z" stroke="#3a414a" stroke-width="2" fill="#3a414a"/><path d="M483-1184a6 6 0 0 1 6-6h228a6 6 0 0 1 6 6v48a6 6 0 0 1-6 6H489a6 6 0 0 1-6-6z" stroke="#000" stroke-opacity="0" stroke-width="2" fill="#fff" fill-opacity="0"/><use xlink:href="#N" transform="matrix(1,0,0,1,487.9999426951564,-1185) translate(14.506172839506178 30.27777777777778)"/><use xlink:href="#O" transform="matrix(1,0,0,1,487.9999426951564,-1185) translate(102.09876543209877 30.27777777777778)"/><path d="M603-1021v136.33" stroke="#3a414a" stroke-width="2" fill="none"/><path d="M604-1020.97h-2v-1.03h2z" stroke="#3a414a" stroke-width=".05" fill="#3a414a"/><path d="M618-870c0 8.28-6.72 15-15 15-8.28 0-15-6.72-15-15 0-8.28 6.72-15 15-15 8.28 0 15 6.72 15 15z" stroke="#3a414a" stroke-width="2" fill="#fff"/><path d="M571-306.58l-.08 1.05-.26 1.07-.42 1.02-.57.94-.72.83-.83.7-.94.6-1.02.4-1.06.27-1.06.08H339.5v-2h224.46l.82-.07.76-.17.73-.3.67-.4.6-.52.5-.58.4-.67.3-.73.2-.76.06-.82v-35.5h2zm0-56.93h-2v-18.56h2z" stroke="#3a414a" stroke-width=".05" fill="#3a414a"/><path d="M339.53-299.62h-1.07l.04-1-.04-1h1.07z" fill="#3a414a"/><path d="M339.55-299.6h-1.12l.05-1.02-.04-1.03h1.1zm-1.06-2l.02.98-.04.97h1.02v-1.95z" stroke="#3a414a" stroke-width=".05" fill="#3a414a"/><path d="M574.63-383.06h-9.26l4.63-14.27z" fill="#3a414a"/><path d="M576-382.06h-12l6-18.5zm-9.26-2h6.52L570-394.1z" stroke="#3a414a" stroke-width=".05" fill="#3a414a"/><use xlink:href="#P" transform="matrix(1,0,0,1,551.7777204729342,-363.50607174277815) translate(0 14.222222222222223)"/><path d="M870-306.58l-.08 1.05-.26 1.07-.42 1.02-.57.94-.72.83-.83.7-.94.6-1.02.4-1.06.27-1.06.08H339.5v-2h523.46l.82-.07.76-.17.73-.3.67-.4.6-.52.5-.58.4-.67.3-.73.2-.76.06-.82v-19.73h2zm0-41.14h-2v-34.34h2z" stroke="#3a414a" stroke-width=".05" fill="#3a414a"/><path d="M339.53-299.62h-1.07l.04-1-.04-1h1.07z" fill="#3a414a"/><path d="M339.55-299.6h-1.12l.05-1.02-.04-1.03h1.1zm-1.06-2l.02.98-.04.97h1.02v-1.95z" stroke="#3a414a" stroke-width=".05" fill="#3a414a"/><path d="M873.63-383.06h-9.26l4.63-14.27z" fill="#3a414a"/><path d="M875-382.06h-12l6-18.5zm-9.26-2h6.52L869-394.1z" stroke="#3a414a" stroke-width=".05" fill="#3a414a"/><use xlink:href="#Q" transform="matrix(1,0,0,1,853.7159920778726,-347.7238519369802) translate(0 14.222222222222223)"/><path d="M676.6-449.56h-12.1v-2h12.1zm93.9 0h-12.1v-2h12.1z" stroke="#3a414a" stroke-width=".05" fill="#3a414a"/><path d="M663.5-445.93l-14.26-4.63 14.26-4.64z" fill="#3a414a"/><path d="M664.5-444.55l-18.5-6 18.5-6.03zm-12.03-6l10.03 3.25v-6.52z" stroke="#3a414a" stroke-width=".05" fill="#3a414a"/><path d="M785.76-450.56l-14.26 4.63v-9.27z" fill="#3a414a"/><path d="M789-450.56l-18.5 6v-12.02zm-16.5 3.25l10.03-3.26-10.03-3.26z" stroke="#3a414a" stroke-width=".05" fill="#3a414a"/><use xlink:href="#R" transform="matrix(1,0,0,1,676.5863624482429,-461.2309865275968) translate(0 14.222222222222223)"/><use xlink:href="#S" transform="matrix(1,0,0,1,676.5863624482429,-461.2309865275968) translate(52.24691358024692 14.222222222222223)"/><path d="M443-391.33a6 6 0 0 1 6-6h88a6 6 0 0 1 6 6v19.66a6 6 0 0 1-6 6h-88a6 6 0 0 1-6-6z" stroke="#000" stroke-opacity="0" stroke-width="2" fill="#fff" fill-opacity="0"/><use xlink:href="#T" transform="matrix(1,0,0,1,447.9999426951564,-392.3299095062322) translate(-8.259259259259245 21.333333333333332)"/><path d="M875-392.5a6 6 0 0 1 6-6h102a6 6 0 0 1 6 6v19.67a6 6 0 0 1-6 6H881a6 6 0 0 1-6-6z" stroke="#000" stroke-opacity="0" stroke-width="2" fill="#fff" fill-opacity="0"/><use xlink:href="#U" transform="matrix(1,0,0,1,879.9999426951565,-393.4982880864494) translate(0.14814814814815946 21.333333333333332)"/><path d="M387-456.6l.06.82.2.76.3.72.4.67.5.6.6.5.67.42.73.3.76.17.82.07h83.46v2h-83.54l-1.06-.1-1.06-.24-1.02-.43-.94-.57-.83-.7-.72-.85-.57-.94-.42-1-.26-1.07-.08-1.05V-827h2zm577.1-726.32l1.06.26 1.02.42.94.57.83.72.72.83.57.94.42 1.02.26 1.06.08 1.06v88.08l-.08 1.06-.26 1.06-.42 1.02-.57.94-.72.83-.83.72-.94.57-1.02.42-1.06.26-1.06.08H947.5v-2h15.46l.82-.07.76-.18.73-.3.67-.4.6-.52.5-.6.4-.66.3-.73.2-.76.06-.82v-87.92l-.07-.82-.18-.76-.3-.73-.4-.67-.52-.6-.6-.5-.66-.4-.73-.3-.76-.2-.82-.06H392.04l-.82.07-.76.18-.73.3-.67.4-.6.52-.5.6-.4.66-.3.73-.2.76-.06.82v322.3h-2v-322.38l.08-1.06.26-1.06.42-1.02.57-.94.72-.83.83-.72.94-.57 1.02-.42 1.06-.26 1.06-.08h571.08z" stroke="#3a414a" stroke-width=".05" fill="#3a414a"/><path d="M946.5-1077.37l-14.26-4.63 14.26-4.63z" fill="#3a414a"/><path d="M947.5-1076l-18.5-6 18.5-6zm-12.03-6l10.03 3.26v-6.52z" stroke="#3a414a" stroke-width=".05" fill="#3a414a"/><path d="M490.76-450.56l-14.26 4.63v-9.27z" fill="#3a414a"/><path d="M494-450.56l-18.5 6v-12.02zm-16.5 3.25l10.03-3.26-10.03-3.26z" stroke="#3a414a" stroke-width=".05" fill="#3a414a"/><g><use xlink:href="#I" transform="matrix(1,0,0,1,262.6666666666667,-853.6694153598199) translate(0 17.77777777777778)"/><use xlink:href="#V" transform="matrix(1,0,0,1,262.6666666666667,-853.6694153598199) translate(88.88888888888887 17.77777777777778)"/><use xlink:href="#W" transform="matrix(1,0,0,1,262.6666666666667,-853.6694153598199) translate(117.2222222222222 17.77777777777778)"/><use xlink:href="#c" transform="matrix(1,0,0,1,262.6666666666667,-853.6694153598199) translate(164.01234567901233 17.77777777777778)"/></g><path d="M1402-1115.67a6 6 0 0 1 6-6h304.2a6 6 0 0 1 6 6v67.34a6 6 0 0 1-6 6H1408a6 6 0 0 1-6-6z" stroke="#000" stroke-opacity="0" stroke-width="2" fill="#fff" fill-opacity="0"/><g><use xlink:href="#X" transform="matrix(1,0,0,1,1407,-1116.6666666666665) translate(14.03086419753086 40.611111111111114)"/><use xlink:href="#Y" transform="matrix(1,0,0,1,1407,-1116.6666666666665) translate(94.03703703703704 40.611111111111114)"/><use xlink:href="#Z" transform="matrix(1,0,0,1,1407,-1116.6666666666665) translate(174.20370370370372 40.611111111111114)"/></g><path d="M1233.1-1306.92l1.06.26 1.02.42.94.57.83.72.72.83.57.94.42 1.02.26 1.06.08 1.06v109.5h-2v-109.42l-.07-.82-.18-.76-.3-.73-.4-.67-.52-.6-.6-.5-.66-.4-.73-.3-.76-.2-.82-.06H460.04l-.82.07-.76.18-.73.3-.67.4-.6.52-.5.6-.4.66-.3.73-.2.76-.06.82v423.92l.06.82.2.76.3.73.4.67.5.6.6.5.67.4.73.3.76.2.82.06h93.46v2h-93.54l-1.06-.08-1.06-.26-1.02-.42-.94-.57-.83-.72-.72-.83-.57-.94-.42-1.02-.26-1.06-.08-1.06v-424.08l.08-1.06.26-1.06.42-1.02.57-.94.72-.83.83-.72.94-.57 1.02-.42 1.06-.26 1.06-.08h772.08z" stroke="#3a414a" stroke-width=".05" fill="#3a414a"/><path d="M1238-1175.27l-4.63-14.26h9.27z" fill="#3a414a"/><path d="M1238-1172.03l-6-18.5h12zm-3.26-16.5l3.26 10.03 3.26-10.03z" stroke="#3a414a" stroke-width=".05" fill="#3a414a"/><path d="M568.76-870l-14.26 4.63v-9.26z" fill="#3a414a"/><path d="M572-870l-18.5 6v-12zm-16.5 3.26l10.03-3.26-10.03-3.26zM933-200.36l-.08 1.06-.26 1.07-.42 1-.57.95-.72.83-.83.72-.94.57-1.02.42-1.06.26-1.06.08H17v-2h908.96l.82-.06.76-.2.73-.28.67-.4.6-.52.5-.6.4-.67.3-.72.2-.77.06-.82v-147.9h2z" stroke="#3a414a" stroke-width=".05" fill="#3a414a"/><path d="M17.03-193.4H16v-2h1.03z" fill="#3a414a"/><path d="M17.05-193.37h-1.08v-2.05h1.08zm-1.03-2v1.95H17v-1.95z" stroke="#3a414a" stroke-width=".05" fill="#3a414a"/><path d="M936.63-349.33h-9.26L932-363.6z" fill="#3a414a"/><path d="M938-348.33h-12l6-18.5zm-9.26-2h6.52L932-360.36z" stroke="#3a414a" stroke-width=".05" fill="#3a414a"/><path d="M-235-557.3h175a6 6 0 0 1 6 6v12.23" stroke="#3a414a" stroke-width="2" fill="none"/><path d="M-234.97-556.3H-236v-2h1.03z" stroke="#3a414a" stroke-width=".05" fill="#3a414a"/><path d="M-54-523.8l-4.63-14.27h9.27z" stroke="#3a414a" stroke-width="2" fill="#3a414a"/><defs><path fill="#333" d="M24-248c120-7 223 5 221 122C244-46 201 0 124 0H24v-248zM76-40c74 7 117-18 117-86 0-67-45-88-117-82v168" id="aa"/><path fill="#333" d="M25-224v-37h50v37H25zM25 0v-190h50V0H25" id="ab"/><path fill="#333" d="M135-150c-39-12-60 13-60 57V0H25l-1-190h47c2 13-1 29 3 40 6-28 27-53 61-41v41" id="ac"/><path fill="#333" d="M185-48c-13 30-37 53-82 52C43 2 14-33 14-96s30-98 90-98c62 0 83 45 84 108H66c0 31 8 55 39 56 18 0 30-7 34-22zm-45-69c5-46-57-63-70-21-2 6-4 13-4 21h74" id="ad"/><path fill="#333" d="M190-63c-7 42-38 67-86 67-59 0-84-38-90-98-12-110 154-137 174-36l-49 2c-2-19-15-32-35-32-30 0-35 28-38 64-6 74 65 87 74 30" id="ae"/><path fill="#333" d="M115-3C79 11 28 4 28-45v-112H4v-33h27l15-45h31v45h36v33H77v99c-1 23 16 31 38 25v30" id="af"/><g id="a"><use transform="matrix(0.06172839506172839,0,0,0.06172839506172839,0,0)" xlink:href="#aa"/><use transform="matrix(0.06172839506172839,0,0,0.06172839506172839,15.987654320987653,0)" xlink:href="#ab"/><use transform="matrix(0.06172839506172839,0,0,0.06172839506172839,22.160493827160494,0)" xlink:href="#ac"/><use transform="matrix(0.06172839506172839,0,0,0.06172839506172839,30.80246913580247,0)" xlink:href="#ad"/><use transform="matrix(0.06172839506172839,0,0,0.06172839506172839,43.148148148148145,0)" xlink:href="#ae"/><use transform="matrix(0.06172839506172839,0,0,0.06172839506172839,55.49382716049382,0)" xlink:href="#af"/></g><path fill="#333" d="M230 0l2-204L168 0h-37L68-204 70 0H24v-248h70l56 185 57-185h69V0h-46" id="ag"/><path fill="#333" d="M137-138c1-29-70-34-71-4 15 46 118 7 119 86 1 83-164 76-172 9l43-7c4 19 20 25 44 25 33 8 57-30 24-41C81-84 22-81 20-136c-2-80 154-74 161-7" id="ah"/><path fill="#333" d="M133-34C117-15 103 5 69 4 32 3 11-16 11-54c-1-60 55-63 116-61 1-26-3-47-28-47-18 1-26 9-28 27l-52-2c7-38 36-58 82-57s74 22 75 68l1 82c-1 14 12 18 25 15v27c-30 8-71 5-69-32zm-48 3c29 0 43-24 42-57-32 0-66-3-65 30 0 17 8 27 23 27" id="ai"/><path fill="#333" d="M195-6C206 82 75 100 31 46c-4-6-6-13-8-21l49-6c3 16 16 24 34 25 40 0 42-37 40-79-11 22-30 35-61 35-53 0-70-43-70-97 0-56 18-96 73-97 30 0 46 14 59 34l2-30h47zm-90-29c32 0 41-27 41-63 0-35-9-62-40-62-32 0-39 29-40 63 0 36 9 62 39 62" id="aj"/><path fill="#333" d="M135-194c87-1 58 113 63 194h-50c-7-57 23-157-34-157-59 0-34 97-39 157H25l-1-190h47c2 12-1 28 3 38 12-26 28-41 61-42" id="ak"/><g id="b"><use transform="matrix(0.06172839506172839,0,0,0.06172839506172839,0,0)" xlink:href="#ag"/><use transform="matrix(0.06172839506172839,0,0,0.06172839506172839,18.456790123456788,0)" xlink:href="#ad"/><use transform="matrix(0.06172839506172839,0,0,0.06172839506172839,30.80246913580247,0)" xlink:href="#ah"/><use transform="matrix(0.06172839506172839,0,0,0.06172839506172839,43.148148148148145,0)" xlink:href="#ah"/><use transform="matrix(0.06172839506172839,0,0,0.06172839506172839,55.49382716049382,0)" xlink:href="#ai"/><use transform="matrix(0.06172839506172839,0,0,0.06172839506172839,67.8395061728395,0)" xlink:href="#aj"/><use transform="matrix(0.06172839506172839,0,0,0.06172839506172839,81.35802469135803,0)" xlink:href="#ab"/><use transform="matrix(0.06172839506172839,0,0,0.06172839506172839,87.53086419753086,0)" xlink:href="#ak"/><use transform="matrix(0.06172839506172839,0,0,0.06172839506172839,101.04938271604938,0)" xlink:href="#aj"/></g><path fill="#333" d="M140-251c80 0 125 45 125 126 0 70-33 111-92 124 6 28 34 38 68 31l-1 36C177 83 129 55 120 2 51-6 15-50 15-125c0-81 44-126 125-126zm-1 214c52 0 73-35 73-88 0-50-21-86-72-86-52 0-73 35-73 86s22 88 72 88" id="al"/><path fill="#333" d="M85 4C-2 5 27-109 22-190h50c7 57-23 150 33 157 60-5 35-97 40-157h50l1 190h-47c-2-12 1-28-3-38-12 25-28 42-61 42" id="am"/><g id="c"><use transform="matrix(0.06172839506172839,0,0,0.06172839506172839,0,0)" xlink:href="#al"/><use transform="matrix(0.06172839506172839,0,0,0.06172839506172839,17.28395061728395,0)" xlink:href="#am"/><use transform="matrix(0.06172839506172839,0,0,0.06172839506172839,30.80246913580247,0)" xlink:href="#ad"/><use transform="matrix(0.06172839506172839,0,0,0.06172839506172839,43.148148148148145,0)" xlink:href="#ac"/><use transform="matrix(0.06172839506172839,0,0,0.06172839506172839,51.79012345679012,0)" xlink:href="#ab"/><use transform="matrix(0.06172839506172839,0,0,0.06172839506172839,57.96296296296296,0)" xlink:href="#ad"/><use transform="matrix(0.06172839506172839,0,0,0.06172839506172839,70.30864197530865,0)" xlink:href="#ah"/></g><path fill="#232f3e" d="M199 0l-22-63H83L61 0H9l90-248h61L250 0h-51zm-33-102l-36-108c-10 38-24 72-36 108h72" id="an"/><path fill="#232f3e" d="M275 0h-61l-44-196L126 0H64L0-248h53L97-49l45-199h58l43 199 44-199h52" id="ao"/><path fill="#232f3e" d="M169-182c-1-43-94-46-97-3 18 66 151 10 154 114 3 95-165 93-204 36-6-8-10-19-12-30l50-8c3 46 112 56 116 5-17-69-150-10-154-114-4-87 153-88 188-35 5 8 8 18 10 28" id="ap"/><g id="f"><use transform="matrix(0.08703703703703701,0,0,0.08703703703703701,0,0)" xlink:href="#an"/><use transform="matrix(0.08703703703703701,0,0,0.08703703703703701,20.801851851851843,0)" xlink:href="#ao"/><use transform="matrix(0.08703703703703701,0,0,0.08703703703703701,50.30740740740739,0)" xlink:href="#ap"/></g><path fill="#232f3e" d="M67-125c0 53 21 87 73 88 37 1 54-22 65-47l45 17C233-25 199 4 140 4 58 4 20-42 15-125 8-235 124-281 211-232c18 10 29 29 36 50l-46 12c-8-25-30-41-62-41-52 0-71 34-72 86" id="aq"/><path fill="#232f3e" d="M25 0v-261h50V0H25" id="ar"/><path fill="#232f3e" d="M110-194c64 0 96 36 96 99 0 64-35 99-97 99-61 0-95-36-95-99 0-62 34-99 96-99zm-1 164c35 0 45-28 45-65 0-40-10-65-43-65-34 0-45 26-45 65 0 36 10 65 43 65" id="as"/><path fill="#232f3e" d="M85 4C-2 5 27-109 22-190h50c7 57-23 150 33 157 60-5 35-97 40-157h50l1 190h-47c-2-12 1-28-3-38-12 25-28 42-61 42" id="at"/><path fill="#232f3e" d="M88-194c31-1 46 15 58 34l-1-101h50l1 261h-48c-2-10 0-23-3-31C134-8 116 4 84 4 32 4 16-41 15-95c0-56 19-97 73-99zm17 164c33 0 40-30 41-66 1-37-9-64-41-64s-38 30-39 65c0 43 13 65 39 65" id="au"/><g id="g"><use transform="matrix(0.08703703703703701,0,0,0.08703703703703701,0,0)" xlink:href="#aq"/><use transform="matrix(0.08703703703703701,0,0,0.08703703703703701,22.542592592592584,0)" xlink:href="#ar"/><use transform="matrix(0.08703703703703701,0,0,0.08703703703703701,31.246296296296286,0)" xlink:href="#as"/><use transform="matrix(0.08703703703703701,0,0,0.08703703703703701,50.30740740740739,0)" xlink:href="#at"/><use transform="matrix(0.08703703703703701,0,0,0.08703703703703701,69.3685185185185,0)" xlink:href="#au"/></g><path fill="#248814" d="M185-189c-5-48-123-54-124 2 14 75 158 14 163 119 3 78-121 87-175 55-17-10-28-26-33-46l33-7c5 56 141 63 141-1 0-78-155-14-162-118-5-82 145-84 179-34 5 7 8 16 11 25" id="av"/><path fill="#248814" d="M141-36C126-15 110 5 73 4 37 3 15-17 15-53c-1-64 63-63 125-63 3-35-9-54-41-54-24 1-41 7-42 31l-33-3c5-37 33-52 76-52 45 0 72 20 72 64v82c-1 20 7 32 28 27v20c-31 9-61-2-59-35zM48-53c0 20 12 33 32 33 41-3 63-29 60-74-43 2-92-5-92 41" id="aw"/><path fill="#248814" d="M210-169c-67 3-38 105-44 169h-31v-121c0-29-5-50-35-48C34-165 62-65 56 0H25l-1-190h30c1 10-1 24 2 32 10-44 99-50 107 0 11-21 27-35 58-36 85-2 47 119 55 194h-31v-121c0-29-5-49-35-48" id="ax"/><path fill="#248814" d="M84 4C-5 8 30-112 23-190h32v120c0 31 7 50 39 49 72-2 45-101 50-169h31l1 190h-30c-1-10 1-25-2-33-11 22-28 36-60 37" id="ay"/><path fill="#248814" d="M100-194c63 0 86 42 84 106H49c0 40 14 67 53 68 26 1 43-12 49-29l28 8c-11 28-37 45-77 45C44 4 14-33 15-96c1-61 26-98 85-98zm52 81c6-60-76-77-97-28-3 7-6 17-6 28h103" id="az"/><path fill="#248814" d="M24 0v-261h32V0H24" id="aA"/><g id="h"><use transform="matrix(0.08086419753086417,0,0,0.08086419753086417,0,0)" xlink:href="#av"/><use transform="matrix(0.08086419753086417,0,0,0.08086419753086417,19.4074074074074,0)" xlink:href="#aw"/><use transform="matrix(0.08086419753086417,0,0,0.08086419753086417,35.58024691358024,0)" xlink:href="#ax"/><use transform="matrix(0.08086419753086417,0,0,0.08086419753086417,59.758641975308635,0)" xlink:href="#ay"/><use transform="matrix(0.08086419753086417,0,0,0.08086419753086417,75.93148148148146,0)" xlink:href="#az"/><use transform="matrix(0.08086419753086417,0,0,0.08086419753086417,92.10432098765429,0)" xlink:href="#aA"/></g><path fill="#248814" d="M205 0l-28-72H64L36 0H1l101-248h38L239 0h-34zm-38-99l-47-123c-12 45-31 82-46 123h93" id="aB"/><path fill="#248814" d="M114-163C36-179 61-72 57 0H25l-1-190h30c1 12-1 29 2 39 6-27 23-49 58-41v29" id="aC"/><path fill="#248814" d="M117-194c89-4 53 116 60 194h-32v-121c0-31-8-49-39-48C34-167 62-67 57 0H25l-1-190h30c1 10-1 24 2 32 11-22 29-35 61-36" id="aD"/><path fill="#248814" d="M59-47c-2 24 18 29 38 22v24C64 9 27 4 27-40v-127H5v-23h24l9-43h21v43h35v23H59v120" id="aE"/><g id="i"><use transform="matrix(0.08086419753086417,0,0,0.08086419753086417,0,0)" xlink:href="#aB"/><use transform="matrix(0.08086419753086417,0,0,0.08086419753086417,19.4074074074074,0)" xlink:href="#aC"/><use transform="matrix(0.08086419753086417,0,0,0.08086419753086417,29.03024691358024,0)" xlink:href="#aw"/><use transform="matrix(0.08086419753086417,0,0,0.08086419753086417,45.20308641975307,0)" xlink:href="#aD"/><use transform="matrix(0.08086419753086417,0,0,0.08086419753086417,61.375925925925905,0)" xlink:href="#aE"/></g><path fill="#248814" d="M137 0h-34L2-248h35l83 218 83-218h36" id="aF"/><path fill="#248814" d="M30-248c87 1 191-15 191 75 0 78-77 80-158 76V0H30v-248zm33 125c57 0 124 11 124-50 0-59-68-47-124-48v98" id="aG"/><path fill="#248814" d="M212-179c-10-28-35-45-73-45-59 0-87 40-87 99 0 60 29 101 89 101 43 0 62-24 78-52l27 14C228-24 195 4 139 4 59 4 22-46 18-125c-6-104 99-153 187-111 19 9 31 26 39 46" id="aH"/><g id="j"><use transform="matrix(0.08086419753086417,0,0,0.08086419753086417,0,0)" xlink:href="#aF"/><use transform="matrix(0.08086419753086417,0,0,0.08086419753086417,19.4074074074074,0)" xlink:href="#aG"/><use transform="matrix(0.08086419753086417,0,0,0.08086419753086417,38.8148148148148,0)" xlink:href="#aH"/></g><path fill="#d86613" d="M30 0v-248h187v28H63v79h144v27H63v87h162V0H30" id="aI"/><path fill="#d86613" d="M212-179c-10-28-35-45-73-45-59 0-87 40-87 99 0 60 29 101 89 101 43 0 62-24 78-52l27 14C228-24 195 4 139 4 59 4 22-46 18-125c-6-104 99-153 187-111 19 9 31 26 39 46" id="aJ"/><path fill="#d86613" d="M185-189c-5-48-123-54-124 2 14 75 158 14 163 119 3 78-121 87-175 55-17-10-28-26-33-46l33-7c5 56 141 63 141-1 0-78-155-14-162-118-5-82 145-84 179-34 5 7 8 16 11 25" id="aK"/><g id="k"><use transform="matrix(0.056172839506172835,0,0,0.056172839506172835,0,0)" xlink:href="#aI"/><use transform="matrix(0.056172839506172835,0,0,0.056172839506172835,13.481481481481481,0)" xlink:href="#aJ"/><use transform="matrix(0.056172839506172835,0,0,0.056172839506172835,28.030246913580243,0)" xlink:href="#aK"/></g><path fill="#d86613" d="M101-251c82-7 93 87 43 132L82-64C71-53 59-42 53-27h129V0H18c2-99 128-94 128-182 0-28-16-43-45-43s-46 15-49 41l-32-3c6-41 34-60 81-64" id="aL"/><g id="l"><use transform="matrix(0.056172839506172835,0,0,0.056172839506172835,0,0)" xlink:href="#aI"/><use transform="matrix(0.056172839506172835,0,0,0.056172839506172835,13.481481481481481,0)" xlink:href="#aJ"/><use transform="matrix(0.056172839506172835,0,0,0.056172839506172835,28.030246913580243,0)" xlink:href="#aL"/></g><path fill="#d86613" d="M100-194c62-1 85 37 85 99 1 63-27 99-86 99S16-35 15-95c0-66 28-99 85-99zM99-20c44 1 53-31 53-75 0-43-8-75-51-75s-53 32-53 75 10 74 51 75" id="aM"/><path fill="#d86613" d="M117-194c89-4 53 116 60 194h-32v-121c0-31-8-49-39-48C34-167 62-67 57 0H25l-1-190h30c1 10-1 24 2 32 11-22 29-35 61-36" id="aN"/><path fill="#d86613" d="M59-47c-2 24 18 29 38 22v24C64 9 27 4 27-40v-127H5v-23h24l9-43h21v43h35v23H59v120" id="aO"/><path fill="#d86613" d="M141-36C126-15 110 5 73 4 37 3 15-17 15-53c-1-64 63-63 125-63 3-35-9-54-41-54-24 1-41 7-42 31l-33-3c5-37 33-52 76-52 45 0 72 20 72 64v82c-1 20 7 32 28 27v20c-31 9-61-2-59-35zM48-53c0 20 12 33 32 33 41-3 63-29 60-74-43 2-92-5-92 41" id="aP"/><path fill="#d86613" d="M24-231v-30h32v30H24zM24 0v-190h32V0H24" id="aQ"/><path fill="#d86613" d="M100-194c63 0 86 42 84 106H49c0 40 14 67 53 68 26 1 43-12 49-29l28 8c-11 28-37 45-77 45C44 4 14-33 15-96c1-61 26-98 85-98zm52 81c6-60-76-77-97-28-3 7-6 17-6 28h103" id="aR"/><path fill="#d86613" d="M114-163C36-179 61-72 57 0H25l-1-190h30c1 12-1 29 2 39 6-27 23-49 58-41v29" id="aS"/><g id="m"><use transform="matrix(0.056172839506172835,0,0,0.056172839506172835,0,0)" xlink:href="#aJ"/><use transform="matrix(0.056172839506172835,0,0,0.056172839506172835,14.548765432098763,0)" xlink:href="#aM"/><use transform="matrix(0.056172839506172835,0,0,0.056172839506172835,25.78333333333333,0)" xlink:href="#aN"/><use transform="matrix(0.056172839506172835,0,0,0.056172839506172835,37.0179012345679,0)" xlink:href="#aO"/><use transform="matrix(0.056172839506172835,0,0,0.056172839506172835,42.635185185185186,0)" xlink:href="#aP"/><use transform="matrix(0.056172839506172835,0,0,0.056172839506172835,53.86975308641975,0)" xlink:href="#aQ"/><use transform="matrix(0.056172839506172835,0,0,0.056172839506172835,58.3074074074074,0)" xlink:href="#aN"/><use transform="matrix(0.056172839506172835,0,0,0.056172839506172835,69.54197530864197,0)" xlink:href="#aR"/><use transform="matrix(0.056172839506172835,0,0,0.056172839506172835,80.77654320987654,0)" xlink:href="#aS"/></g><path fill="#d86613" d="M24 0v-261h32V0H24" id="aT"/><path fill="#d86613" d="M84 4C-5 8 30-112 23-190h32v120c0 31 7 50 39 49 72-2 45-101 50-169h31l1 190h-30c-1-10 1-25-2-33-11 22-28 36-60 37" id="aU"/><path fill="#d86613" d="M135-143c-3-34-86-38-87 0 15 53 115 12 119 90S17 21 10-45l28-5c4 36 97 45 98 0-10-56-113-15-118-90-4-57 82-63 122-42 12 7 21 19 24 35" id="aV"/><g id="n"><use transform="matrix(0.056172839506172835,0,0,0.056172839506172835,0,0)" xlink:href="#aJ"/><use transform="matrix(0.056172839506172835,0,0,0.056172839506172835,14.548765432098763,0)" xlink:href="#aT"/><use transform="matrix(0.056172839506172835,0,0,0.056172839506172835,18.986419753086416,0)" xlink:href="#aU"/><use transform="matrix(0.056172839506172835,0,0,0.056172839506172835,30.220987654320986,0)" xlink:href="#aV"/><use transform="matrix(0.056172839506172835,0,0,0.056172839506172835,40.33209876543209,0)" xlink:href="#aO"/><use transform="matrix(0.056172839506172835,0,0,0.056172839506172835,45.94938271604938,0)" xlink:href="#aR"/><use transform="matrix(0.056172839506172835,0,0,0.056172839506172835,57.18395061728394,0)" xlink:href="#aS"/></g><path d="M30 0v-248h33v221h125V0H30" id="aW"/><path d="M100-194c62-1 85 37 85 99 1 63-27 99-86 99S16-35 15-95c0-66 28-99 85-99zM99-20c44 1 53-31 53-75 0-43-8-75-51-75s-53 32-53 75 10 74 51 75" id="aX"/><path d="M141-36C126-15 110 5 73 4 37 3 15-17 15-53c-1-64 63-63 125-63 3-35-9-54-41-54-24 1-41 7-42 31l-33-3c5-37 33-52 76-52 45 0 72 20 72 64v82c-1 20 7 32 28 27v20c-31 9-61-2-59-35zM48-53c0 20 12 33 32 33 41-3 63-29 60-74-43 2-92-5-92 41" id="aY"/><path d="M85-194c31 0 48 13 60 33l-1-100h32l1 261h-30c-2-10 0-23-3-31C134-8 116 4 85 4 32 4 16-35 15-94c0-66 23-100 70-100zm9 24c-40 0-46 34-46 75 0 40 6 74 45 74 42 0 51-32 51-76 0-42-9-74-50-73" id="aZ"/><g id="o"><use transform="matrix(0.06234567901234567,0,0,0.06234567901234567,0,0)" xlink:href="#aW"/><use transform="matrix(0.06234567901234567,0,0,0.06234567901234567,12.469135802469133,0)" xlink:href="#aX"/><use transform="matrix(0.06234567901234567,0,0,0.06234567901234567,24.938271604938265,0)" xlink:href="#aY"/><use transform="matrix(0.06234567901234567,0,0,0.06234567901234567,37.4074074074074,0)" xlink:href="#aZ"/></g><path d="M160-131c35 5 61 23 61 61C221 17 115-2 30 0v-248c76 3 177-17 177 60 0 33-19 50-47 57zm-97-11c50-1 110 9 110-42 0-47-63-36-110-37v79zm0 115c55-2 124 14 124-45 0-56-70-42-124-44v89" id="ba"/><path d="M24 0v-261h32V0H24" id="bb"/><path d="M117-194c89-4 53 116 60 194h-32v-121c0-31-8-49-39-48C34-167 62-67 57 0H25l-1-190h30c1 10-1 24 2 32 11-22 29-35 61-36" id="bc"/><path d="M96-169c-40 0-48 33-48 73s9 75 48 75c24 0 41-14 43-38l32 2c-6 37-31 61-74 61-59 0-76-41-82-99-10-93 101-131 147-64 4 7 5 14 7 22l-32 3c-4-21-16-35-41-35" id="bd"/><path d="M100-194c63 0 86 42 84 106H49c0 40 14 67 53 68 26 1 43-12 49-29l28 8c-11 28-37 45-77 45C44 4 14-33 15-96c1-61 26-98 85-98zm52 81c6-60-76-77-97-28-3 7-6 17-6 28h103" id="be"/><path d="M114-163C36-179 61-72 57 0H25l-1-190h30c1 12-1 29 2 39 6-27 23-49 58-41v29" id="bf"/><g id="p"><use transform="matrix(0.06234567901234567,0,0,0.06234567901234567,0,0)" xlink:href="#ba"/><use transform="matrix(0.06234567901234567,0,0,0.06234567901234567,14.96296296296296,0)" xlink:href="#aY"/><use transform="matrix(0.06234567901234567,0,0,0.06234567901234567,27.432098765432094,0)" xlink:href="#bb"/><use transform="matrix(0.06234567901234567,0,0,0.06234567901234567,32.3574074074074,0)" xlink:href="#aY"/><use transform="matrix(0.06234567901234567,0,0,0.06234567901234567,44.82654320987653,0)" xlink:href="#bc"/><use transform="matrix(0.06234567901234567,0,0,0.06234567901234567,57.295679012345666,0)" xlink:href="#bd"/><use transform="matrix(0.06234567901234567,0,0,0.06234567901234567,68.51790123456789,0)" xlink:href="#be"/><use transform="matrix(0.06234567901234567,0,0,0.06234567901234567,80.98703703703703,0)" xlink:href="#bf"/></g><linearGradient gradientUnits="userSpaceOnUse" id="q" x1="-114" y1="-400.56" x2="6" y2="-520.56"><stop offset="0%" stop-color="#4d27a8"/><stop offset="100%" stop-color="#a166ff"/></linearGradient><path d="M30-248c118-7 216 8 213 122C240-48 200 0 122 0H30v-248zM63-27c89 8 146-16 146-99s-60-101-146-95v194" id="bg"/><path d="M190 0L58-211 59 0H30v-248h39L202-35l-2-213h31V0h-41" id="bh"/><path d="M185-189c-5-48-123-54-124 2 14 75 158 14 163 119 3 78-121 87-175 55-17-10-28-26-33-46l33-7c5 56 141 63 141-1 0-78-155-14-162-118-5-82 145-84 179-34 5 7 8 16 11 25" id="bi"/><g id="r"><use transform="matrix(0.06234567901234567,0,0,0.06234567901234567,0,0)" xlink:href="#bg"/><use transform="matrix(0.06234567901234567,0,0,0.06234567901234567,16.147530864197527,0)" xlink:href="#bh"/><use transform="matrix(0.06234567901234567,0,0,0.06234567901234567,32.295061728395055,0)" xlink:href="#bi"/></g><path fill="#3a414a" d="M205 0l-28-72H64L36 0H1l101-248h38L239 0h-34zm-38-99l-47-123c-12 45-31 82-46 123h93" id="bj"/><path fill="#3a414a" d="M84 4C-5 8 30-112 23-190h32v120c0 31 7 50 39 49 72-2 45-101 50-169h31l1 190h-30c-1-10 1-25-2-33-11 22-28 36-60 37" id="bk"/><path fill="#3a414a" d="M59-47c-2 24 18 29 38 22v24C64 9 27 4 27-40v-127H5v-23h24l9-43h21v43h35v23H59v120" id="bl"/><path fill="#3a414a" d="M106-169C34-169 62-67 57 0H25v-261h32l-1 103c12-21 28-36 61-36 89 0 53 116 60 194h-32v-121c2-32-8-49-39-48" id="bm"/><path fill="#3a414a" d="M100-194c63 0 86 42 84 106H49c0 40 14 67 53 68 26 1 43-12 49-29l28 8c-11 28-37 45-77 45C44 4 14-33 15-96c1-61 26-98 85-98zm52 81c6-60-76-77-97-28-3 7-6 17-6 28h103" id="bn"/><path fill="#3a414a" d="M117-194c89-4 53 116 60 194h-32v-121c0-31-8-49-39-48C34-167 62-67 57 0H25l-1-190h30c1 10-1 24 2 32 11-22 29-35 61-36" id="bo"/><path fill="#3a414a" d="M24-231v-30h32v30H24zM24 0v-190h32V0H24" id="bp"/><path fill="#3a414a" d="M96-169c-40 0-48 33-48 73s9 75 48 75c24 0 41-14 43-38l32 2c-6 37-31 61-74 61-59 0-76-41-82-99-10-93 101-131 147-64 4 7 5 14 7 22l-32 3c-4-21-16-35-41-35" id="bq"/><path fill="#3a414a" d="M141-36C126-15 110 5 73 4 37 3 15-17 15-53c-1-64 63-63 125-63 3-35-9-54-41-54-24 1-41 7-42 31l-33-3c5-37 33-52 76-52 45 0 72 20 72 64v82c-1 20 7 32 28 27v20c-31 9-61-2-59-35zM48-53c0 20 12 33 32 33 41-3 63-29 60-74-43 2-92-5-92 41" id="br"/><path fill="#3a414a" d="M100-194c62-1 85 37 85 99 1 63-27 99-86 99S16-35 15-95c0-66 28-99 85-99zM99-20c44 1 53-31 53-75 0-43-8-75-51-75s-53 32-53 75 10 74 51 75" id="bs"/><g id="s"><use transform="matrix(0.06790123456790122,0,0,0.06790123456790122,0,0)" xlink:href="#bj"/><use transform="matrix(0.06790123456790122,0,0,0.06790123456790122,16.29629629629629,0)" xlink:href="#bk"/><use transform="matrix(0.06790123456790122,0,0,0.06790123456790122,29.876543209876534,0)" xlink:href="#bl"/><use transform="matrix(0.06790123456790122,0,0,0.06790123456790122,36.66666666666666,0)" xlink:href="#bm"/><use transform="matrix(0.06790123456790122,0,0,0.06790123456790122,50.246913580246904,0)" xlink:href="#bn"/><use transform="matrix(0.06790123456790122,0,0,0.06790123456790122,63.82716049382714,0)" xlink:href="#bo"/><use transform="matrix(0.06790123456790122,0,0,0.06790123456790122,77.40740740740738,0)" xlink:href="#bl"/><use transform="matrix(0.06790123456790122,0,0,0.06790123456790122,84.1975308641975,0)" xlink:href="#bp"/><use transform="matrix(0.06790123456790122,0,0,0.06790123456790122,89.56172839506169,0)" xlink:href="#bq"/><use transform="matrix(0.06790123456790122,0,0,0.06790123456790122,101.7839506172839,0)" xlink:href="#br"/><use transform="matrix(0.06790123456790122,0,0,0.06790123456790122,115.36419753086415,0)" xlink:href="#bl"/><use transform="matrix(0.06790123456790122,0,0,0.06790123456790122,122.15432098765427,0)" xlink:href="#bp"/><use transform="matrix(0.06790123456790122,0,0,0.06790123456790122,127.51851851851848,0)" xlink:href="#bs"/><use transform="matrix(0.06790123456790122,0,0,0.06790123456790122,141.09876543209873,0)" xlink:href="#bo"/></g><linearGradient gradientUnits="userSpaceOnUse" id="t" x1="809" y1="-1022" x2="929" y2="-1142"><stop offset="0%" stop-color="#b0084d"/><stop offset="100%" stop-color="#ff4f8b"/></linearGradient><path fill="#3a414a" d="M185-189c-5-48-123-54-124 2 14 75 158 14 163 119 3 78-121 87-175 55-17-10-28-26-33-46l33-7c5 56 141 63 141-1 0-78-155-14-162-118-5-82 145-84 179-34 5 7 8 16 11 25" id="bt"/><path fill="#3a414a" d="M114-163C36-179 61-72 57 0H25l-1-190h30c1 12-1 29 2 39 6-27 23-49 58-41v29" id="bu"/><path fill="#3a414a" d="M108 0H70L1-190h34L89-25l56-165h34" id="bv"/><path fill="#3a414a" d="M24 0v-261h32V0H24" id="bw"/><path fill="#3a414a" d="M135-143c-3-34-86-38-87 0 15 53 115 12 119 90S17 21 10-45l28-5c4 36 97 45 98 0-10-56-113-15-118-90-4-57 82-63 122-42 12 7 21 19 24 35" id="bx"/><g id="u"><use transform="matrix(0.07407407407407407,0,0,0.07407407407407407,0,0)" xlink:href="#bt"/><use transform="matrix(0.07407407407407407,0,0,0.07407407407407407,17.77777777777778,0)" xlink:href="#bn"/><use transform="matrix(0.07407407407407407,0,0,0.07407407407407407,32.592592592592595,0)" xlink:href="#bu"/><use transform="matrix(0.07407407407407407,0,0,0.07407407407407407,41.40740740740741,0)" xlink:href="#bv"/><use transform="matrix(0.07407407407407407,0,0,0.07407407407407407,54.74074074074075,0)" xlink:href="#bn"/><use transform="matrix(0.07407407407407407,0,0,0.07407407407407407,69.55555555555556,0)" xlink:href="#bu"/><use transform="matrix(0.07407407407407407,0,0,0.07407407407407407,78.37037037037037,0)" xlink:href="#bw"/><use transform="matrix(0.07407407407407407,0,0,0.07407407407407407,84.22222222222221,0)" xlink:href="#bn"/><use transform="matrix(0.07407407407407407,0,0,0.07407407407407407,99.03703703703704,0)" xlink:href="#bx"/><use transform="matrix(0.07407407407407407,0,0,0.07407407407407407,112.37037037037035,0)" xlink:href="#bx"/></g><path fill="#3a414a" d="M212-179c-10-28-35-45-73-45-59 0-87 40-87 99 0 60 29 101 89 101 43 0 62-24 78-52l27 14C228-24 195 4 139 4 59 4 22-46 18-125c-6-104 99-153 187-111 19 9 31 26 39 46" id="by"/><g id="v"><use transform="matrix(0.07407407407407407,0,0,0.07407407407407407,0,0)" xlink:href="#by"/><use transform="matrix(0.07407407407407407,0,0,0.07407407407407407,19.185185185185183,0)" xlink:href="#br"/><use transform="matrix(0.07407407407407407,0,0,0.07407407407407407,34,0)" xlink:href="#bq"/><use transform="matrix(0.07407407407407407,0,0,0.07407407407407407,47.33333333333333,0)" xlink:href="#bm"/><use transform="matrix(0.07407407407407407,0,0,0.07407407407407407,62.14814814814814,0)" xlink:href="#bn"/></g><linearGradient gradientUnits="userSpaceOnUse" id="x" x1="-306" y1="-500.56" x2="-306" y2="-614.06"><stop offset="0%" stop-color="#32bedd"/><stop offset="17.5%" stop-color="#32caea"/><stop offset="41%" stop-color="#32d2f2"/><stop offset="77.5%" stop-color="#32d4f5"/></linearGradient><path fill="#3a414a" d="M30-248c87 1 191-15 191 75 0 78-77 80-158 76V0H30v-248zm33 125c57 0 124 11 124-50 0-59-68-47-124-48v98" id="bz"/><g id="y"><use transform="matrix(0.06172839506172839,0,0,0.06172839506172839,0,0)" xlink:href="#bz"/><use transform="matrix(0.06172839506172839,0,0,0.06172839506172839,14.814814814814813,0)" xlink:href="#bu"/><use transform="matrix(0.06172839506172839,0,0,0.06172839506172839,22.160493827160494,0)" xlink:href="#bs"/><use transform="matrix(0.06172839506172839,0,0,0.06172839506172839,34.50617283950617,0)" xlink:href="#bq"/><use transform="matrix(0.06172839506172839,0,0,0.06172839506172839,45.61728395061728,0)" xlink:href="#bn"/><use transform="matrix(0.06172839506172839,0,0,0.06172839506172839,57.962962962962955,0)" xlink:href="#bx"/><use transform="matrix(0.06172839506172839,0,0,0.06172839506172839,69.07407407407406,0)" xlink:href="#bx"/></g><path fill="#3a414a" d="M33 0v-248h34V0H33" id="bA"/><path fill="#3a414a" d="M210-169c-67 3-38 105-44 169h-31v-121c0-29-5-50-35-48C34-165 62-65 56 0H25l-1-190h30c1 10-1 24 2 32 10-44 99-50 107 0 11-21 27-35 58-36 85-2 47 119 55 194h-31v-121c0-29-5-49-35-48" id="bB"/><path fill="#3a414a" d="M177-190C167-65 218 103 67 71c-23-6-38-20-44-43l32-5c15 47 100 32 89-28v-30C133-14 115 1 83 1 29 1 15-40 15-95c0-56 16-97 71-98 29-1 48 16 59 35 1-10 0-23 2-32h30zM94-22c36 0 50-32 50-73 0-42-14-75-50-75-39 0-46 34-46 75s6 73 46 73" id="bC"/><g id="z"><use transform="matrix(0.06172839506172839,0,0,0.06172839506172839,0,0)" xlink:href="#bA"/><use transform="matrix(0.06172839506172839,0,0,0.06172839506172839,6.172839506172839,0)" xlink:href="#bB"/><use transform="matrix(0.06172839506172839,0,0,0.06172839506172839,24.629629629629626,0)" xlink:href="#br"/><use transform="matrix(0.06172839506172839,0,0,0.06172839506172839,36.9753086419753,0)" xlink:href="#bC"/><use transform="matrix(0.06172839506172839,0,0,0.06172839506172839,49.32098765432098,0)" xlink:href="#bn"/></g><path fill="#3a414a" d="M266 0h-40l-56-210L115 0H75L2-248h35L96-30l15-64 43-154h32l59 218 59-218h35" id="bD"/><path fill="#3a414a" d="M115-194c53 0 69 39 70 98 0 66-23 100-70 100C84 3 66-7 56-30L54 0H23l1-261h32v101c10-23 28-34 59-34zm-8 174c40 0 45-34 45-75 0-40-5-75-45-74-42 0-51 32-51 76 0 43 10 73 51 73" id="bE"/><path fill="#3a414a" d="M143 0L79-87 56-68V0H24v-261h32v163l83-92h37l-77 82L181 0h-38" id="bF"/><g id="A"><use transform="matrix(0.06172839506172839,0,0,0.06172839506172839,0,0)" xlink:href="#bD"/><use transform="matrix(0.06172839506172839,0,0,0.06172839506172839,20.493827160493826,0)" xlink:href="#bn"/><use transform="matrix(0.06172839506172839,0,0,0.06172839506172839,32.839506172839506,0)" xlink:href="#bE"/><use transform="matrix(0.06172839506172839,0,0,0.06172839506172839,45.18518518518518,0)" xlink:href="#bm"/><use transform="matrix(0.06172839506172839,0,0,0.06172839506172839,57.53086419753086,0)" xlink:href="#bs"/><use transform="matrix(0.06172839506172839,0,0,0.06172839506172839,69.87654320987654,0)" xlink:href="#bs"/><use transform="matrix(0.06172839506172839,0,0,0.06172839506172839,82.22222222222223,0)" xlink:href="#bF"/></g><path fill="#3a414a" d="M232-93c-1 65-40 97-104 97C67 4 28-28 28-90v-158h33c8 89-33 224 67 224 102 0 64-133 71-224h33v155" id="bG"/><path fill="#3a414a" d="M127-220V0H93v-220H8v-28h204v28h-85" id="bH"/><path fill="#3a414a" d="M0 4l72-265h28L28 4H0" id="bI"/><path fill="#3a414a" d="M115-194c55 1 70 41 70 98S169 2 115 4C84 4 66-9 55-30l1 105H24l-1-265h31l2 30c10-21 28-34 59-34zm-8 174c40 0 45-34 45-75s-6-73-45-74c-42 0-51 32-51 76 0 43 10 73 51 73" id="bJ"/><path fill="#3a414a" d="M85-194c31 0 48 13 60 33l-1-100h32l1 261h-30c-2-10 0-23-3-31C134-8 116 4 85 4 32 4 16-35 15-94c0-66 23-100 70-100zm9 24c-40 0-46 34-46 75 0 40 6 74 45 74 42 0 51-32 51-76 0-42-9-74-50-73" id="bK"/><g id="B"><use transform="matrix(0.06172839506172839,0,0,0.06172839506172839,0,0)" xlink:href="#bz"/><use transform="matrix(0.06172839506172839,0,0,0.06172839506172839,14.814814814814813,0)" xlink:href="#bG"/><use transform="matrix(0.06172839506172839,0,0,0.06172839506172839,30.80246913580247,0)" xlink:href="#bH"/><use transform="matrix(0.06172839506172839,0,0,0.06172839506172839,44.32098765432099,0)" xlink:href="#bI"/><use transform="matrix(0.06172839506172839,0,0,0.06172839506172839,50.49382716049383,0)" xlink:href="#bG"/><use transform="matrix(0.06172839506172839,0,0,0.06172839506172839,66.48148148148148,0)" xlink:href="#bJ"/><use transform="matrix(0.06172839506172839,0,0,0.06172839506172839,78.82716049382717,0)" xlink:href="#bw"/><use transform="matrix(0.06172839506172839,0,0,0.06172839506172839,83.70370370370371,0)" xlink:href="#bs"/><use transform="matrix(0.06172839506172839,0,0,0.06172839506172839,96.0493827160494,0)" xlink:href="#br"/><use transform="matrix(0.06172839506172839,0,0,0.06172839506172839,108.39506172839508,0)" xlink:href="#bK"/><use transform="matrix(0.06172839506172839,0,0,0.06172839506172839,120.74074074074076,0)" xlink:href="#bx"/></g><path fill="#3a414a" d="M160-131c35 5 61 23 61 61C221 17 115-2 30 0v-248c76 3 177-17 177 60 0 33-19 50-47 57zm-97-11c50-1 110 9 110-42 0-47-63-36-110-37v79zm0 115c55-2 124 14 124-45 0-56-70-42-124-44v89" id="bL"/><g id="C"><use transform="matrix(0.06172839506172839,0,0,0.06172839506172839,0,0)" xlink:href="#bL"/><use transform="matrix(0.06172839506172839,0,0,0.06172839506172839,14.814814814814813,0)" xlink:href="#bk"/><use transform="matrix(0.06172839506172839,0,0,0.06172839506172839,27.160493827160494,0)" xlink:href="#bq"/><use transform="matrix(0.06172839506172839,0,0,0.06172839506172839,38.27160493827161,0)" xlink:href="#bF"/><use transform="matrix(0.06172839506172839,0,0,0.06172839506172839,49.38271604938272,0)" xlink:href="#bn"/><use transform="matrix(0.06172839506172839,0,0,0.06172839506172839,61.7283950617284,0)" xlink:href="#bl"/></g><g id="D"><use transform="matrix(0.06172839506172839,0,0,0.06172839506172839,0,0)" xlink:href="#bz"/><use transform="matrix(0.06172839506172839,0,0,0.06172839506172839,14.814814814814813,0)" xlink:href="#bG"/><use transform="matrix(0.06172839506172839,0,0,0.06172839506172839,30.80246913580247,0)" xlink:href="#bH"/><use transform="matrix(0.06172839506172839,0,0,0.06172839506172839,44.32098765432099,0)" xlink:href="#bI"/><use transform="matrix(0.06172839506172839,0,0,0.06172839506172839,50.49382716049383,0)" xlink:href="#br"/><use transform="matrix(0.06172839506172839,0,0,0.06172839506172839,62.839506172839506,0)" xlink:href="#bv"/><use transform="matrix(0.06172839506172839,0,0,0.06172839506172839,73.95061728395062,0)" xlink:href="#br"/><use transform="matrix(0.06172839506172839,0,0,0.06172839506172839,86.2962962962963,0)" xlink:href="#bl"/><use transform="matrix(0.06172839506172839,0,0,0.06172839506172839,92.46913580246914,0)" xlink:href="#br"/><use transform="matrix(0.06172839506172839,0,0,0.06172839506172839,104.81481481481482,0)" xlink:href="#bu"/><use transform="matrix(0.06172839506172839,0,0,0.06172839506172839,112.16049382716051,0)" xlink:href="#bx"/></g><path fill="#3a414a" d="M169-182c-1-43-94-46-97-3 18 66 151 10 154 114 3 95-165 93-204 36-6-8-10-19-12-30l50-8c3 46 112 56 116 5-17-69-150-10-154-114-4-87 153-88 188-35 5 8 8 18 10 28" id="bM"/><path fill="#3a414a" d="M185-48c-13 30-37 53-82 52C43 2 14-33 14-96s30-98 90-98c62 0 83 45 84 108H66c0 31 8 55 39 56 18 0 30-7 34-22zm-45-69c5-46-57-63-70-21-2 6-4 13-4 21h74" id="bN"/><path fill="#3a414a" d="M135-150c-39-12-60 13-60 57V0H25l-1-190h47c2 13-1 29 3 40 6-28 27-53 61-41v41" id="bO"/><path fill="#3a414a" d="M128 0H69L1-190h53L99-40l48-150h52" id="bP"/><path fill="#3a414a" d="M25 0v-261h50V0H25" id="bQ"/><path fill="#3a414a" d="M137-138c1-29-70-34-71-4 15 46 118 7 119 86 1 83-164 76-172 9l43-7c4 19 20 25 44 25 33 8 57-30 24-41C81-84 22-81 20-136c-2-80 154-74 161-7" id="bR"/><g id="E"><use transform="matrix(0.08024691358024691,0,0,0.08024691358024691,0,0)" xlink:href="#bM"/><use transform="matrix(0.08024691358024691,0,0,0.08024691358024691,19.25925925925926,0)" xlink:href="#bN"/><use transform="matrix(0.08024691358024691,0,0,0.08024691358024691,35.308641975308646,0)" xlink:href="#bO"/><use transform="matrix(0.08024691358024691,0,0,0.08024691358024691,46.543209876543216,0)" xlink:href="#bP"/><use transform="matrix(0.08024691358024691,0,0,0.08024691358024691,62.592592592592595,0)" xlink:href="#bN"/><use transform="matrix(0.08024691358024691,0,0,0.08024691358024691,78.64197530864197,0)" xlink:href="#bO"/><use transform="matrix(0.08024691358024691,0,0,0.08024691358024691,89.87654320987654,0)" xlink:href="#bQ"/><use transform="matrix(0.08024691358024691,0,0,0.08024691358024691,97.90123456790124,0)" xlink:href="#bN"/><use transform="matrix(0.08024691358024691,0,0,0.08024691358024691,113.95061728395063,0)" xlink:href="#bR"/><use transform="matrix(0.08024691358024691,0,0,0.08024691358024691,130,0)" xlink:href="#bR"/></g><path fill="#3a414a" d="M199 0l-22-63H83L61 0H9l90-248h61L250 0h-51zm-33-102l-36-108c-10 38-24 72-36 108h72" id="bS"/><path fill="#3a414a" d="M133-34C117-15 103 5 69 4 32 3 11-16 11-54c-1-60 55-63 116-61 1-26-3-47-28-47-18 1-26 9-28 27l-52-2c7-38 36-58 82-57s74 22 75 68l1 82c-1 14 12 18 25 15v27c-30 8-71 5-69-32zm-48 3c29 0 43-24 42-57-32 0-66-3-65 30 0 17 8 27 23 27" id="bT"/><path fill="#3a414a" d="M115-3C79 11 28 4 28-45v-112H4v-33h27l15-45h31v45h36v33H77v99c-1 23 16 31 38 25v30" id="bU"/><g id="F"><use transform="matrix(0.08024691358024691,0,0,0.08024691358024691,0,0)" xlink:href="#bS"/><use transform="matrix(0.08024691358024691,0,0,0.08024691358024691,19.74074074074074,0)" xlink:href="#bP"/><use transform="matrix(0.08024691358024691,0,0,0.08024691358024691,35.79012345679013,0)" xlink:href="#bT"/><use transform="matrix(0.08024691358024691,0,0,0.08024691358024691,51.839506172839506,0)" xlink:href="#bU"/><use transform="matrix(0.08024691358024691,0,0,0.08024691358024691,61.388888888888886,0)" xlink:href="#bT"/><use transform="matrix(0.08024691358024691,0,0,0.08024691358024691,77.43827160493827,0)" xlink:href="#bO"/></g><path fill="#3a414a" d="M24-248c93 1 206-16 204 79-1 75-69 88-152 82V0H24v-248zm52 121c47 0 100 7 100-41 0-47-54-39-100-39v80" id="bV"/><path fill="#3a414a" d="M110-194c64 0 96 36 96 99 0 64-35 99-97 99-61 0-95-36-95-99 0-62 34-99 96-99zm-1 164c35 0 45-28 45-65 0-40-10-65-43-65-34 0-45 26-45 65 0 36 10 65 43 65" id="bW"/><path fill="#3a414a" d="M190-63c-7 42-38 67-86 67-59 0-84-38-90-98-12-110 154-137 174-36l-49 2c-2-19-15-32-35-32-30 0-35 28-38 64-6 74 65 87 74 30" id="bX"/><path fill="#3a414a" d="M25-224v-37h50v37H25zM25 0v-190h50V0H25" id="bY"/><path fill="#3a414a" d="M135-194c87-1 58 113 63 194h-50c-7-57 23-157-34-157-59 0-34 97-39 157H25l-1-190h47c2 12-1 28 3 38 12-26 28-41 61-42" id="bZ"/><path fill="#3a414a" d="M195-6C206 82 75 100 31 46c-4-6-6-13-8-21l49-6c3 16 16 24 34 25 40 0 42-37 40-79-11 22-30 35-61 35-53 0-70-43-70-97 0-56 18-96 73-97 30 0 46 14 59 34l2-30h47zm-90-29c32 0 41-27 41-63 0-35-9-62-40-62-32 0-39 29-40 63 0 36 9 62 39 62" id="ca"/><g id="G"><use transform="matrix(0.08024691358024691,0,0,0.08024691358024691,0,0)" xlink:href="#bV"/><use transform="matrix(0.08024691358024691,0,0,0.08024691358024691,19.25925925925926,0)" xlink:href="#bO"/><use transform="matrix(0.08024691358024691,0,0,0.08024691358024691,30.49382716049383,0)" xlink:href="#bW"/><use transform="matrix(0.08024691358024691,0,0,0.08024691358024691,48.0679012345679,0)" xlink:href="#bX"/><use transform="matrix(0.08024691358024691,0,0,0.08024691358024691,64.11728395061728,0)" xlink:href="#bN"/><use transform="matrix(0.08024691358024691,0,0,0.08024691358024691,80.16666666666666,0)" xlink:href="#bR"/><use transform="matrix(0.08024691358024691,0,0,0.08024691358024691,96.21604938271605,0)" xlink:href="#bR"/><use transform="matrix(0.08024691358024691,0,0,0.08024691358024691,112.2654320987654,0)" xlink:href="#bY"/><use transform="matrix(0.08024691358024691,0,0,0.08024691358024691,120.29012345679011,0)" xlink:href="#bZ"/><use transform="matrix(0.08024691358024691,0,0,0.08024691358024691,137.86419753086417,0)" xlink:href="#ca"/></g><path fill="#3a414a" d="M206 0h-36l-40-164L89 0H53L-1-190h32L70-26l43-164h34l41 164 42-164h31" id="cb"/><g id="H"><use transform="matrix(0.06172839506172839,0,0,0.06172839506172839,0,0)" xlink:href="#bL"/><use transform="matrix(0.06172839506172839,0,0,0.06172839506172839,14.814814814814813,0)" xlink:href="#bu"/><use transform="matrix(0.06172839506172839,0,0,0.06172839506172839,22.160493827160494,0)" xlink:href="#bs"/><use transform="matrix(0.06172839506172839,0,0,0.06172839506172839,34.50617283950617,0)" xlink:href="#cb"/><use transform="matrix(0.06172839506172839,0,0,0.06172839506172839,50.49382716049382,0)" xlink:href="#bx"/><use transform="matrix(0.06172839506172839,0,0,0.06172839506172839,61.60493827160494,0)" xlink:href="#bn"/><use transform="matrix(0.06172839506172839,0,0,0.06172839506172839,73.95061728395062,0)" xlink:href="#bu"/></g><path fill="#333" d="M24-248c93 1 206-16 204 79-1 75-69 88-152 82V0H24v-248zm52 121c47 0 100 7 100-41 0-47-54-39-100-39v80" id="cc"/><path fill="#333" d="M220-157c-53 9-28 100-34 157h-49v-107c1-27-5-49-29-50C55-147 81-57 75 0H25l-1-190h47c2 12-1 28 3 38 10-53 101-56 108 0 13-22 24-43 59-42 82 1 51 116 57 194h-49v-107c-1-25-5-48-29-50" id="cd"/><path fill="#333" d="M123 10C108 53 80 86 19 72V37c35 8 53-11 59-39L3-190h52l48 148c12-52 28-100 44-148h51" id="ce"/><g id="I"><use transform="matrix(0.06172839506172839,0,0,0.06172839506172839,0,0)" xlink:href="#cc"/><use transform="matrix(0.06172839506172839,0,0,0.06172839506172839,14.814814814814813,0)" xlink:href="#ac"/><use transform="matrix(0.06172839506172839,0,0,0.06172839506172839,23.456790123456788,0)" xlink:href="#ab"/><use transform="matrix(0.06172839506172839,0,0,0.06172839506172839,29.629629629629626,0)" xlink:href="#cd"/><use transform="matrix(0.06172839506172839,0,0,0.06172839506172839,49.38271604938271,0)" xlink:href="#ai"/><use transform="matrix(0.06172839506172839,0,0,0.06172839506172839,61.728395061728385,0)" xlink:href="#ac"/><use transform="matrix(0.06172839506172839,0,0,0.06172839506172839,70.37037037037035,0)" xlink:href="#ce"/></g><g id="J"><use transform="matrix(0.06172839506172839,0,0,0.06172839506172839,0,0)" xlink:href="#al"/><use transform="matrix(0.06172839506172839,0,0,0.06172839506172839,17.28395061728395,0)" xlink:href="#am"/><use transform="matrix(0.06172839506172839,0,0,0.06172839506172839,30.80246913580247,0)" xlink:href="#ad"/><use transform="matrix(0.06172839506172839,0,0,0.06172839506172839,43.148148148148145,0)" xlink:href="#ac"/><use transform="matrix(0.06172839506172839,0,0,0.06172839506172839,51.79012345679012,0)" xlink:href="#ab"/><use transform="matrix(0.06172839506172839,0,0,0.06172839506172839,57.96296296296296,0)" xlink:href="#ad"/><use transform="matrix(0.06172839506172839,0,0,0.06172839506172839,70.30864197530865,0)" xlink:href="#ah"/></g><g id="K"><use transform="matrix(0.06172839506172839,0,0,0.06172839506172839,0,0)" xlink:href="#bj"/><use transform="matrix(0.06172839506172839,0,0,0.06172839506172839,14.012345679012345,0)" xlink:href="#bD"/><use transform="matrix(0.06172839506172839,0,0,0.06172839506172839,34.938271604938265,0)" xlink:href="#bt"/></g><path fill="#3a414a" d="M179-190L93 31C79 59 56 82 12 73V49c39 6 53-20 64-50L1-190h34L92-34l54-156h33" id="cf"/><g id="L"><use transform="matrix(0.06172839506172839,0,0,0.06172839506172839,0,0)" xlink:href="#bj"/><use transform="matrix(0.06172839506172839,0,0,0.06172839506172839,14.814814814814813,0)" xlink:href="#bJ"/><use transform="matrix(0.06172839506172839,0,0,0.06172839506172839,27.160493827160494,0)" xlink:href="#bJ"/><use transform="matrix(0.06172839506172839,0,0,0.06172839506172839,39.50617283950617,0)" xlink:href="#bt"/><use transform="matrix(0.06172839506172839,0,0,0.06172839506172839,54.32098765432099,0)" xlink:href="#cf"/><use transform="matrix(0.06172839506172839,0,0,0.06172839506172839,65.4320987654321,0)" xlink:href="#bo"/><use transform="matrix(0.06172839506172839,0,0,0.06172839506172839,77.77777777777779,0)" xlink:href="#bq"/></g><path fill="#3a414a" d="M233-177c-1 41-23 64-60 70L243 0h-38l-65-103H63V0H30v-248c88 3 205-21 203 71zM63-129c60-2 137 13 137-47 0-61-80-42-137-45v92" id="cg"/><path fill="#3a414a" d="M30-248c118-7 216 8 213 122C240-48 200 0 122 0H30v-248zM63-27c89 8 146-16 146-99s-60-101-146-95v194" id="ch"/><g id="M"><use transform="matrix(0.06172839506172839,0,0,0.06172839506172839,0,0)" xlink:href="#cg"/><use transform="matrix(0.06172839506172839,0,0,0.06172839506172839,15.987654320987653,0)" xlink:href="#ch"/><use transform="matrix(0.06172839506172839,0,0,0.06172839506172839,31.975308641975307,0)" xlink:href="#bt"/></g><path fill="#3a414a" d="M9 0v-24l116-142H16v-24h144v24L44-24h123V0H9" id="ci"/><g id="N"><use transform="matrix(0.06172839506172839,0,0,0.06172839506172839,0,0)" xlink:href="#bj"/><use transform="matrix(0.06172839506172839,0,0,0.06172839506172839,14.814814814814813,0)" xlink:href="#bB"/><use transform="matrix(0.06172839506172839,0,0,0.06172839506172839,33.2716049382716,0)" xlink:href="#br"/><use transform="matrix(0.06172839506172839,0,0,0.06172839506172839,45.61728395061728,0)" xlink:href="#ci"/><use transform="matrix(0.06172839506172839,0,0,0.06172839506172839,56.72839506172839,0)" xlink:href="#bs"/><use transform="matrix(0.06172839506172839,0,0,0.06172839506172839,69.07407407407408,0)" xlink:href="#bo"/></g><g id="O"><use transform="matrix(0.06172839506172839,0,0,0.06172839506172839,0,0)" xlink:href="#ch"/><use transform="matrix(0.06172839506172839,0,0,0.06172839506172839,15.987654320987653,0)" xlink:href="#cf"/><use transform="matrix(0.06172839506172839,0,0,0.06172839506172839,27.098765432098766,0)" xlink:href="#bo"/><use transform="matrix(0.06172839506172839,0,0,0.06172839506172839,39.44444444444444,0)" xlink:href="#br"/><use transform="matrix(0.06172839506172839,0,0,0.06172839506172839,51.79012345679012,0)" xlink:href="#bB"/><use transform="matrix(0.06172839506172839,0,0,0.06172839506172839,70.24691358024691,0)" xlink:href="#bs"/><use transform="matrix(0.06172839506172839,0,0,0.06172839506172839,82.5925925925926,0)" xlink:href="#ch"/><use transform="matrix(0.06172839506172839,0,0,0.06172839506172839,98.58024691358025,0)" xlink:href="#bL"/></g><path fill="#333" d="M135-194c53 0 70 44 70 98 0 56-19 98-73 100-31 1-45-17-59-34 3 33 2 69 2 105H25l-1-265h48c2 10 0 23 3 31 11-24 29-35 60-35zM114-30c33 0 39-31 40-66 0-38-9-64-40-64-56 0-55 130 0 130" id="cj"/><path fill="#333" d="M24 0v-54h51V0H24" id="ck"/><g id="P"><use transform="matrix(0.04938271604938272,0,0,0.04938271604938272,0,0)" xlink:href="#ai"/><use transform="matrix(0.04938271604938272,0,0,0.04938271604938272,9.876543209876544,0)" xlink:href="#cj"/><use transform="matrix(0.04938271604938272,0,0,0.04938271604938272,20.69135802469136,0)" xlink:href="#cj"/><use transform="matrix(0.04938271604938272,0,0,0.04938271604938272,31.506172839506174,0)" xlink:href="#ck"/></g><g id="Q"><use transform="matrix(0.04938271604938272,0,0,0.04938271604938272,0,0)" xlink:href="#ai"/><use transform="matrix(0.04938271604938272,0,0,0.04938271604938272,9.876543209876544,0)" xlink:href="#cj"/><use transform="matrix(0.04938271604938272,0,0,0.04938271604938272,20.69135802469136,0)" xlink:href="#ab"/><use transform="matrix(0.04938271604938272,0,0,0.04938271604938272,25.629629629629633,0)" xlink:href="#ck"/></g><path fill="#333" d="M240-174c0 40-23 61-54 70L253 0h-59l-57-94H76V0H24v-248c93 4 217-23 216 74zM76-134c48-2 112 12 112-38 0-48-66-32-112-35v73" id="cl"/><path fill="#333" d="M24 0v-248h195v40H76v63h132v40H76v65h150V0H24" id="cm"/><path fill="#333" d="M169-182c-1-43-94-46-97-3 18 66 151 10 154 114 3 95-165 93-204 36-6-8-10-19-12-30l50-8c3 46 112 56 116 5-17-69-150-10-154-114-4-87 153-88 188-35 5 8 8 18 10 28" id="cn"/><path fill="#333" d="M136-208V0H84v-208H4v-40h212v40h-80" id="co"/><g id="R"><use transform="matrix(0.04938271604938272,0,0,0.04938271604938272,0,0)" xlink:href="#cl"/><use transform="matrix(0.04938271604938272,0,0,0.04938271604938272,12.790123456790125,0)" xlink:href="#cm"/><use transform="matrix(0.04938271604938272,0,0,0.04938271604938272,24.641975308641978,0)" xlink:href="#cn"/><use transform="matrix(0.04938271604938272,0,0,0.04938271604938272,36.49382716049383,0)" xlink:href="#co"/></g><path fill="#333" d="M199 0l-22-63H83L61 0H9l90-248h61L250 0h-51zm-33-102l-36-108c-10 38-24 72-36 108h72" id="cp"/><path fill="#333" d="M24 0v-248h52V0H24" id="cq"/><g id="S"><use transform="matrix(0.04938271604938272,0,0,0.04938271604938272,0,0)" xlink:href="#cp"/><use transform="matrix(0.04938271604938272,0,0,0.04938271604938272,12.790123456790125,0)" xlink:href="#cc"/><use transform="matrix(0.04938271604938272,0,0,0.04938271604938272,24.641975308641978,0)" xlink:href="#cq"/></g><path fill="#3a414a" d="M63-220v92h138v28H63V0H30v-248h175v28H63" id="cr"/><g id="T"><use transform="matrix(0.07407407407407407,0,0,0.07407407407407407,0,0)" xlink:href="#cr"/><use transform="matrix(0.07407407407407407,0,0,0.07407407407407407,16.22222222222222,0)" xlink:href="#bu"/><use transform="matrix(0.07407407407407407,0,0,0.07407407407407407,25.037037037037038,0)" xlink:href="#bs"/><use transform="matrix(0.07407407407407407,0,0,0.07407407407407407,39.85185185185185,0)" xlink:href="#bo"/><use transform="matrix(0.07407407407407407,0,0,0.07407407407407407,54.66666666666666,0)" xlink:href="#bl"/><use transform="matrix(0.07407407407407407,0,0,0.07407407407407407,62.07407407407406,0)" xlink:href="#bn"/><use transform="matrix(0.07407407407407407,0,0,0.07407407407407407,76.88888888888887,0)" xlink:href="#bo"/><use transform="matrix(0.07407407407407407,0,0,0.07407407407407407,91.70370370370368,0)" xlink:href="#bK"/></g><g id="U"><use transform="matrix(0.07407407407407407,0,0,0.07407407407407407,0,0)" xlink:href="#bL"/><use transform="matrix(0.07407407407407407,0,0,0.07407407407407407,17.77777777777778,0)" xlink:href="#br"/><use transform="matrix(0.07407407407407407,0,0,0.07407407407407407,32.592592592592595,0)" xlink:href="#bq"/><use transform="matrix(0.07407407407407407,0,0,0.07407407407407407,45.925925925925924,0)" xlink:href="#bF"/><use transform="matrix(0.07407407407407407,0,0,0.07407407407407407,59.25925925925925,0)" xlink:href="#bn"/><use transform="matrix(0.07407407407407407,0,0,0.07407407407407407,74.07407407407406,0)" xlink:href="#bo"/><use transform="matrix(0.07407407407407407,0,0,0.07407407407407407,88.88888888888887,0)" xlink:href="#bK"/></g><path fill="#333" d="M110-194c64 0 96 36 96 99 0 64-35 99-97 99-61 0-95-36-95-99 0-62 34-99 96-99zm-1 164c35 0 45-28 45-65 0-40-10-65-43-65-34 0-45 26-45 65 0 36 10 65 43 65" id="cs"/><g id="V"><use transform="matrix(0.06172839506172839,0,0,0.06172839506172839,0,0)" xlink:href="#cs"/><use transform="matrix(0.06172839506172839,0,0,0.06172839506172839,13.518518518518517,0)" xlink:href="#ac"/></g><g id="W"><use transform="matrix(0.06172839506172839,0,0,0.06172839506172839,0,0)" xlink:href="#aa"/><use transform="matrix(0.06172839506172839,0,0,0.06172839506172839,15.987654320987653,0)" xlink:href="#ag"/></g><path fill="#3a414a" d="M136-208V0H84v-208H4v-40h212v40h-80" id="ct"/><path fill="#3a414a" d="M114-157C55-157 80-60 75 0H25v-261h50l-1 109c12-26 28-41 61-42 86-1 58 113 63 194h-50c-7-57 23-157-34-157" id="cu"/><path fill="#3a414a" d="M88-194c31-1 46 15 58 34l-1-101h50l1 261h-48c-2-10 0-23-3-31C134-8 116 4 84 4 32 4 16-41 15-95c0-56 19-97 73-99zm17 164c33 0 40-30 41-66 1-37-9-64-41-64s-38 30-39 65c0 43 13 65 39 65" id="cv"/><g id="X"><use transform="matrix(0.08024691358024691,0,0,0.08024691358024691,0,0)" xlink:href="#ct"/><use transform="matrix(0.08024691358024691,0,0,0.08024691358024691,17.574074074074073,0)" xlink:href="#cu"/><use transform="matrix(0.08024691358024691,0,0,0.08024691358024691,35.148148148148145,0)" xlink:href="#bY"/><use transform="matrix(0.08024691358024691,0,0,0.08024691358024691,43.172839506172835,0)" xlink:href="#bO"/><use transform="matrix(0.08024691358024691,0,0,0.08024691358024691,54.407407407407405,0)" xlink:href="#cv"/></g><path fill="#3a414a" d="M123 10C108 53 80 86 19 72V37c35 8 53-11 59-39L3-190h52l48 148c12-52 28-100 44-148h51" id="cw"/><g id="Y"><use transform="matrix(0.08024691358024691,0,0,0.08024691358024691,0,0)" xlink:href="#bV"/><use transform="matrix(0.08024691358024691,0,0,0.08024691358024691,19.25925925925926,0)" xlink:href="#bT"/><use transform="matrix(0.08024691358024691,0,0,0.08024691358024691,35.308641975308646,0)" xlink:href="#bO"/><use transform="matrix(0.08024691358024691,0,0,0.08024691358024691,46.543209876543216,0)" xlink:href="#bU"/><use transform="matrix(0.08024691358024691,0,0,0.08024691358024691,56.092592592592595,0)" xlink:href="#cw"/></g><g id="Z"><use transform="matrix(0.08024691358024691,0,0,0.08024691358024691,0,0)" xlink:href="#bM"/><use transform="matrix(0.08024691358024691,0,0,0.08024691358024691,19.25925925925926,0)" xlink:href="#bN"/><use transform="matrix(0.08024691358024691,0,0,0.08024691358024691,35.308641975308646,0)" xlink:href="#bO"/><use transform="matrix(0.08024691358024691,0,0,0.08024691358024691,46.543209876543216,0)" xlink:href="#bP"/><use transform="matrix(0.08024691358024691,0,0,0.08024691358024691,62.592592592592595,0)" xlink:href="#bY"/><use transform="matrix(0.08024691358024691,0,0,0.08024691358024691,70.61728395061729,0)" xlink:href="#bX"/><use transform="matrix(0.08024691358024691,0,0,0.08024691358024691,86.66666666666669,0)" xlink:href="#bN"/><use transform="matrix(0.08024691358024691,0,0,0.08024691358024691,102.71604938271605,0)" xlink:href="#bR"/></g></defs></g></svg>