<svg xmlns="http://www.w3.org/2000/svg" xmlns:xlink="http://www.w3.org/1999/xlink" xmlns:lucid="lucid" width="1308.88" height="950.49"><g transform="translate(-3.9411854379198843 -3.941185437919785)" lucid:page-tab-id="0_0"><path d="M294.2 29.94a6 6 0 0 1 6-6h986.62a6 6 0 0 1 6 6v898.5a6 6 0 0 1-6 6H300.2a6 6 0 0 1-6-6z" stroke="#232f3e" fill="#fff" fill-opacity="0"/><path d="M294.2 23.94h56v56h-56v-56z" stroke="#fff" stroke-opacity="0" fill="#232f3e"/><path d="M312.43 49.8c-.05.5.04.88.16 1.35.1.38.28.7.48 1.07.04.1.1.2.1.33 0 .2-.14.36-.3.45l-.95.62c-.12.1-.24.13-.37.13-.16 0-.32-.07-.45-.2-.2-.22-.36-.43-.52-.7-.17-.26-.3-.54-.45-.87-1.1 1.37-2.63 2.1-4.4 2.06-1.15.06-2.13-.3-2.95-1.08-.78-.8-1.15-1.76-1.1-2.85-.05-1.22.4-2.27 1.34-3.07 1.07-.84 2.3-1.22 3.66-1.15.57 0 1.02.02 1.6.1.57.1 1.1.2 1.72.33v-1.08c.08-.9-.16-1.68-.7-2.38-.73-.56-1.56-.8-2.46-.7-.53 0-1.02.07-1.6.2-.57.14-1.03.3-1.6.5l-.5.2h-.24c-.2 0-.33-.16-.33-.45v-.76c0-.18.04-.33.12-.5.12-.16.24-.26.4-.33.66-.3 1.2-.5 1.9-.66.77-.2 1.47-.3 2.3-.28 1.47-.13 2.78.27 3.9 1.2.94 1.05 1.35 2.28 1.23 3.68zm-6.08 2.3c.57 0 1.07-.1 1.6-.3.57-.2 1.03-.48 1.44-.95.23-.28.4-.57.48-.94.12-.44.16-.83.16-1.28v-.68c-.53-.1-.94-.17-1.43-.2h-1.4c-.8-.08-1.55.12-2.2.58-.54.45-.8 1.04-.75 1.73-.04.6.13 1.15.54 1.6.44.37.97.5 1.55.44zm12 1.6c-.22 0-.42-.04-.6-.16-.15-.17-.23-.35-.3-.6l-3.5-11.5c-.05-.2-.1-.4-.13-.62 0-.24.13-.37.37-.37h1.47c.2 0 .37.03.57.14.17.17.25.36.3.58l2.5 9.97 2.38-9.94c0-.23.08-.43.3-.6.15-.1.36-.15.56-.13h1.2c.24-.02.4.02.6.14.17.2.25.37.3.6l2.34 9.95 2.54-10c.04-.22.17-.42.33-.6.15-.1.36-.15.56-.13h1.4c.17 0 .33.12.37.3V41.02s0 .2-.12.36l-3.6 11.52c-.05.22-.13.42-.3.6-.2.1-.36.14-.57.13h-1.27c-.25.03-.45-.03-.62-.16-.16-.17-.24-.37-.28-.6l-2.3-9.6-2.3 9.6c-.05.23-.13.43-.3.6-.2.12-.4.18-.6.15zm19.2.37c-.8 0-1.5-.07-2.3-.25-.65-.13-1.14-.3-1.72-.6-.2-.1-.37-.23-.45-.4-.08-.15-.12-.3-.12-.45v-.74c0-.3.12-.47.33-.47h.27l.37.16c.58.23 1.03.4 1.6.5.62.14 1.15.2 1.8.2.8.05 1.5-.1 2.2-.5.48-.3.77-.8.73-1.4.04-.4-.13-.76-.37-1.04-.45-.4-.95-.64-1.52-.8l-2.18-.67c-.94-.25-1.72-.73-2.38-1.5-.5-.65-.74-1.35-.74-2.18 0-.6.12-1.08.4-1.6.3-.5.63-.88 1.08-1.22.5-.38 1-.6 1.6-.77.66-.2 1.2-.27 1.9-.26.32-.03.6-.03.98 0l.98.16.82.24.66.25c.16.1.3.22.45.38.08.15.12.3.12.5v.7c0 .32-.12.47-.37.47-.2-.03-.37-.08-.57-.18-.94-.43-1.8-.62-2.88-.6-.7-.03-1.3.1-1.97.42-.5.3-.73.8-.7 1.35 0 .4.13.76.46 1.05.5.4.98.65 1.6.82l2.1.67c.94.25 1.68.72 2.3 1.45.48.63.7 1.3.7 2.1 0 .62-.13 1.16-.38 1.72-.3.55-.62.95-1.1 1.32-.5.38-1 .65-1.6.83-.75.24-1.4.34-2.14.36zM340.3 61.43c-5.6 3.8-11.36 5.57-18.15 5.55-8.54.05-15.82-2.73-22.16-8.45-.5-.4 0-1 .48-.67 7.08 4.05 14.03 5.9 22.2 5.9 6.1-.04 11.3-1.1 16.93-3.47.83-.36 1.53.54.7 1.13z" stroke="#fff" stroke-opacity="0" fill="#fff"/><path d="M342.37 59.14c-.65-.8-4.17-.38-5.75-.2-.48 0-.55-.36-.12-.66 2.8-1.98 7.42-1.4 8-.74.6.67-.14 5.28-2.78 7.5-.4.33-.78.13-.6-.3.54-1.52 1.87-4.83 1.25-5.6z" stroke="#fff" stroke-opacity="0" fill="#fff"/><use xlink:href="#a" transform="matrix(1,0,0,1,365.2019393216881,43.941185437919785) translate(0 14.4)"/><use xlink:href="#b" transform="matrix(1,0,0,1,365.2019393216881,43.941185437919785) translate(45.3 14.4)"/><path d="M123.94 230.56h120v67.24c0 2.28-1.8 4.06-3.96 4.06H127.9c-2.16 0-3.96-1.78-3.96-4.06v-67.24z" stroke="#000" stroke-opacity="0" fill="url(#c)"/><path d="M128.02 204.86h111.96c2.16 0 3.96 1.8 3.96 4.03v21.66h-120V208.9c0-2.24 1.8-4.04 3.96-4.04h.12z" stroke="#000" stroke-opacity="0" fill="#0078d4"/><path d="M142.16 212.54h83.68c1.32 0 2.02.68 2.02 2.03v6.33c0 1.34-.7 2.02-2.02 2.02h-83.68c-1.32 0-2.02-.67-2.02-2.02v-6.34c0-1.34.7-2.02 2.02-2.02z" stroke="#000" stroke-opacity="0" fill="#f2f2f2"/><path d="M511.94 193.36h120v120h-120v-120z" stroke="#fff" stroke-opacity="0" fill="#693cc5"/><path d="M589.55 291.78c-.36 0-.65-.15-.93-.3-.44-.32-.68-.78-.68-1.3v-73.63c0-.54.3-1.08.77-1.38.5-.3 1.1-.3 1.6-.08l20.82 10.2c.55.24.9.78.9 1.4v56.55c0 .77-.42 1.38-1.12 1.6l-20.8 6.93h-.55zm1.62-72.62v68.78l17.6-5.84v-54.4zM554.33 291.78h-.5l-20.8-6.92c-.68-.23-1.12-.92-1.1-1.6v-56.57c0-.62.35-1.16.9-1.4l20.8-10.2c.53-.24 1.1-.24 1.6.07.5.3.76.84.76 1.38v73.6c0 .55-.25 1-.68 1.32-.3.23-.6.3-1 .3zm-19.2-9.6l17.6 5.83v-68.84l-17.6 8.6z" stroke="#fff" stroke-opacity="0" fill="#fff"/><path d="M587.94 237.36h-4.8v-3.2h4.8zm-9.6 0h-4.8v-3.2h4.8zm-9.58 0h-4.8v-3.2h4.8zm-9.6 0h-4.82v-3.2h4.8zM587.94 272.56h-4.8v-3.2h4.8zm-9.6 0h-4.8v-3.2h4.8zm-9.58 0h-4.8v-3.2h4.8zm-9.6 0h-4.82v-3.2h4.8zM564.92 258.86l-6.02-5.13c-.67-.57-.75-1.6-.18-2.26.06-.06.1-.12.18-.18l6-5.14 2.08 2.43-4.58 3.96 4.58 3.9zM578.98 258.86l-2.08-2.42 4.57-3.88-4.6-3.9 2.1-2.5 6 5.12c.68.57.76 1.6.2 2.26l-.2.17z" stroke="#fff" stroke-opacity="0" fill="#fff"/><path d="M567.24 262.23l6.35-18.8 3.03 1.03-6.36 18.8-3.03-1.03z" stroke="#fff" stroke-opacity="0" stroke-width=".32" fill="#fff"/><use xlink:href="#d" transform="matrix(1,0,0,1,481.94118543795867,322.3583834062706) translate(25.21604938271605 17.77777777777778)"/><use xlink:href="#e" transform="matrix(1,0,0,1,481.94118543795867,322.3583834062706) translate(67.19135802469137 17.77777777777778)"/><path d="M1179.16 259.36c.35 1.56-.12 3-1.05 4.08-1.14 1.44-3 2.04-5.67 2.04-1.86 0-4.17-.36-6.96-.96l-4.76 35.04c-.1 3.48-3.23 6.36-9.15 8.76-2.32.84-5 1.68-8 2.4-7.54 1.68-16.6 2.64-25.75 2.64-16.36 0-42.35-3.72-42.8-13.8L1063.4 214l-.13-1.08v-.36c0-11.28 28.77-19.2 54.53-19.2 25.86 0 54.63 7.92 54.63 19.2v.36l-.12 1.08h.02l-4.76 34.8c7.42 4.2 11.02 7.44 11.6 10.56zm-23.9 39.72l4.88-36c-13-3.96-30.28-11.76-38.87-15.72-.8.36-1.73.72-2.78.72-3.03 0-5.46-2.52-5.46-5.52 0-3 2.43-5.4 5.45-5.4 3 0 5.56 2.4 5.56 5.4 7.54 3.6 24.24 11.16 36.77 15l4.87-36.24c-.7.48-1.4.84-2.2 1.2-.12.12-.35.12-.58.24-.7.36-1.4.6-2.1.96-.34.12-.57.24-.92.36-.8.24-1.62.48-2.43.84-.24 0-.35.12-.58.12-1.06.36-2.22.72-3.26.96-.35.12-.58.12-.93.24-.8.24-1.73.48-2.66.6-.35.12-.7.24-1.16.24l-3.13.72h-.58c-1.28.24-2.55.48-3.83.6-.35.12-.8.12-1.16.24l-3 .36c-.36 0-.83.12-1.17.12l-3.82.36h-.35l-4.17.36h-1.17c-1.05.12-2.1.12-3.25.12-.35 0-.82 0-1.16.12h-8.48c-.35-.12-.8-.12-1.16-.12-1.16 0-2.2 0-3.25-.12h-1.15l-4.17-.36h-.47l-3.7-.36c-.35 0-.8-.12-1.16-.12-1.05-.12-2.1-.24-3.02-.36-.35-.12-.8-.12-1.16-.24-1.27-.12-2.55-.36-3.82-.6-.24 0-.47 0-.6-.12-1.03-.12-2.07-.36-3.12-.6-.46 0-.8-.12-1.16-.24-.93-.12-1.74-.36-2.67-.6-.35-.12-.6-.12-.93-.24-1.05-.24-2.2-.6-3.25-.96-.23 0-.46-.12-.58-.12-.93-.36-1.63-.6-2.44-.84-.35-.12-.58-.24-.92-.36-.7-.36-1.4-.6-2.1-.96-.22-.12-.46-.12-.7-.24-.68-.36-1.38-.72-2.08-1.2l10.44 77.76c.12.12.12.24.12.36 0 2.52 14.04 8.52 37.24 8.52 8.7 0 17.4-.96 24.47-2.52 2.8-.72 5.22-1.44 7.3-2.16 4.53-1.8 5.58-3.48 5.58-3.84 0-.12 0-.24.1-.36zm-37.46-100.32c-28.54 0-48.6 8.88-49.07 13.68l.1.6c0 .12.13.36.25.48.1.12.1.36.23.48l.47.48c.12.12.23.36.46.48.12.12.47.36.7.48.12.24.35.36.46.48.34.24.7.36 1.04.6.23.12.35.24.7.36.34.24.7.36 1.15.6.23.12.46.24.8.36.47.24.94.48 1.4.6.35.12.7.24.93.36.58.24 1.16.48 1.74.6l1.04.36c.6.24 1.17.36 1.87.6.35.12.7.24 1.16.36.7.12 1.4.24 2.1.48.33.12.8.24 1.26.24.7.24 1.5.36 2.2.48l1.4.36 2.54.36c.46.12.93.24 1.4.24.92.12 1.85.24 2.66.36.58.12 1.04.24 1.62.24l2.9.36c.47 0 1.05.12 1.63.12.92.12 1.97.12 2.9.24.58 0 1.16.12 1.85.12 1.05.12 2.1.12 3.13.12.6.12 1.16.12 1.86.12 1.62 0 3.36.12 5.1.12 1.85 0 3.6-.12 5.22-.12.7 0 1.27 0 1.85-.12 1.05 0 2.1 0 3.13-.12.7 0 1.28-.12 1.86-.12 1.04-.12 1.97-.12 2.9-.24.58 0 1.16-.12 1.74-.12l2.78-.36c.58 0 1.05-.12 1.63-.24.93-.12 1.75-.24 2.56-.36.58 0 1.04-.12 1.62-.24.82-.12 1.63-.24 2.32-.36.58-.12 1.05-.24 1.5-.36.82-.12 1.52-.24 2.2-.48.48 0 .94-.12 1.4-.24.7-.24 1.4-.36 1.98-.48.46-.12.8-.36 1.28-.48.58-.12 1.15-.24 1.73-.48.46-.12.8-.24 1.15-.36.58-.24 1.05-.36 1.5-.6.48-.12.7-.24 1.06-.36.47-.24.93-.36 1.4-.6.35-.12.58-.24.93-.36.35-.24.7-.36 1.04-.6.35-.12.58-.24.8-.36.25-.24.6-.36.83-.6.23-.12.46-.24.7-.48.22-.12.45-.36.57-.48.23-.12.35-.36.46-.48l.47-.48c.12-.12.12-.36.23-.48.12-.12.23-.36.23-.48l.12-.6c-.46-4.8-20.53-13.68-49.18-13.68zm48.37 60.36c4.52 1.08 6.6.96 7.42.84-.47-.72-2.1-2.4-6.85-5.4z" stroke="#000" stroke-opacity="0" fill="#3f8624"/><use xlink:href="#f" transform="matrix(1,0,0,1,1033.2745187712922,322.3583834062706) translate(74.28395061728395 17.955555555555552)"/><use xlink:href="#g" transform="matrix(1,0,0,1,1033.2745187712922,322.3583834062706) translate(-17.86296296296294 44.888888888888886)"/><path d="M260.32 253.36h235.24" stroke="#3a414a" fill="none"/><path d="M245.56 253.36l14.26-4.64V258zM510.32 253.36L496.06 258v-9.28z" stroke="#3a414a" fill="#3a414a"/><path d="M648.33 253.36h119.23" stroke="#3a414a" fill="none"/><path d="M633.56 253.36l14.27-4.64V258zM782.32 253.36L768.06 258v-9.28z" stroke="#3a414a" fill="#3a414a"/><path d="M920.33 253.36h132" stroke="#3a414a" fill="none"/><path d="M905.56 253.36l14.27-4.64V258zM1067.1 253.36l-14.26 4.63v-9.28z" stroke="#3a414a" fill="#3a414a"/><path d="M334.6 98.85a6 6 0 0 1 6-6h913.34a6 6 0 0 1 6 6v51.33a6 6 0 0 1-6 6H340.6a6 6 0 0 1-6-6z" stroke="#fff" fill="#fff"/><use xlink:href="#h" transform="matrix(1,0,0,1,339.60785210462524,97.85070437297682) translate(12.166666666666686 31.27777777777778)"/><use xlink:href="#i" transform="matrix(1,0,0,1,339.60785210462524,97.85070437297682) translate(64.01851851851853 31.27777777777778)"/><use xlink:href="#j" transform="matrix(1,0,0,1,339.60785210462524,97.85070437297682) translate(88.70987654320989 31.27777777777778)"/><use xlink:href="#k" transform="matrix(1,0,0,1,339.60785210462524,97.85070437297682) translate(134.32716049382717 31.27777777777778)"/><use xlink:href="#l" transform="matrix(1,0,0,1,339.60785210462524,97.85070437297682) translate(213.21604938271605 31.27777777777778)"/><use xlink:href="#m" transform="matrix(1,0,0,1,339.60785210462524,97.85070437297682) translate(273.64814814814815 31.27777777777778)"/><use xlink:href="#n" transform="matrix(1,0,0,1,339.60785210462524,97.85070437297682) translate(383.3395061728395 31.27777777777778)"/><use xlink:href="#o" transform="matrix(1,0,0,1,339.60785210462524,97.85070437297682) translate(408.03086419753083 31.27777777777778)"/><use xlink:href="#p" transform="matrix(1,0,0,1,339.60785210462524,97.85070437297682) translate(501.79629629629625 31.27777777777778)"/><use xlink:href="#q" transform="matrix(1,0,0,1,339.60785210462524,97.85070437297682) translate(605.3765432098764 31.27777777777778)"/><use xlink:href="#r" transform="matrix(1,0,0,1,339.60785210462524,97.85070437297682) translate(653.5246913580247 31.27777777777778)"/><use xlink:href="#q" transform="matrix(1,0,0,1,339.60785210462524,97.85070437297682) translate(696.7345679012346 31.27777777777778)"/><use xlink:href="#s" transform="matrix(1,0,0,1,339.60785210462524,97.85070437297682) translate(744.8827160493827 31.27777777777778)"/><use xlink:href="#t" transform="matrix(1,0,0,1,339.60785210462524,97.85070437297682) translate(779.3271604938273 31.27777777777778)"/><use xlink:href="#n" transform="matrix(1,0,0,1,339.60785210462524,97.85070437297682) translate(855.6851851851852 31.27777777777778)"/><use xlink:href="#u" transform="matrix(1,0,0,1,339.60785210462524,97.85070437297682) translate(880.3765432098764 31.27777777777778)"/><path d="M312.87 392.85a6 6 0 0 1 6-6h873.07a6 6 0 0 1 6 6v78a6 6 0 0 1-6 6H318.87a6 6 0 0 1-6-6z" stroke="#fff" fill="#fff"/><use xlink:href="#h" transform="matrix(1,0,0,1,317.8686059883548,391.8507043729769) translate(24.512345679012356 30.27777777777778)"/><use xlink:href="#v" transform="matrix(1,0,0,1,317.8686059883548,391.8507043729769) translate(76.3641975308642 30.27777777777778)"/><use xlink:href="#j" transform="matrix(1,0,0,1,317.8686059883548,391.8507043729769) translate(101.05555555555556 30.27777777777778)"/><use xlink:href="#k" transform="matrix(1,0,0,1,317.8686059883548,391.8507043729769) translate(146.67283950617283 30.27777777777778)"/><use xlink:href="#l" transform="matrix(1,0,0,1,317.8686059883548,391.8507043729769) translate(225.56172839506172 30.27777777777778)"/><use xlink:href="#w" transform="matrix(1,0,0,1,317.8686059883548,391.8507043729769) translate(285.9938271604938 30.27777777777778)"/><use xlink:href="#x" transform="matrix(1,0,0,1,317.8686059883548,391.8507043729769) translate(395.68518518518516 30.27777777777778)"/><use xlink:href="#y" transform="matrix(1,0,0,1,317.8686059883548,391.8507043729769) translate(438.89506172839504 30.27777777777778)"/><use xlink:href="#z" transform="matrix(1,0,0,1,317.8686059883548,391.8507043729769) translate(475.68518518518516 30.27777777777778)"/><use xlink:href="#A" transform="matrix(1,0,0,1,317.8686059883548,391.8507043729769) translate(518.895061728395 30.27777777777778)"/><use xlink:href="#n" transform="matrix(1,0,0,1,317.8686059883548,391.8507043729769) translate(628.5246913580247 30.27777777777778)"/><use xlink:href="#B" transform="matrix(1,0,0,1,317.8686059883548,391.8507043729769) translate(653.216049382716 30.27777777777778)"/><use xlink:href="#C" transform="matrix(1,0,0,1,317.8686059883548,391.8507043729769) translate(693.8333333333334 30.27777777777778)"/><use xlink:href="#y" transform="matrix(1,0,0,1,317.8686059883548,391.8507043729769) translate(712.3518518518518 30.27777777777778)"/><use xlink:href="#D" transform="matrix(1,0,0,1,317.8686059883548,391.8507043729769) translate(749.1419753086419 30.27777777777778)"/><use xlink:href="#E" transform="matrix(1,0,0,1,317.8686059883548,391.8507043729769) translate(786.179012345679 30.27777777777778)"/><use xlink:href="#F" transform="matrix(1,0,0,1,317.8686059883548,391.8507043729769) translate(823.216049382716 30.27777777777778)"/><use xlink:href="#G" transform="matrix(1,0,0,1,317.8686059883548,391.8507043729769) translate(40.83950617283949 56.94444444444445)"/><use xlink:href="#H" transform="matrix(1,0,0,1,317.8686059883548,391.8507043729769) translate(106.20987654320986 56.94444444444445)"/><use xlink:href="#E" transform="matrix(1,0,0,1,317.8686059883548,391.8507043729769) translate(156.7037037037037 56.94444444444445)"/><use xlink:href="#I" transform="matrix(1,0,0,1,317.8686059883548,391.8507043729769) translate(193.74074074074073 56.94444444444445)"/><use xlink:href="#J" transform="matrix(1,0,0,1,317.8686059883548,391.8507043729769) translate(223.37037037037035 56.94444444444445)"/><use xlink:href="#r" transform="matrix(1,0,0,1,317.8686059883548,391.8507043729769) translate(294.9753086419753 56.94444444444445)"/><use xlink:href="#K" transform="matrix(1,0,0,1,317.8686059883548,391.8507043729769) translate(338.18518518518516 56.94444444444445)"/><use xlink:href="#L" transform="matrix(1,0,0,1,317.8686059883548,391.8507043729769) translate(397.3827160493827 56.94444444444445)"/><use xlink:href="#s" transform="matrix(1,0,0,1,317.8686059883548,391.8507043729769) translate(531.7037037037037 56.94444444444445)"/><use xlink:href="#M" transform="matrix(1,0,0,1,317.8686059883548,391.8507043729769) translate(566.1481481481482 56.94444444444445)"/><use xlink:href="#N" transform="matrix(1,0,0,1,317.8686059883548,391.8507043729769) translate(589.5432098765432 56.94444444444445)"/><use xlink:href="#I" transform="matrix(1,0,0,1,317.8686059883548,391.8507043729769) translate(740.0987654320987 56.94444444444445)"/><use xlink:href="#O" transform="matrix(1,0,0,1,317.8686059883548,391.8507043729769) translate(769.7283950617284 56.94444444444445)"/><path d="M334.6 674.36a6 6 0 0 1 6-6h604a6 6 0 0 1 6 6v50a6 6 0 0 1-6 6h-604a6 6 0 0 1-6-6z" stroke="#fff" fill="#fff"/><use xlink:href="#h" transform="matrix(1,0,0,1,339.6078521046253,673.3583834061928) translate(5.716049382716051 30.77777777777778)"/><use xlink:href="#P" transform="matrix(1,0,0,1,339.6078521046253,673.3583834061928) translate(57.5679012345679 30.77777777777778)"/><use xlink:href="#Q" transform="matrix(1,0,0,1,339.6078521046253,673.3583834061928) translate(88.4320987654321 30.77777777777778)"/><use xlink:href="#p" transform="matrix(1,0,0,1,339.6078521046253,673.3583834061928) translate(187.1358024691358 30.77777777777778)"/><use xlink:href="#R" transform="matrix(1,0,0,1,339.6078521046253,673.3583834061928) translate(290.71604938271605 30.77777777777778)"/><use xlink:href="#n" transform="matrix(1,0,0,1,339.6078521046253,673.3583834061928) translate(321.4567901234568 30.77777777777778)"/><use xlink:href="#S" transform="matrix(1,0,0,1,339.6078521046253,673.3583834061928) translate(346.14814814814815 30.77777777777778)"/><use xlink:href="#H" transform="matrix(1,0,0,1,339.6078521046253,673.3583834061928) translate(454.7283950617284 30.77777777777778)"/><use xlink:href="#I" transform="matrix(1,0,0,1,339.6078521046253,673.3583834061928) translate(505.22222222222223 30.77777777777778)"/><use xlink:href="#O" transform="matrix(1,0,0,1,339.6078521046253,673.3583834061928) translate(534.8518518518518 30.77777777777778)"/><path d="M511.94 461.86h125.33v120H511.94v-120z" stroke="#fff" stroke-opacity="0" fill="#693cc5"/><path d="M593 560.28c-.37 0-.68-.15-.98-.3-.45-.32-.7-.78-.7-1.32v-73.6c0-.55.3-1.1.8-1.4.5-.3 1.13-.3 1.66-.07l21.75 10.2c.57.24.93.78.93 1.4v56.55c.02.77-.43 1.38-1.16 1.6l-21.72 6.93H593zm1.7-72.62v68.78l18.36-5.84v-54.4zM556.2 560.28h-.5l-21.74-6.92c-.7-.23-1.16-.92-1.13-1.6v-56.57c0-.62.35-1.16.93-1.4l21.73-10.2c.54-.24 1.14-.24 1.67.07.5.3.78.84.78 1.38v73.6c0 .55-.25 1-.7 1.32-.3.23-.63.3-1.04.3zm-20.03-9.6l18.4 5.83v-68.84l-18.4 8.6z" stroke="#fff" stroke-opacity="0" fill="#fff"/><path d="M591.32 505.86h-5.02v-3.2h5.02zm-10.04 0h-5.02v-3.2h5.02zm-10 0h-5.02v-3.2h5.02zm-10.04 0h-5v-3.2h5zM591.32 541.06h-5.02v-3.2h5.02zm-10.04 0h-5.02v-3.2h5.02zm-10 0h-5.02v-3.2h5.02zm-10.04 0h-5v-3.2h5zM567.27 527.36l-6.28-5.13c-.7-.57-.8-1.6-.2-2.26.06-.07.12-.12.2-.18l6.25-5.14 2.18 2.43-4.78 3.96 4.78 3.9zM581.96 527.36l-2.17-2.42 4.76-3.88-4.8-3.9 2.18-2.5 6.28 5.12c.7.57.8 1.6.2 2.26l-.2.17z" stroke="#fff" stroke-opacity="0" fill="#fff"/><path d="M569.7 530.73l6.63-18.8 3.17 1.03-6.64 18.8-3.17-1.03z" stroke="#fff" stroke-opacity="0" stroke-width=".32" fill="#fff"/><g><use xlink:href="#d" transform="matrix(1,0,0,1,481.9411854379587,590.8583834062317) translate(28.21604938271605 17.77777777777778)"/><use xlink:href="#e" transform="matrix(1,0,0,1,481.9411854379587,590.8583834062317) translate(70.19135802469137 17.77777777777778)"/></g><path d="M783.94 461.86h120v120h-120v-120z" stroke="#000" stroke-opacity="0" fill="url(#T)"/><path d="M881.4 542.5c1.03 0 1.9.82 1.9 1.9v16.84c0 1.07-.87 1.9-1.9 1.9h-19.9c-.8 0-1.42-.4-1.74-1.07l-28.18-60.85h-11.73c-.55 0-1.02-.17-1.34-.58-.38-.33-.54-.82-.54-1.32v-16.84c0-1.08.87-1.9 1.9-1.9h24.95c.72 0 1.35.4 1.66 1.07l28.02 60.85zm-1.8 16.92v-13.2h-6.3c-.7 0-1.33-.42-1.65-1.08l-28.02-60.85h-21.97v13.2h11.1c.8 0 1.42.42 1.74 1.08l28.18 60.84zm-49.28-45.65l10.63 22.04c.24.5.24 1.08 0 1.58l-11.57 24.7c-.32.65-1.02 1.06-1.73 1.06h-21.18c-.63 0-1.26-.33-1.57-.9-.4-.5-.4-1.17-.16-1.83l22.2-46.63c.3-.66.94-1.08 1.65-1.08.78 0 1.4.4 1.72 1.07zm-3.86 45.65l10.7-22.78-8.5-17.75-19.28 40.52z" stroke="#000" stroke-opacity="0" fill="#fff"/><g><use xlink:href="#U" transform="matrix(1,0,0,1,753.9411854379587,590.8583834062317) translate(21.944444444444443 17.77777777777778)"/><use xlink:href="#V" transform="matrix(1,0,0,1,753.9411854379587,590.8583834062317) translate(77.87037037037035 17.77777777777778)"/></g><path d="M23.94 242.03a6 6 0 0 1 6-6h81.34a6 6 0 0 1 6 6v22.66a6 6 0 0 1-6 6H29.94a6 6 0 0 1-6-6z" stroke="#fff" fill="#fff"/><g><use xlink:href="#W" transform="matrix(1,0,0,1,28.941185437919884,241.02505007293723) translate(1.3518518518518476 19.34027777777778)"/></g><path d="M653.66 521.86h113.9" stroke="#000" fill="none"/><path d="M638.9 521.86l14.26-4.64v9.27zM782.32 521.86l-14.26 4.63v-9.28z" stroke="#000"/><path d="M920.33 521.86h317.6a6 6 0 0 0 6-6v-256.5a6 6 0 0 0-6-6h-47.43" stroke="#000" fill="none"/><path d="M905.56 521.86l14.27-4.64v9.27zM1175.73 253.36l14.27-4.64V258z" stroke="#000"/><path d="M183.94 204.36v-44.84a6 6 0 0 1 6-6h925.34a6 6 0 0 1 6 6v17.62" stroke="#000" fill="none"/><path d="M184.44 204.86h-1v-.5h1z" stroke="#000" stroke-width=".05"/><path d="M1121.28 191.9l-4.64-14.26h9.27z" stroke="#000"/><path d="M1184.5 806.52c.34 1.57-.12 3-1.05 4.1-1.16 1.42-3.02 2.02-5.7 2.02-1.84 0-4.16-.36-6.95-.96l-4.75 35.05c-.12 3.48-3.25 6.36-9.17 8.75-2.32.85-4.98 1.68-8 2.4-7.54 1.7-16.6 2.64-25.75 2.64-16.36 0-42.34-3.72-42.8-13.8l-11.6-85.56-.12-1.07v-.38c0-11.27 28.78-19.2 54.53-19.2 25.87 0 54.63 7.93 54.63 19.2v.37l-.1 1.06-4.77 34.8c7.42 4.2 11 7.44 11.6 10.56zm-23.9 39.73l4.87-36c-13-3.97-30.28-11.76-38.86-15.73-.8.37-1.73.73-2.78.73-3 0-5.45-2.52-5.45-5.52 0-3 2.44-5.4 5.45-5.4 3.02 0 5.57 2.4 5.57 5.4 7.53 3.6 24.24 11.15 36.76 15l4.88-36.25c-.7.5-1.4.85-2.2 1.2-.12.13-.36.13-.6.25-.68.36-1.38.6-2.08.96-.34.1-.58.23-.92.35-.82.24-1.63.48-2.44.84-.23 0-.35.1-.58.1-1.04.37-2.2.72-3.25.96-.35.13-.58.13-.93.25-.8.25-1.74.5-2.66.6-.35.13-.7.25-1.16.25l-3.14.72h-.58c-1.27.24-2.55.48-3.82.6-.35.1-.82.1-1.16.23-.93.13-1.98.25-3.02.37-.35 0-.8.12-1.16.12-1.28.1-2.55.23-3.83.35h-.34l-4.17.36h-1.17c-1.05.13-2.1.13-3.25.13-.35 0-.8 0-1.16.12H1118.95c-.35-.13-.8-.13-1.16-.13-1.17 0-2.2 0-3.26-.12h-1.16l-4.17-.36h-.46l-3.7-.36c-.36 0-.82-.12-1.17-.12-1.04-.12-2.1-.24-3-.36-.36-.12-.83-.12-1.17-.23-1.28-.13-2.56-.37-3.83-.6-.23 0-.47 0-.58-.13-1.06-.12-2.1-.36-3.14-.6-.47 0-.82-.12-1.16-.24-.93-.12-1.74-.36-2.67-.6-.35-.12-.58-.12-.93-.24-1.04-.24-2.2-.6-3.25-.95-.23 0-.46-.12-.58-.12-.93-.36-1.62-.6-2.43-.84-.35-.12-.58-.24-.93-.36-.7-.36-1.38-.6-2.08-.96-.23-.12-.46-.12-.7-.24-.7-.35-1.4-.7-2.08-1.2l10.44 77.76c.1.13.1.25.1.37 0 2.52 14.05 8.52 37.25 8.52 8.7 0 17.4-.96 24.47-2.5 2.8-.74 5.22-1.46 7.3-2.17 4.54-1.8 5.58-3.5 5.58-3.85 0-.12 0-.24.12-.36zm-37.47-100.33c-28.54 0-48.6 8.88-49.07 13.7l.12.6c0 .1.1.35.23.46.12.13.12.37.24.5.12.1.35.35.46.47.12.12.24.36.47.48.1.12.46.36.7.48.1.25.34.37.46.5.35.23.7.35 1.04.58.23.13.35.25.7.37.35.24.7.36 1.16.6.23.12.46.24.8.36.47.25.94.5 1.4.6.35.13.7.25.93.37.58.24 1.16.48 1.74.6.35.1.7.23 1.04.35.58.25 1.16.37 1.86.6.35.13.7.25 1.16.37.7.1 1.4.23 2.1.47.34.12.8.24 1.26.24.7.25 1.5.37 2.2.5.47.1.94.23 1.4.35.8.12 1.74.23 2.55.35.47.13.93.25 1.4.25.92.12 1.85.24 2.66.36.58.13 1.05.25 1.63.25.92.12 1.85.24 2.9.36.46 0 1.04.13 1.62.13.93.12 1.97.12 2.9.24.58 0 1.16.12 1.86.12 1.04.1 2.08.1 3.13.1.58.13 1.16.13 1.85.13 1.63 0 3.37.12 5.1.12 1.86 0 3.6-.13 5.23-.13.7 0 1.27 0 1.85-.12 1.05 0 2.1 0 3.14-.12.7 0 1.27-.12 1.85-.12 1.04-.12 1.96-.12 2.9-.24.57 0 1.15-.12 1.73-.12l2.8-.36c.57 0 1.03-.12 1.6-.24.94-.12 1.75-.24 2.56-.36.57 0 1.04-.12 1.62-.24.8-.12 1.62-.23 2.32-.35.58-.13 1.04-.25 1.5-.37.82-.12 1.5-.24 2.2-.48.47 0 .94-.12 1.4-.24.7-.24 1.4-.36 1.97-.48.48-.12.82-.36 1.3-.48.57-.12 1.15-.24 1.73-.48.46-.12.8-.24 1.16-.35.57-.25 1.03-.37 1.5-.6.46-.13.7-.25 1.04-.37.46-.24.93-.36 1.4-.6.34-.12.57-.24.92-.36.35-.24.7-.36 1.04-.6.35-.12.58-.24.82-.36.23-.23.58-.35.8-.6.24-.12.47-.24.7-.48.24-.12.47-.36.58-.48.24-.12.35-.36.47-.48.1-.12.35-.36.46-.48.12-.12.12-.36.23-.48.12-.1.24-.35.24-.47l.1-.6c-.45-4.8-20.52-13.68-49.17-13.68zm48.37 60.37c4.52 1.07 6.6.95 7.42.83-.46-.73-2.08-2.4-6.84-5.4z" stroke="#000" stroke-opacity="0" fill="#3f8624"/><g><use xlink:href="#X" transform="matrix(1,0,0,1,1038.6078521046252,869.5250500728985) translate(74.41975308641975 17.77777777777778)"/><use xlink:href="#Y" transform="matrix(1,0,0,1,1038.6078521046252,869.5250500728985) translate(12.135802469135797 44.44444444444444)"/></g><path d="M783.94 193.36h120v120h-120v-120z" stroke="#000" stroke-opacity="0" fill="url(#Z)"/><path d="M881.4 274c1.03 0 1.9.82 1.9 1.9v16.84c0 1.07-.87 1.9-1.9 1.9h-19.9c-.8 0-1.42-.4-1.74-1.07l-28.18-60.85h-11.73c-.55 0-1.02-.17-1.34-.58-.38-.33-.54-.82-.54-1.32v-16.84c0-1.08.87-1.9 1.9-1.9h24.95c.72 0 1.35.4 1.66 1.07L874.48 274zm-1.8 16.92v-13.2h-6.3c-.7 0-1.33-.42-1.65-1.08l-28.02-60.85h-21.97V229h11.1c.8 0 1.42.42 1.74 1.08l28.18 60.84zm-49.28-45.65l10.63 22.04c.24.5.24 1.08 0 1.58l-11.57 24.7c-.32.65-1.02 1.06-1.73 1.06h-21.18c-.63 0-1.26-.33-1.57-.9-.4-.5-.4-1.17-.16-1.83l22.2-46.63c.3-.66.94-1.08 1.65-1.08.78 0 1.4.4 1.72 1.07zm-3.86 45.65l10.7-22.78-8.5-17.75-19.28 40.52z" stroke="#000" stroke-opacity="0" fill="#fff"/><g><use xlink:href="#U" transform="matrix(1,0,0,1,753.9411854379587,322.3583834062706) translate(21.944444444444443 17.77777777777778)"/><use xlink:href="#V" transform="matrix(1,0,0,1,753.9411854379587,322.3583834062706) translate(77.87037037037035 17.77777777777778)"/></g><path d="M904.44 521.86h216.17a6 6 0 0 1 6 6V724.3" stroke="#000" fill="none"/><path d="M904.45 522.36h-.5v-1h.5z" stroke="#000" stroke-width=".05"/><path d="M1126.6 739.07l-4.63-14.27h9.27z" stroke="#000"/><path d="M183.94 318.24v197.62a6 6 0 0 0 6 6h305.62" stroke="#000" fill="none"/><path d="M183.94 303.48l4.64 14.26h-9.27zM510.32 521.86l-14.26 4.63v-9.28z" stroke="#000"/><path d="M183.94 302.36v492.16a6 6 0 0 0 6 6h305.62" stroke="#000" fill="none"/><path d="M184.44 302.37h-1v-.5h1z" stroke="#000" stroke-width=".05"/><path d="M510.32 800.52l-14.26 4.64v-9.27z" stroke="#000"/><path d="M511.94 740.52h125.33v120H511.94v-120z" stroke="#fff" stroke-opacity="0" fill="#693cc5"/><path d="M593 838.95c-.37 0-.68-.16-.98-.3-.45-.32-.7-.78-.7-1.32v-73.6c0-.55.3-1.1.8-1.4.5-.3 1.13-.3 1.66-.07l21.75 10.22c.57.23.93.76.93 1.38v56.56c.02.76-.43 1.38-1.16 1.6l-21.72 6.93H593zm1.7-72.62v68.77l18.36-5.84v-54.4zM556.2 838.94h-.5l-21.74-6.9c-.7-.24-1.16-.93-1.13-1.63v-56.54c0-.62.35-1.15.93-1.38l21.73-10.22c.54-.24 1.14-.24 1.67.07.5.3.78.85.78 1.4v73.6c0 .54-.25 1-.7 1.3-.3.24-.63.3-1.04.3zm-20.03-9.6l18.4 5.84v-68.85l-18.4 8.6z" stroke="#fff" stroke-opacity="0" fill="#fff"/><path d="M591.32 784.52h-5.02v-3.2h5.02zm-10.04 0h-5.02v-3.2h5.02zm-10 0h-5.02v-3.2h5.02zm-10.04 0h-5v-3.2h5zM591.32 819.73h-5.02v-3.2h5.02zm-10.04 0h-5.02v-3.2h5.02zm-10 0h-5.02v-3.2h5.02zm-10.04 0h-5v-3.2h5zM567.27 806.03L561 800.9c-.7-.57-.8-1.6-.2-2.26.06-.07.12-.12.2-.18l6.25-5.13 2.18 2.42-4.78 3.98 4.78 3.9zM581.96 806.03l-2.17-2.43 4.76-3.87-4.8-3.9 2.18-2.5 6.28 5.12c.7.57.8 1.58.2 2.26-.07.07-.12.12-.2.17z" stroke="#fff" stroke-opacity="0" fill="#fff"/><path d="M569.7 809.4l6.63-18.8 3.17 1.02-6.64 18.8-3.17-1.02z" stroke="#fff" stroke-opacity="0" stroke-width=".32" fill="#fff"/><g><use xlink:href="#d" transform="matrix(1,0,0,1,481.9411854379587,869.5250500728985) translate(28.21604938271605 17.77777777777778)"/><use xlink:href="#e" transform="matrix(1,0,0,1,481.9411854379587,869.5250500728985) translate(70.19135802469137 17.77777777777778)"/></g><path d="M790.27 740.52h120v120h-120v-120z" stroke="#000" stroke-opacity="0" fill="url(#aa)"/><path d="M887.75 821.16c1.02 0 1.88.83 1.88 1.9v16.85c0 1.08-.86 1.9-1.88 1.9h-19.92c-.8 0-1.42-.4-1.73-1.07l-28.2-60.85h-11.7c-.57 0-1.04-.16-1.35-.57-.4-.32-.55-.82-.55-1.3v-16.86c0-1.07.86-1.9 1.9-1.9h24.94c.7 0 1.34.42 1.65 1.08l28.02 60.84zm-1.82 16.93v-13.22h-6.3c-.7 0-1.33-.4-1.65-1.07l-28.02-60.84H828v13.2h11.1c.78 0 1.4.42 1.73 1.08L869 838.1zm-49.27-45.67l10.62 22.05c.24.5.24 1.07 0 1.57l-11.57 24.68c-.3.66-1 1.07-1.72 1.07H812.8c-.63 0-1.26-.32-1.57-.9-.4-.5-.4-1.16-.16-1.82l22.2-46.65c.32-.66.95-1.07 1.65-1.07.8 0 1.42.4 1.74 1.07zm-3.86 45.66l10.7-22.8-8.5-17.75-19.28 40.54z" stroke="#000" stroke-opacity="0" fill="#fff"/><g><use xlink:href="#U" transform="matrix(1,0,0,1,760.2745187712919,869.5250500728985) translate(21.944444444444443 17.77777777777778)"/><use xlink:href="#V" transform="matrix(1,0,0,1,760.2745187712919,869.5250500728985) translate(77.87037037037035 17.77777777777778)"/></g><path d="M653.66 800.52H773.9" stroke="#000" fill="none"/><path d="M638.9 800.52l14.26-4.63v9.26zM788.66 800.52l-14.27 4.64v-9.27z" stroke="#000"/><path d="M926.66 800.52h131" stroke="#000" fill="none"/><path d="M911.9 800.52l14.26-4.63v9.26zM1072.44 800.52l-14.27 4.64v-9.27z" stroke="#000"/><defs><path fill="#232f3e" d="M205 0l-28-72H64L36 0H1l101-248h38L239 0h-34zm-38-99l-47-123c-12 45-31 82-46 123h93" id="ab"/><path fill="#232f3e" d="M266 0h-40l-56-210L115 0H75L2-248h35L96-30l15-64 43-154h32l59 218 59-218h35" id="ac"/><path fill="#232f3e" d="M185-189c-5-48-123-54-124 2 14 75 158 14 163 119 3 78-121 87-175 55-17-10-28-26-33-46l33-7c5 56 141 63 141-1 0-78-155-14-162-118-5-82 145-84 179-34 5 7 8 16 11 25" id="ad"/><g id="a"><use transform="matrix(0.05,0,0,0.05,0,0)" xlink:href="#ab"/><use transform="matrix(0.05,0,0,0.05,11.35,0)" xlink:href="#ac"/><use transform="matrix(0.05,0,0,0.05,28.299999999999997,0)" xlink:href="#ad"/></g><path fill="#232f3e" d="M212-179c-10-28-35-45-73-45-59 0-87 40-87 99 0 60 29 101 89 101 43 0 62-24 78-52l27 14C228-24 195 4 139 4 59 4 22-46 18-125c-6-104 99-153 187-111 19 9 31 26 39 46" id="ae"/><path fill="#232f3e" d="M24 0v-261h32V0H24" id="af"/><path fill="#232f3e" d="M100-194c62-1 85 37 85 99 1 63-27 99-86 99S16-35 15-95c0-66 28-99 85-99zM99-20c44 1 53-31 53-75 0-43-8-75-51-75s-53 32-53 75 10 74 51 75" id="ag"/><path fill="#232f3e" d="M84 4C-5 8 30-112 23-190h32v120c0 31 7 50 39 49 72-2 45-101 50-169h31l1 190h-30c-1-10 1-25-2-33-11 22-28 36-60 37" id="ah"/><path fill="#232f3e" d="M85-194c31 0 48 13 60 33l-1-100h32l1 261h-30c-2-10 0-23-3-31C134-8 116 4 85 4 32 4 16-35 15-94c0-66 23-100 70-100zm9 24c-40 0-46 34-46 75 0 40 6 74 45 74 42 0 51-32 51-76 0-42-9-74-50-73" id="ai"/><g id="b"><use transform="matrix(0.05,0,0,0.05,0,0)" xlink:href="#ae"/><use transform="matrix(0.05,0,0,0.05,12.950000000000001,0)" xlink:href="#af"/><use transform="matrix(0.05,0,0,0.05,16.900000000000002,0)" xlink:href="#ag"/><use transform="matrix(0.05,0,0,0.05,26.900000000000002,0)" xlink:href="#ah"/><use transform="matrix(0.05,0,0,0.05,36.900000000000006,0)" xlink:href="#ai"/></g><linearGradient gradientUnits="userSpaceOnUse" id="c" x1="183.94" y1="301.86" x2="183.94" y2="204.86"><stop offset="0%" stop-color="#32bedd"/><stop offset="17.5%" stop-color="#32caea"/><stop offset="41%" stop-color="#32d2f2"/><stop offset="77.5%" stop-color="#32d4f5"/></linearGradient><path d="M205 0l-28-72H64L36 0H1l101-248h38L239 0h-34zm-38-99l-47-123c-12 45-31 82-46 123h93" id="aj"/><path d="M30-248c87 1 191-15 191 75 0 78-77 80-158 76V0H30v-248zm33 125c57 0 124 11 124-50 0-59-68-47-124-48v98" id="ak"/><path d="M33 0v-248h34V0H33" id="al"/><g id="d"><use transform="matrix(0.06172839506172839,0,0,0.06172839506172839,0,0)" xlink:href="#aj"/><use transform="matrix(0.06172839506172839,0,0,0.06172839506172839,14.814814814814813,0)" xlink:href="#ak"/><use transform="matrix(0.06172839506172839,0,0,0.06172839506172839,29.629629629629626,0)" xlink:href="#al"/></g><path d="M143 4C61 4 22-44 18-125c-5-107 100-154 193-111 17 8 29 25 37 43l-32 9c-13-25-37-40-76-40-61 0-88 39-88 99 0 61 29 100 91 101 35 0 62-11 79-27v-45h-74v-28h105v86C228-13 192 4 143 4" id="am"/><path d="M141-36C126-15 110 5 73 4 37 3 15-17 15-53c-1-64 63-63 125-63 3-35-9-54-41-54-24 1-41 7-42 31l-33-3c5-37 33-52 76-52 45 0 72 20 72 64v82c-1 20 7 32 28 27v20c-31 9-61-2-59-35zM48-53c0 20 12 33 32 33 41-3 63-29 60-74-43 2-92-5-92 41" id="an"/><path d="M59-47c-2 24 18 29 38 22v24C64 9 27 4 27-40v-127H5v-23h24l9-43h21v43h35v23H59v120" id="ao"/><path d="M100-194c63 0 86 42 84 106H49c0 40 14 67 53 68 26 1 43-12 49-29l28 8c-11 28-37 45-77 45C44 4 14-33 15-96c1-61 26-98 85-98zm52 81c6-60-76-77-97-28-3 7-6 17-6 28h103" id="ap"/><path d="M206 0h-36l-40-164L89 0H53L-1-190h32L70-26l43-164h34l41 164 42-164h31" id="aq"/><path d="M179-190L93 31C79 59 56 82 12 73V49c39 6 53-20 64-50L1-190h34L92-34l54-156h33" id="ar"/><g id="e"><use transform="matrix(0.06172839506172839,0,0,0.06172839506172839,0,0)" xlink:href="#am"/><use transform="matrix(0.06172839506172839,0,0,0.06172839506172839,17.28395061728395,0)" xlink:href="#an"/><use transform="matrix(0.06172839506172839,0,0,0.06172839506172839,29.629629629629626,0)" xlink:href="#ao"/><use transform="matrix(0.06172839506172839,0,0,0.06172839506172839,35.80246913580247,0)" xlink:href="#ap"/><use transform="matrix(0.06172839506172839,0,0,0.06172839506172839,48.148148148148145,0)" xlink:href="#aq"/><use transform="matrix(0.06172839506172839,0,0,0.06172839506172839,64.1358024691358,0)" xlink:href="#an"/><use transform="matrix(0.06172839506172839,0,0,0.06172839506172839,76.48148148148148,0)" xlink:href="#ar"/></g><path d="M185-189c-5-48-123-54-124 2 14 75 158 14 163 119 3 78-121 87-175 55-17-10-28-26-33-46l33-7c5 56 141 63 141-1 0-78-155-14-162-118-5-82 145-84 179-34 5 7 8 16 11 25" id="as"/><path d="M126-127c33 6 58 20 58 59 0 88-139 92-164 29-3-8-5-16-6-25l32-3c6 27 21 44 54 44 32 0 52-15 52-46 0-38-36-46-79-43v-28c39 1 72-4 72-42 0-27-17-43-46-43-28 0-47 15-49 41l-32-3c6-42 35-63 81-64 48-1 79 21 79 65 0 36-21 52-52 59" id="at"/><g id="f"><use transform="matrix(0.06234567901234567,0,0,0.06234567901234567,0,0)" xlink:href="#as"/><use transform="matrix(0.06234567901234567,0,0,0.06234567901234567,14.96296296296296,0)" xlink:href="#at"/></g><path d="M85-194c31 0 48 13 60 33l-1-100h32l1 261h-30c-2-10 0-23-3-31C134-8 116 4 85 4 32 4 16-35 15-94c0-66 23-100 70-100zm9 24c-40 0-46 34-46 75 0 40 6 74 45 74 42 0 51-32 51-76 0-42-9-74-50-73" id="au"/><path d="M100-194c62-1 85 37 85 99 1 63-27 99-86 99S16-35 15-95c0-66 28-99 85-99zM99-20c44 1 53-31 53-75 0-43-8-75-51-75s-53 32-53 75 10 74 51 75" id="av"/><path d="M96-169c-40 0-48 33-48 73s9 75 48 75c24 0 41-14 43-38l32 2c-6 37-31 61-74 61-59 0-76-41-82-99-10-93 101-131 147-64 4 7 5 14 7 22l-32 3c-4-21-16-35-41-35" id="aw"/><path d="M135-143c-3-34-86-38-87 0 15 53 115 12 119 90S17 21 10-45l28-5c4 36 97 45 98 0-10-56-113-15-118-90-4-57 82-63 122-42 12 7 21 19 24 35" id="ax"/><path d="M16-82v-28h88v28H16" id="ay"/><path d="M115-194c53 0 69 39 70 98 0 66-23 100-70 100C84 3 66-7 56-30L54 0H23l1-261h32v101c10-23 28-34 59-34zm-8 174c40 0 45-34 45-75 0-40-5-75-45-74-42 0-51 32-51 76 0 43 10 73 51 73" id="az"/><path d="M117-194c89-4 53 116 60 194h-32v-121c0-31-8-49-39-48C34-167 62-67 57 0H25l-1-190h30c1 10-1 24 2 32 11-22 29-35 61-36" id="aA"/><path d="M108 0H70L1-190h34L89-25l56-165h34" id="aB"/><path d="M114-163C36-179 61-72 57 0H25l-1-190h30c1 12-1 29 2 39 6-27 23-49 58-41v29" id="aC"/><g id="g"><use transform="matrix(0.06234567901234567,0,0,0.06234567901234567,0,0)" xlink:href="#au"/><use transform="matrix(0.06234567901234567,0,0,0.06234567901234567,12.469135802469133,0)" xlink:href="#av"/><use transform="matrix(0.06234567901234567,0,0,0.06234567901234567,24.938271604938265,0)" xlink:href="#aw"/><use transform="matrix(0.06234567901234567,0,0,0.06234567901234567,36.16049382716049,0)" xlink:href="#ax"/><use transform="matrix(0.06234567901234567,0,0,0.06234567901234567,47.38271604938271,0)" xlink:href="#ay"/><use transform="matrix(0.06234567901234567,0,0,0.06234567901234567,54.80185185185184,0)" xlink:href="#ao"/><use transform="matrix(0.06234567901234567,0,0,0.06234567901234567,61.036419753086406,0)" xlink:href="#av"/><use transform="matrix(0.06234567901234567,0,0,0.06234567901234567,73.50555555555553,0)" xlink:href="#ay"/><use transform="matrix(0.06234567901234567,0,0,0.06234567901234567,80.92469135802466,0)" xlink:href="#az"/><use transform="matrix(0.06234567901234567,0,0,0.06234567901234567,93.3938271604938,0)" xlink:href="#ap"/><use transform="matrix(0.06234567901234567,0,0,0.06234567901234567,105.86296296296294,0)" xlink:href="#ay"/><use transform="matrix(0.06234567901234567,0,0,0.06234567901234567,113.28209876543207,0)" xlink:href="#aw"/><use transform="matrix(0.06234567901234567,0,0,0.06234567901234567,124.50432098765428,0)" xlink:href="#av"/><use transform="matrix(0.06234567901234567,0,0,0.06234567901234567,136.9734567901234,0)" xlink:href="#aA"/><use transform="matrix(0.06234567901234567,0,0,0.06234567901234567,149.44259259259255,0)" xlink:href="#aB"/><use transform="matrix(0.06234567901234567,0,0,0.06234567901234567,160.66481481481478,0)" xlink:href="#ap"/><use transform="matrix(0.06234567901234567,0,0,0.06234567901234567,173.13395061728392,0)" xlink:href="#aC"/><use transform="matrix(0.06234567901234567,0,0,0.06234567901234567,180.55308641975304,0)" xlink:href="#ao"/><use transform="matrix(0.06234567901234567,0,0,0.06234567901234567,186.7876543209876,0)" xlink:href="#ap"/><use transform="matrix(0.06234567901234567,0,0,0.06234567901234567,199.25679012345674,0)" xlink:href="#au"/></g><path d="M115-194c55 1 70 41 70 98S169 2 115 4C84 4 66-9 55-30l1 105H24l-1-265h31l2 30c10-21 28-34 59-34zm-8 174c40 0 45-34 45-75s-6-73-45-74c-42 0-51 32-51 76 0 43 10 73 51 73" id="aD"/><g id="h"><use transform="matrix(0.06172839506172839,0,0,0.06172839506172839,0,0)" xlink:href="#as"/><use transform="matrix(0.06172839506172839,0,0,0.06172839506172839,14.814814814814813,0)" xlink:href="#ao"/><use transform="matrix(0.06172839506172839,0,0,0.06172839506172839,20.98765432098765,0)" xlink:href="#ap"/><use transform="matrix(0.06172839506172839,0,0,0.06172839506172839,33.33333333333333,0)" xlink:href="#aD"/></g><path d="M27 0v-27h64v-190l-56 39v-29l58-41h29v221h61V0H27" id="aE"/><path d="M33 0v-38h34V0H33" id="aF"/><g id="i"><use transform="matrix(0.06172839506172839,0,0,0.06172839506172839,0,0)" xlink:href="#aE"/><use transform="matrix(0.06172839506172839,0,0,0.06172839506172839,12.345679012345679,0)" xlink:href="#aF"/></g><path d="M232-93c-1 65-40 97-104 97C67 4 28-28 28-90v-158h33c8 89-33 224 67 224 102 0 64-133 71-224h33v155" id="aG"/><g id="j"><use transform="matrix(0.06172839506172839,0,0,0.06172839506172839,0,0)" xlink:href="#aG"/><use transform="matrix(0.06172839506172839,0,0,0.06172839506172839,15.987654320987653,0)" xlink:href="#ax"/><use transform="matrix(0.06172839506172839,0,0,0.06172839506172839,27.098765432098766,0)" xlink:href="#ap"/></g><path d="M24 0v-261h32V0H24" id="aH"/><path d="M210-169c-67 3-38 105-44 169h-31v-121c0-29-5-50-35-48C34-165 62-65 56 0H25l-1-190h30c1 10-1 24 2 32 10-44 99-50 107 0 11-21 27-35 58-36 85-2 47 119 55 194h-31v-121c0-29-5-49-35-48" id="aI"/><g id="k"><use transform="matrix(0.06172839506172839,0,0,0.06172839506172839,0,0)" xlink:href="#aH"/><use transform="matrix(0.06172839506172839,0,0,0.06172839506172839,4.876543209876543,0)" xlink:href="#an"/><use transform="matrix(0.06172839506172839,0,0,0.06172839506172839,17.22222222222222,0)" xlink:href="#aI"/><use transform="matrix(0.06172839506172839,0,0,0.06172839506172839,35.67901234567901,0)" xlink:href="#az"/><use transform="matrix(0.06172839506172839,0,0,0.06172839506172839,48.02469135802469,0)" xlink:href="#au"/><use transform="matrix(0.06172839506172839,0,0,0.06172839506172839,60.37037037037037,0)" xlink:href="#an"/></g><path d="M141 0L90-78 38 0H4l68-98-65-92h35l48 74 47-74h35l-64 92 68 98h-35" id="aJ"/><g id="l"><use transform="matrix(0.06172839506172839,0,0,0.06172839506172839,0,0)" xlink:href="#aD"/><use transform="matrix(0.06172839506172839,0,0,0.06172839506172839,12.345679012345679,0)" xlink:href="#aC"/><use transform="matrix(0.06172839506172839,0,0,0.06172839506172839,19.691358024691358,0)" xlink:href="#av"/><use transform="matrix(0.06172839506172839,0,0,0.06172839506172839,32.03703703703704,0)" xlink:href="#aJ"/><use transform="matrix(0.06172839506172839,0,0,0.06172839506172839,43.14814814814815,0)" xlink:href="#ar"/></g><path d="M24-231v-30h32v30H24zM24 0v-190h32V0H24" id="aK"/><path d="M177-190C167-65 218 103 67 71c-23-6-38-20-44-43l32-5c15 47 100 32 89-28v-30C133-14 115 1 83 1 29 1 15-40 15-95c0-56 16-97 71-98 29-1 48 16 59 35 1-10 0-23 2-32h30zM94-22c36 0 50-32 50-73 0-42-14-75-50-75-39 0-46 34-46 75s6 73 46 73" id="aL"/><g id="m"><use transform="matrix(0.06172839506172839,0,0,0.06172839506172839,0,0)" xlink:href="#aK"/><use transform="matrix(0.06172839506172839,0,0,0.06172839506172839,4.876543209876543,0)" xlink:href="#aA"/><use transform="matrix(0.06172839506172839,0,0,0.06172839506172839,17.22222222222222,0)" xlink:href="#ao"/><use transform="matrix(0.06172839506172839,0,0,0.06172839506172839,23.39506172839506,0)" xlink:href="#ap"/><use transform="matrix(0.06172839506172839,0,0,0.06172839506172839,35.74074074074074,0)" xlink:href="#aL"/><use transform="matrix(0.06172839506172839,0,0,0.06172839506172839,48.08641975308642,0)" xlink:href="#an"/><use transform="matrix(0.06172839506172839,0,0,0.06172839506172839,60.432098765432094,0)" xlink:href="#aC"/><use transform="matrix(0.06172839506172839,0,0,0.06172839506172839,67.77777777777777,0)" xlink:href="#ao"/><use transform="matrix(0.06172839506172839,0,0,0.06172839506172839,73.9506172839506,0)" xlink:href="#aK"/><use transform="matrix(0.06172839506172839,0,0,0.06172839506172839,78.82716049382715,0)" xlink:href="#av"/><use transform="matrix(0.06172839506172839,0,0,0.06172839506172839,91.17283950617283,0)" xlink:href="#aA"/></g><g id="n"><use transform="matrix(0.06172839506172839,0,0,0.06172839506172839,0,0)" xlink:href="#ao"/><use transform="matrix(0.06172839506172839,0,0,0.06172839506172839,6.172839506172839,0)" xlink:href="#av"/></g><g id="o"><use transform="matrix(0.06172839506172839,0,0,0.06172839506172839,0,0)" xlink:href="#aL"/><use transform="matrix(0.06172839506172839,0,0,0.06172839506172839,12.345679012345679,0)" xlink:href="#ap"/><use transform="matrix(0.06172839506172839,0,0,0.06172839506172839,24.691358024691358,0)" xlink:href="#aA"/><use transform="matrix(0.06172839506172839,0,0,0.06172839506172839,37.03703703703704,0)" xlink:href="#ap"/><use transform="matrix(0.06172839506172839,0,0,0.06172839506172839,49.382716049382715,0)" xlink:href="#aC"/><use transform="matrix(0.06172839506172839,0,0,0.06172839506172839,56.72839506172839,0)" xlink:href="#an"/><use transform="matrix(0.06172839506172839,0,0,0.06172839506172839,69.07407407407408,0)" xlink:href="#ao"/><use transform="matrix(0.06172839506172839,0,0,0.06172839506172839,75.24691358024691,0)" xlink:href="#ap"/></g><g id="p"><use transform="matrix(0.06172839506172839,0,0,0.06172839506172839,0,0)" xlink:href="#aD"/><use transform="matrix(0.06172839506172839,0,0,0.06172839506172839,12.345679012345679,0)" xlink:href="#aC"/><use transform="matrix(0.06172839506172839,0,0,0.06172839506172839,19.691358024691358,0)" xlink:href="#ap"/><use transform="matrix(0.06172839506172839,0,0,0.06172839506172839,32.03703703703704,0)" xlink:href="#ax"/><use transform="matrix(0.06172839506172839,0,0,0.06172839506172839,43.14814814814815,0)" xlink:href="#aK"/><use transform="matrix(0.06172839506172839,0,0,0.06172839506172839,48.0246913580247,0)" xlink:href="#aL"/><use transform="matrix(0.06172839506172839,0,0,0.06172839506172839,60.370370370370374,0)" xlink:href="#aA"/><use transform="matrix(0.06172839506172839,0,0,0.06172839506172839,72.71604938271605,0)" xlink:href="#ap"/><use transform="matrix(0.06172839506172839,0,0,0.06172839506172839,85.06172839506173,0)" xlink:href="#au"/></g><g id="q"><use transform="matrix(0.06172839506172839,0,0,0.06172839506172839,0,0)" xlink:href="#aD"/><use transform="matrix(0.06172839506172839,0,0,0.06172839506172839,12.345679012345679,0)" xlink:href="#av"/><use transform="matrix(0.06172839506172839,0,0,0.06172839506172839,24.691358024691358,0)" xlink:href="#ax"/><use transform="matrix(0.06172839506172839,0,0,0.06172839506172839,35.80246913580247,0)" xlink:href="#ao"/></g><g id="r"><use transform="matrix(0.06172839506172839,0,0,0.06172839506172839,0,0)" xlink:href="#an"/><use transform="matrix(0.06172839506172839,0,0,0.06172839506172839,12.345679012345679,0)" xlink:href="#aA"/><use transform="matrix(0.06172839506172839,0,0,0.06172839506172839,24.691358024691358,0)" xlink:href="#au"/></g><path d="M101-234c-31-9-42 10-38 44h38v23H63V0H32v-167H5v-23h27c-7-52 17-82 69-68v24" id="aM"/><g id="s"><use transform="matrix(0.06172839506172839,0,0,0.06172839506172839,0,0)" xlink:href="#aM"/><use transform="matrix(0.06172839506172839,0,0,0.06172839506172839,6.172839506172839,0)" xlink:href="#aK"/><use transform="matrix(0.06172839506172839,0,0,0.06172839506172839,11.049382716049383,0)" xlink:href="#aH"/><use transform="matrix(0.06172839506172839,0,0,0.06172839506172839,15.925925925925926,0)" xlink:href="#ap"/></g><g id="t"><use transform="matrix(0.06172839506172839,0,0,0.06172839506172839,0,0)" xlink:href="#au"/><use transform="matrix(0.06172839506172839,0,0,0.06172839506172839,12.345679012345679,0)" xlink:href="#aK"/><use transform="matrix(0.06172839506172839,0,0,0.06172839506172839,17.22222222222222,0)" xlink:href="#aC"/><use transform="matrix(0.06172839506172839,0,0,0.06172839506172839,24.5679012345679,0)" xlink:href="#ap"/><use transform="matrix(0.06172839506172839,0,0,0.06172839506172839,36.913580246913575,0)" xlink:href="#aw"/><use transform="matrix(0.06172839506172839,0,0,0.06172839506172839,48.02469135802468,0)" xlink:href="#ao"/><use transform="matrix(0.06172839506172839,0,0,0.06172839506172839,54.197530864197525,0)" xlink:href="#aH"/><use transform="matrix(0.06172839506172839,0,0,0.06172839506172839,59.07407407407407,0)" xlink:href="#ar"/></g><g id="u"><use transform="matrix(0.06172839506172839,0,0,0.06172839506172839,0,0)" xlink:href="#ax"/><use transform="matrix(0.06172839506172839,0,0,0.06172839506172839,11.11111111111111,0)" xlink:href="#at"/></g><path d="M101-251c82-7 93 87 43 132L82-64C71-53 59-42 53-27h129V0H18c2-99 128-94 128-182 0-28-16-43-45-43s-46 15-49 41l-32-3c6-41 34-60 81-64" id="aN"/><g id="v"><use transform="matrix(0.06172839506172839,0,0,0.06172839506172839,0,0)" xlink:href="#aN"/><use transform="matrix(0.06172839506172839,0,0,0.06172839506172839,12.345679012345679,0)" xlink:href="#aF"/></g><g id="w"><use transform="matrix(0.06172839506172839,0,0,0.06172839506172839,0,0)" xlink:href="#aK"/><use transform="matrix(0.06172839506172839,0,0,0.06172839506172839,4.876543209876543,0)" xlink:href="#aA"/><use transform="matrix(0.06172839506172839,0,0,0.06172839506172839,17.22222222222222,0)" xlink:href="#ao"/><use transform="matrix(0.06172839506172839,0,0,0.06172839506172839,23.39506172839506,0)" xlink:href="#ap"/><use transform="matrix(0.06172839506172839,0,0,0.06172839506172839,35.74074074074074,0)" xlink:href="#aL"/><use transform="matrix(0.06172839506172839,0,0,0.06172839506172839,48.08641975308642,0)" xlink:href="#aC"/><use transform="matrix(0.06172839506172839,0,0,0.06172839506172839,55.432098765432094,0)" xlink:href="#an"/><use transform="matrix(0.06172839506172839,0,0,0.06172839506172839,67.77777777777777,0)" xlink:href="#ao"/><use transform="matrix(0.06172839506172839,0,0,0.06172839506172839,73.9506172839506,0)" xlink:href="#aK"/><use transform="matrix(0.06172839506172839,0,0,0.06172839506172839,78.82716049382715,0)" xlink:href="#av"/><use transform="matrix(0.06172839506172839,0,0,0.06172839506172839,91.17283950617283,0)" xlink:href="#aA"/></g><path d="M106-169C34-169 62-67 57 0H25v-261h32l-1 103c12-21 28-36 61-36 89 0 53 116 60 194h-32v-121c2-32-8-49-39-48" id="aO"/><g id="x"><use transform="matrix(0.06172839506172839,0,0,0.06172839506172839,0,0)" xlink:href="#ao"/><use transform="matrix(0.06172839506172839,0,0,0.06172839506172839,6.172839506172839,0)" xlink:href="#aO"/><use transform="matrix(0.06172839506172839,0,0,0.06172839506172839,18.51851851851852,0)" xlink:href="#an"/><use transform="matrix(0.06172839506172839,0,0,0.06172839506172839,30.864197530864196,0)" xlink:href="#ao"/></g><g id="y"><use transform="matrix(0.06172839506172839,0,0,0.06172839506172839,0,0)" xlink:href="#aq"/><use transform="matrix(0.06172839506172839,0,0,0.06172839506172839,15.987654320987653,0)" xlink:href="#aK"/><use transform="matrix(0.06172839506172839,0,0,0.06172839506172839,20.864197530864196,0)" xlink:href="#aH"/><use transform="matrix(0.06172839506172839,0,0,0.06172839506172839,25.74074074074074,0)" xlink:href="#aH"/></g><g id="z"><use transform="matrix(0.06172839506172839,0,0,0.06172839506172839,0,0)" xlink:href="#an"/><use transform="matrix(0.06172839506172839,0,0,0.06172839506172839,12.345679012345679,0)" xlink:href="#au"/><use transform="matrix(0.06172839506172839,0,0,0.06172839506172839,24.691358024691358,0)" xlink:href="#au"/></g><path d="M143 0L79-87 56-68V0H24v-261h32v163l83-92h37l-77 82L181 0h-38" id="aP"/><g id="A"><use transform="matrix(0.06172839506172839,0,0,0.06172839506172839,0,0)" xlink:href="#aq"/><use transform="matrix(0.06172839506172839,0,0,0.06172839506172839,15.987654320987653,0)" xlink:href="#an"/><use transform="matrix(0.06172839506172839,0,0,0.06172839506172839,28.333333333333332,0)" xlink:href="#ao"/><use transform="matrix(0.06172839506172839,0,0,0.06172839506172839,34.50617283950617,0)" xlink:href="#ap"/><use transform="matrix(0.06172839506172839,0,0,0.06172839506172839,46.85185185185185,0)" xlink:href="#aC"/><use transform="matrix(0.06172839506172839,0,0,0.06172839506172839,54.197530864197525,0)" xlink:href="#aI"/><use transform="matrix(0.06172839506172839,0,0,0.06172839506172839,72.65432098765432,0)" xlink:href="#an"/><use transform="matrix(0.06172839506172839,0,0,0.06172839506172839,85,0)" xlink:href="#aC"/><use transform="matrix(0.06172839506172839,0,0,0.06172839506172839,92.34567901234568,0)" xlink:href="#aP"/></g><g id="B"><use transform="matrix(0.06172839506172839,0,0,0.06172839506172839,0,0)" xlink:href="#aM"/><use transform="matrix(0.06172839506172839,0,0,0.06172839506172839,6.172839506172839,0)" xlink:href="#aK"/><use transform="matrix(0.06172839506172839,0,0,0.06172839506172839,11.049382716049383,0)" xlink:href="#aH"/><use transform="matrix(0.06172839506172839,0,0,0.06172839506172839,15.925925925925926,0)" xlink:href="#ap"/><use transform="matrix(0.06172839506172839,0,0,0.06172839506172839,28.271604938271604,0)" xlink:href="#aF"/></g><g id="C"><use transform="matrix(0.06172839506172839,0,0,0.06172839506172839,0,0)" xlink:href="#al"/><use transform="matrix(0.06172839506172839,0,0,0.06172839506172839,6.172839506172839,0)" xlink:href="#ao"/></g><g id="D"><use transform="matrix(0.06172839506172839,0,0,0.06172839506172839,0,0)" xlink:href="#aL"/><use transform="matrix(0.06172839506172839,0,0,0.06172839506172839,12.345679012345679,0)" xlink:href="#ap"/><use transform="matrix(0.06172839506172839,0,0,0.06172839506172839,24.691358024691358,0)" xlink:href="#ao"/></g><g id="E"><use transform="matrix(0.06172839506172839,0,0,0.06172839506172839,0,0)" xlink:href="#ao"/><use transform="matrix(0.06172839506172839,0,0,0.06172839506172839,6.172839506172839,0)" xlink:href="#aO"/><use transform="matrix(0.06172839506172839,0,0,0.06172839506172839,18.51851851851852,0)" xlink:href="#ap"/></g><g id="F"><use transform="matrix(0.06172839506172839,0,0,0.06172839506172839,0,0)" xlink:href="#aM"/><use transform="matrix(0.06172839506172839,0,0,0.06172839506172839,6.172839506172839,0)" xlink:href="#aK"/><use transform="matrix(0.06172839506172839,0,0,0.06172839506172839,11.049382716049383,0)" xlink:href="#aH"/><use transform="matrix(0.06172839506172839,0,0,0.06172839506172839,15.925925925925926,0)" xlink:href="#ap"/></g><path d="M24-231v-30h32v30H24zM-9 49c24 4 33-6 33-30v-209h32V24c2 40-23 58-65 49V49" id="aQ"/><g id="G"><use transform="matrix(0.06172839506172839,0,0,0.06172839506172839,0,0)" xlink:href="#av"/><use transform="matrix(0.06172839506172839,0,0,0.06172839506172839,12.345679012345679,0)" xlink:href="#az"/><use transform="matrix(0.06172839506172839,0,0,0.06172839506172839,24.691358024691358,0)" xlink:href="#aQ"/><use transform="matrix(0.06172839506172839,0,0,0.06172839506172839,29.5679012345679,0)" xlink:href="#ap"/><use transform="matrix(0.06172839506172839,0,0,0.06172839506172839,41.913580246913575,0)" xlink:href="#aw"/><use transform="matrix(0.06172839506172839,0,0,0.06172839506172839,53.02469135802468,0)" xlink:href="#ao"/></g><g id="H"><use transform="matrix(0.06172839506172839,0,0,0.06172839506172839,0,0)" xlink:href="#aM"/><use transform="matrix(0.06172839506172839,0,0,0.06172839506172839,6.172839506172839,0)" xlink:href="#aC"/><use transform="matrix(0.06172839506172839,0,0,0.06172839506172839,13.518518518518519,0)" xlink:href="#av"/><use transform="matrix(0.06172839506172839,0,0,0.06172839506172839,25.864197530864196,0)" xlink:href="#aI"/></g><g id="I"><use transform="matrix(0.06172839506172839,0,0,0.06172839506172839,0,0)" xlink:href="#ax"/><use transform="matrix(0.06172839506172839,0,0,0.06172839506172839,11.11111111111111,0)" xlink:href="#at"/></g><path d="M84 4C-5 8 30-112 23-190h32v120c0 31 7 50 39 49 72-2 45-101 50-169h31l1 190h-30c-1-10 1-25-2-33-11 22-28 36-60 37" id="aR"/><g id="J"><use transform="matrix(0.06172839506172839,0,0,0.06172839506172839,0,0)" xlink:href="#az"/><use transform="matrix(0.06172839506172839,0,0,0.06172839506172839,12.345679012345679,0)" xlink:href="#aR"/><use transform="matrix(0.06172839506172839,0,0,0.06172839506172839,24.691358024691358,0)" xlink:href="#aw"/><use transform="matrix(0.06172839506172839,0,0,0.06172839506172839,35.80246913580247,0)" xlink:href="#aP"/><use transform="matrix(0.06172839506172839,0,0,0.06172839506172839,46.91358024691358,0)" xlink:href="#ap"/><use transform="matrix(0.06172839506172839,0,0,0.06172839506172839,59.25925925925926,0)" xlink:href="#ao"/></g><g id="K"><use transform="matrix(0.06172839506172839,0,0,0.06172839506172839,0,0)" xlink:href="#aD"/><use transform="matrix(0.06172839506172839,0,0,0.06172839506172839,12.345679012345679,0)" xlink:href="#aH"/><use transform="matrix(0.06172839506172839,0,0,0.06172839506172839,17.22222222222222,0)" xlink:href="#an"/><use transform="matrix(0.06172839506172839,0,0,0.06172839506172839,29.5679012345679,0)" xlink:href="#aw"/><use transform="matrix(0.06172839506172839,0,0,0.06172839506172839,40.67901234567901,0)" xlink:href="#ap"/></g><g id="L"><use transform="matrix(0.06172839506172839,0,0,0.06172839506172839,0,0)" xlink:href="#aq"/><use transform="matrix(0.06172839506172839,0,0,0.06172839506172839,15.987654320987653,0)" xlink:href="#an"/><use transform="matrix(0.06172839506172839,0,0,0.06172839506172839,28.333333333333332,0)" xlink:href="#ao"/><use transform="matrix(0.06172839506172839,0,0,0.06172839506172839,34.50617283950617,0)" xlink:href="#ap"/><use transform="matrix(0.06172839506172839,0,0,0.06172839506172839,46.85185185185185,0)" xlink:href="#aC"/><use transform="matrix(0.06172839506172839,0,0,0.06172839506172839,54.197530864197525,0)" xlink:href="#aI"/><use transform="matrix(0.06172839506172839,0,0,0.06172839506172839,72.65432098765432,0)" xlink:href="#an"/><use transform="matrix(0.06172839506172839,0,0,0.06172839506172839,85,0)" xlink:href="#aC"/><use transform="matrix(0.06172839506172839,0,0,0.06172839506172839,92.34567901234568,0)" xlink:href="#aP"/><use transform="matrix(0.06172839506172839,0,0,0.06172839506172839,103.4567901234568,0)" xlink:href="#ap"/><use transform="matrix(0.06172839506172839,0,0,0.06172839506172839,115.80246913580248,0)" xlink:href="#au"/></g><g id="M"><use transform="matrix(0.06172839506172839,0,0,0.06172839506172839,0,0)" xlink:href="#aK"/><use transform="matrix(0.06172839506172839,0,0,0.06172839506172839,4.876543209876543,0)" xlink:href="#aA"/></g><g id="N"><use transform="matrix(0.06172839506172839,0,0,0.06172839506172839,0,0)" xlink:href="#aw"/><use transform="matrix(0.06172839506172839,0,0,0.06172839506172839,11.11111111111111,0)" xlink:href="#av"/><use transform="matrix(0.06172839506172839,0,0,0.06172839506172839,23.45679012345679,0)" xlink:href="#aA"/><use transform="matrix(0.06172839506172839,0,0,0.06172839506172839,35.80246913580247,0)" xlink:href="#aB"/><use transform="matrix(0.06172839506172839,0,0,0.06172839506172839,46.91358024691358,0)" xlink:href="#ap"/><use transform="matrix(0.06172839506172839,0,0,0.06172839506172839,59.25925925925926,0)" xlink:href="#aC"/><use transform="matrix(0.06172839506172839,0,0,0.06172839506172839,66.60493827160494,0)" xlink:href="#ao"/><use transform="matrix(0.06172839506172839,0,0,0.06172839506172839,72.77777777777777,0)" xlink:href="#ap"/><use transform="matrix(0.06172839506172839,0,0,0.06172839506172839,85.12345679012346,0)" xlink:href="#au"/><use transform="matrix(0.06172839506172839,0,0,0.06172839506172839,97.46913580246914,0)" xlink:href="#au"/><use transform="matrix(0.06172839506172839,0,0,0.06172839506172839,109.81481481481482,0)" xlink:href="#av"/><use transform="matrix(0.06172839506172839,0,0,0.06172839506172839,122.16049382716051,0)" xlink:href="#aw"/><use transform="matrix(0.06172839506172839,0,0,0.06172839506172839,133.27160493827162,0)" xlink:href="#ax"/></g><g id="O"><use transform="matrix(0.06172839506172839,0,0,0.06172839506172839,0,0)" xlink:href="#az"/><use transform="matrix(0.06172839506172839,0,0,0.06172839506172839,12.345679012345679,0)" xlink:href="#aR"/><use transform="matrix(0.06172839506172839,0,0,0.06172839506172839,24.691358024691358,0)" xlink:href="#aw"/><use transform="matrix(0.06172839506172839,0,0,0.06172839506172839,35.80246913580247,0)" xlink:href="#aP"/><use transform="matrix(0.06172839506172839,0,0,0.06172839506172839,46.91358024691358,0)" xlink:href="#ap"/><use transform="matrix(0.06172839506172839,0,0,0.06172839506172839,59.25925925925926,0)" xlink:href="#ao"/></g><g id="P"><use transform="matrix(0.06172839506172839,0,0,0.06172839506172839,0,0)" xlink:href="#at"/><use transform="matrix(0.06172839506172839,0,0,0.06172839506172839,12.345679012345679,0)" xlink:href="#aF"/></g><g id="Q"><use transform="matrix(0.06172839506172839,0,0,0.06172839506172839,0,0)" xlink:href="#am"/><use transform="matrix(0.06172839506172839,0,0,0.06172839506172839,17.28395061728395,0)" xlink:href="#ap"/><use transform="matrix(0.06172839506172839,0,0,0.06172839506172839,29.629629629629626,0)" xlink:href="#aA"/><use transform="matrix(0.06172839506172839,0,0,0.06172839506172839,41.9753086419753,0)" xlink:href="#ap"/><use transform="matrix(0.06172839506172839,0,0,0.06172839506172839,54.32098765432098,0)" xlink:href="#aC"/><use transform="matrix(0.06172839506172839,0,0,0.06172839506172839,61.66666666666666,0)" xlink:href="#an"/><use transform="matrix(0.06172839506172839,0,0,0.06172839506172839,74.01234567901234,0)" xlink:href="#ao"/><use transform="matrix(0.06172839506172839,0,0,0.06172839506172839,80.18518518518518,0)" xlink:href="#ap"/></g><g id="R"><use transform="matrix(0.06172839506172839,0,0,0.06172839506172839,0,0)" xlink:href="#aR"/><use transform="matrix(0.06172839506172839,0,0,0.06172839506172839,12.345679012345679,0)" xlink:href="#aC"/><use transform="matrix(0.06172839506172839,0,0,0.06172839506172839,19.691358024691358,0)" xlink:href="#aH"/></g><path d="M-5 72V49h209v23H-5" id="aS"/><g id="S"><use transform="matrix(0.06172839506172839,0,0,0.06172839506172839,0,0)" xlink:href="#aL"/><use transform="matrix(0.06172839506172839,0,0,0.06172839506172839,12.345679012345679,0)" xlink:href="#ap"/><use transform="matrix(0.06172839506172839,0,0,0.06172839506172839,24.691358024691358,0)" xlink:href="#ao"/><use transform="matrix(0.06172839506172839,0,0,0.06172839506172839,30.864197530864196,0)" xlink:href="#aS"/><use transform="matrix(0.06172839506172839,0,0,0.06172839506172839,43.20987654320987,0)" xlink:href="#av"/><use transform="matrix(0.06172839506172839,0,0,0.06172839506172839,55.55555555555555,0)" xlink:href="#az"/><use transform="matrix(0.06172839506172839,0,0,0.06172839506172839,67.90123456790123,0)" xlink:href="#aQ"/><use transform="matrix(0.06172839506172839,0,0,0.06172839506172839,72.77777777777777,0)" xlink:href="#ap"/><use transform="matrix(0.06172839506172839,0,0,0.06172839506172839,85.12345679012346,0)" xlink:href="#aw"/><use transform="matrix(0.06172839506172839,0,0,0.06172839506172839,96.23456790123457,0)" xlink:href="#ao"/></g><linearGradient gradientUnits="userSpaceOnUse" id="T" x1="783.94" y1="581.86" x2="903.94" y2="461.86"><stop offset="0%" stop-color="#c8511b"/><stop offset="100%" stop-color="#f90"/></linearGradient><path d="M266 0h-40l-56-210L115 0H75L2-248h35L96-30l15-64 43-154h32l59 218 59-218h35" id="aT"/><g id="U"><use transform="matrix(0.06172839506172839,0,0,0.06172839506172839,0,0)" xlink:href="#aj"/><use transform="matrix(0.06172839506172839,0,0,0.06172839506172839,14.012345679012345,0)" xlink:href="#aT"/><use transform="matrix(0.06172839506172839,0,0,0.06172839506172839,34.938271604938265,0)" xlink:href="#as"/></g><path d="M30 0v-248h33v221h125V0H30" id="aU"/><g id="V"><use transform="matrix(0.06172839506172839,0,0,0.06172839506172839,0,0)" xlink:href="#aU"/><use transform="matrix(0.06172839506172839,0,0,0.06172839506172839,12.345679012345679,0)" xlink:href="#an"/><use transform="matrix(0.06172839506172839,0,0,0.06172839506172839,24.691358024691358,0)" xlink:href="#aI"/><use transform="matrix(0.06172839506172839,0,0,0.06172839506172839,43.148148148148145,0)" xlink:href="#az"/><use transform="matrix(0.06172839506172839,0,0,0.06172839506172839,55.49382716049382,0)" xlink:href="#au"/><use transform="matrix(0.06172839506172839,0,0,0.06172839506172839,67.8395061728395,0)" xlink:href="#an"/></g><path d="M160-131c35 5 61 23 61 61C221 17 115-2 30 0v-248c76 3 177-17 177 60 0 33-19 50-47 57zm-97-11c50-1 110 9 110-42 0-47-63-36-110-37v79zm0 115c55-2 124 14 124-45 0-56-70-42-124-44v89" id="aV"/><g id="W"><use transform="matrix(0.06172839506172839,0,0,0.06172839506172839,0,0)" xlink:href="#aV"/><use transform="matrix(0.06172839506172839,0,0,0.06172839506172839,14.814814814814813,0)" xlink:href="#aC"/><use transform="matrix(0.06172839506172839,0,0,0.06172839506172839,22.160493827160494,0)" xlink:href="#av"/><use transform="matrix(0.06172839506172839,0,0,0.06172839506172839,34.50617283950617,0)" xlink:href="#aq"/><use transform="matrix(0.06172839506172839,0,0,0.06172839506172839,50.49382716049382,0)" xlink:href="#ax"/><use transform="matrix(0.06172839506172839,0,0,0.06172839506172839,61.60493827160494,0)" xlink:href="#ap"/><use transform="matrix(0.06172839506172839,0,0,0.06172839506172839,73.95061728395062,0)" xlink:href="#aC"/></g><g id="X"><use transform="matrix(0.06172839506172839,0,0,0.06172839506172839,0,0)" xlink:href="#as"/><use transform="matrix(0.06172839506172839,0,0,0.06172839506172839,14.814814814814813,0)" xlink:href="#at"/></g><g id="Y"><use transform="matrix(0.06172839506172839,0,0,0.06172839506172839,0,0)" xlink:href="#aw"/><use transform="matrix(0.06172839506172839,0,0,0.06172839506172839,11.11111111111111,0)" xlink:href="#av"/><use transform="matrix(0.06172839506172839,0,0,0.06172839506172839,23.45679012345679,0)" xlink:href="#aA"/><use transform="matrix(0.06172839506172839,0,0,0.06172839506172839,35.80246913580247,0)" xlink:href="#aB"/><use transform="matrix(0.06172839506172839,0,0,0.06172839506172839,46.91358024691358,0)" xlink:href="#ap"/><use transform="matrix(0.06172839506172839,0,0,0.06172839506172839,59.25925925925926,0)" xlink:href="#aC"/><use transform="matrix(0.06172839506172839,0,0,0.06172839506172839,66.60493827160494,0)" xlink:href="#ao"/><use transform="matrix(0.06172839506172839,0,0,0.06172839506172839,72.77777777777777,0)" xlink:href="#ap"/><use transform="matrix(0.06172839506172839,0,0,0.06172839506172839,85.12345679012346,0)" xlink:href="#au"/><use transform="matrix(0.06172839506172839,0,0,0.06172839506172839,97.46913580246914,0)" xlink:href="#ay"/><use transform="matrix(0.06172839506172839,0,0,0.06172839506172839,104.81481481481482,0)" xlink:href="#au"/><use transform="matrix(0.06172839506172839,0,0,0.06172839506172839,117.16049382716051,0)" xlink:href="#av"/><use transform="matrix(0.06172839506172839,0,0,0.06172839506172839,129.50617283950618,0)" xlink:href="#aw"/><use transform="matrix(0.06172839506172839,0,0,0.06172839506172839,140.6172839506173,0)" xlink:href="#ax"/></g><linearGradient gradientUnits="userSpaceOnUse" id="Z" x1="783.94" y1="313.36" x2="903.94" y2="193.36"><stop offset="0%" stop-color="#c8511b"/><stop offset="100%" stop-color="#f90"/></linearGradient><linearGradient gradientUnits="userSpaceOnUse" id="aa" x1="790.27" y1="860.53" x2="910.27" y2="740.53"><stop offset="0%" stop-color="#c8511b"/><stop offset="100%" stop-color="#f90"/></linearGradient></defs></g></svg>